<?xml version="1.0" encoding="UTF-8"?>
<svg width="30px" height="30px" viewBox="0 0 30 30" version="1.1" xmlns="http://www.w3.org/2000/svg" xmlns:xlink="http://www.w3.org/1999/xlink">
    <title>Call</title>
    <g id="Page-1" stroke="none" stroke-width="1" fill="none" fill-rule="evenodd">
        <g id="CONT---Notes" transform="translate(-882.000000, -160.000000)">
            <g id="Contact-Name" transform="translate(0.000000, 100.000000)">
                <g id="Call" transform="translate(882.000000, 60.000000)">
                    <circle id="Oval" fill="#6D41E7" cx="15" cy="15" r="15"></circle>
                    <g id="phone-call" transform="translate(9.000000, 9.000000)" stroke="#FFFFFF" stroke-linecap="round" stroke-linejoin="round">
                        <path d="M7.43281144,2.29356425 C8.58063467,2.51708163 9.47809806,3.41282963 9.70204349,4.55845894 M7.43281144,0 C9.83391649,0.266233636 11.7302346,2.15654639 12,4.55272503 M11.4255109,9.12838571 L11.4255109,10.8485589 C11.426824,11.1714613 11.2916825,11.4799533 11.0532867,11.698247 C10.8148908,11.9165407 10.4953348,12.0244051 10.1731246,11.995341 C8.40532609,11.8036224 6.7072312,11.2007039 5.21528341,10.2350305 C3.82721894,9.35468243 2.65038257,8.18009545 1.76834865,6.79468409 C0.797449423,5.29882377 0.193239069,3.59573223 0.00466703345,1.82338358 C-0.0243600578,1.50278477 0.0829538204,1.18477067 0.300394377,0.947024751 C0.517834933,0.709278831 0.825378891,0.573694208 1.1479004,0.573334687 L2.87136778,0.573334687 C3.44807676,0.567725868 3.93963079,0.989654328 4.02034603,1.55962369 C4.09308957,2.11011721 4.22799481,2.65063028 4.42248842,3.17085257 C4.58032069,3.58992978 4.4793715,4.06236459 4.16396831,4.38070771 L3.43436712,5.10891436 C4.25218426,6.54442517 5.44304202,7.73300675 6.88130188,8.54926074 L7.61090307,7.82105409 C7.92985584,7.50625375 8.40319537,7.40549751 8.82307513,7.56302811 C9.34429367,7.75714996 9.88584184,7.89179735 10.4373896,7.96440185 C11.0150744,8.04574329 11.4399823,8.54627485 11.4255109,9.12838571 L11.4255109,9.12838571 Z" id="Shape"></path>
                    </g>
                </g>
            </g>
        </g>
    </g>
</svg>