<?xml version="1.0" encoding="utf-8"?>
<!-- Generator: Adobe Illustrator 17.0.0, SVG Export Plug-In . SVG Version: 6.00 Build 0)  -->
<!DOCTYPE svg PUBLIC "-//W3C//DTD SVG 1.1//EN" "http://www.w3.org/Graphics/SVG/1.1/DTD/svg11.dtd">
<svg version="1.1" xmlns="http://www.w3.org/2000/svg" xmlns:xlink="http://www.w3.org/1999/xlink" x="0px" y="0px" width="64px"
	 height="64px" viewBox="0 0 64 64" enable-background="new 0 0 64 64" xml:space="preserve">
<g id="Layer_4">
</g>
<g id="Layer_3">
</g>
<g id="Layer_2">
</g>
<g id="Layer_1">
</g>
<g id="Layer_5">
	<g>
		<g>
			<path fill="#FBE2CB" d="M59.5,31.191c0-15.188-12.312-27.5-27.5-27.5S4.5,16.003,4.5,31.191c0,9.396,4.715,17.687,11.905,22.647
				h31.191C54.785,48.878,59.5,40.587,59.5,31.191z"/>
		</g>
		
			<line fill="none" stroke="#2D346A" stroke-width="1.5" stroke-linecap="round" stroke-miterlimit="10" x1="13.206" y1="53.838" x2="50.794" y2="53.838"/>
		
			<line fill="none" stroke="#C3CCE9" stroke-width="1.5" stroke-linecap="round" stroke-linejoin="round" stroke-miterlimit="10" x1="20.375" y1="57.074" x2="43.625" y2="57.074"/>
		
			<line fill="none" stroke="#C3CCE9" stroke-width="1.5" stroke-linecap="round" stroke-linejoin="round" stroke-miterlimit="10" x1="27.641" y1="60.309" x2="32.314" y2="60.309"/>
		
			<line fill="none" stroke="#C3CCE9" stroke-width="1.5" stroke-linecap="round" stroke-linejoin="round" stroke-miterlimit="10" x1="35.166" y1="60.309" x2="36.415" y2="60.309"/>
	</g>
	<g>
		<path fill="#C3CCE9" d="M45.452,47.011h-4.748H18.548c-1.748,0-3.165,1.417-3.165,3.165v0.496c0,1.748,1.417,3.165,3.165,3.165
			h26.905c1.748,0,3.165-1.417,3.165-3.165v-0.496C48.618,48.428,47.2,47.011,45.452,47.011z"/>
		<g>
			<path fill="#C3CCE9" d="M44.397,11.237c-1.187-0.7-3.957-0.553-5.072,1.162c-1.116,1.715-4.094,1.583-4.094,0
				S34.11,8.838,32,8.838s-3.231,1.978-3.231,3.561s-2.978,1.715-4.094,0c-1.116-1.715-3.885-1.862-5.072-1.162
				c-1.187,0.7,3.281,1.492,5.07,5.745h14.655C41.116,12.729,45.584,11.938,44.397,11.237z"/>
			<path fill="#E8F3FF" d="M45.452,47.011v-8.169c0-5.869-0.791-12.661-6.199-18.464H24.746c-5.407,5.803-6.199,12.595-6.199,18.464
				v8.169l0,0H45.452L45.452,47.011z"/>
			<path fill="#E4C95C" d="M39.327,20.378c0.938,0,1.698-0.76,1.698-1.698c0-0.938-0.76-1.698-1.698-1.698H24.673
				c-0.938,0-1.698,0.76-1.698,1.698c0,0.938,0.76,1.698,1.698,1.698h0.074h14.507H39.327z"/>
		</g>
	</g>
	<g>
		<path fill="none" stroke="#2D346A" stroke-width="1.5" stroke-linecap="round" stroke-miterlimit="10" d="M18.548,47.011
			c-1.748,0-3.165,1.417-3.165,3.165v0.497c0,1.748,1.417,3.165,3.165,3.165h26.905c1.748,0,3.165-1.417,3.165-3.165v-0.497
			c0-1.748-1.417-3.165-3.165-3.165h-4.748"/>
		<path fill="none" stroke="#2D346A" stroke-width="1.5" stroke-miterlimit="10" d="M24.746,20.378
			c-5.407,5.803-6.199,12.595-6.199,18.464v8.169"/>
		<path fill="none" stroke="#2D346A" stroke-width="1.5" stroke-linecap="round" stroke-miterlimit="10" d="M29.829,20.443
			c-2.704,2.901-4.253,6.05-5.127,9.207"/>
		<path fill="none" stroke="#2D346A" stroke-width="1.5" stroke-miterlimit="10" d="M39.254,20.378
			c5.407,5.803,6.199,12.595,6.199,18.464v8.169"/>
		<path fill="none" stroke="#2D346A" stroke-width="1.5" stroke-linecap="round" stroke-miterlimit="10" d="M41.026,18.68
			c0-0.938-0.76-1.698-1.698-1.698H24.672c-0.938,0-1.698,0.76-1.698,1.698l0,0c0,0.938,0.76,1.698,1.698,1.698h14.655
			C40.265,20.378,41.026,19.618,41.026,18.68L41.026,18.68z"/>
		
			<line fill="none" stroke="#2D346A" stroke-width="1.5" stroke-linecap="round" stroke-miterlimit="10" x1="36.484" y1="47.011" x2="21.713" y2="47.011"/>
		<path fill="none" stroke="#2D346A" stroke-width="1.5" stroke-linecap="round" stroke-miterlimit="10" d="M34.198,20.443
			c2.704,2.901,4.253,6.05,5.127,9.207"/>
		<g>
			<path fill="none" stroke="#2D346A" stroke-width="1.5" stroke-miterlimit="10" d="M24.672,16.982
				c-1.788-4.253-6.257-5.045-5.07-5.745s3.957-0.553,5.072,1.162c1.116,1.715,4.094,1.583,4.094,0S29.89,8.838,32,8.838
				s3.231,1.978,3.231,3.561s2.978,1.715,4.094,0c1.116-1.715,3.885-1.862,5.072-1.162c1.187,0.7-3.281,1.492-5.07,5.745"/>
		</g>
	</g>
	<path fill="#2D346A" d="M35.549,37c0-1.627-0.951-2.699-2.863-3.093v-3.889c0.442,0.071,0.835,0.206,1.242,0.395
		c0.118,0.068,0.27,0.102,0.388,0.102c0.371,0,0.641-0.321,0.641-0.676c0-0.236-0.135-0.439-0.371-0.574
		c-0.509-0.278-1.15-0.506-1.9-0.596v-1.143c0-0.379-0.307-0.686-0.686-0.686s-0.686,0.307-0.686,0.686v1.173
		c-1.62,0.29-2.707,1.514-2.707,3.268c0,1.559,0.91,2.629,2.707,3.06v4.089c-0.691-0.101-1.351-0.358-1.845-0.664
		c-0.118-0.067-0.27-0.101-0.388-0.101c-0.405,0-0.659,0.304-0.659,0.692c0,0.237,0.118,0.456,0.354,0.591
		c0.626,0.381,1.495,0.721,2.538,0.81v1.132c0,0.379,0.307,0.686,0.686,0.686s0.686-0.307,0.686-0.686v-1.191
		C34.479,40.079,35.549,38.802,35.549,37z M29.992,31.849c0-0.912,0.504-1.571,1.322-1.804v3.562
		C30.33,33.276,29.992,32.688,29.992,31.849z M32.686,39.058v-3.736c1.068,0.308,1.478,0.907,1.478,1.763
		C34.164,38.136,33.604,38.816,32.686,39.058z"/>
	<path fill="#E4C95C" d="M1.6,45.125c-0.002-0.201-0.071-1.202-1.2-1.202c-0.002,0-0.002,0-0.003,0c-0.002,0-0.003,0-0.005,0h0
		c-0.001,0-0.001,0-0.001,0H0.39c0,0-0.001,0-0.002,0C0.173,43.917,0,43.74,0,43.523c0-0.22,0.178-0.399,0.398-0.4
		c0.201-0.002,1.202-0.071,1.202-1.2c0-0.221,0.179-0.4,0.4-0.4s0.4,0.179,0.4,0.4c0,1.129,1.001,1.198,1.202,1.2
		C3.822,43.124,4,43.303,4,43.523c0,0.221-0.179,0.4-0.4,0.4c-1.129,0-1.198,1.002-1.2,1.2c0,0.002,0,0.002,0,0.002
		c0,0.003-0.001,0.006,0,0.006v0.001v0.001c0,0,0,0.001,0,0.002C2.394,45.35,2.217,45.523,2,45.523
		C1.78,45.523,1.601,45.345,1.6,45.125z"/>
	<path fill="#E4C95C" d="M62.8,34.347c-0.001-0.101-0.036-0.601-0.6-0.601h-0.001h-0.002h0h-0.001h-0.001h0
		C62.087,33.743,62,33.655,62,33.546c0-0.11,0.089-0.199,0.199-0.2c0.101-0.001,0.601-0.036,0.601-0.6c0-0.111,0.089-0.2,0.2-0.2
		s0.2,0.089,0.2,0.2c0,0.564,0.5,0.599,0.601,0.6c0.11,0.001,0.199,0.09,0.199,0.2c0,0.111-0.089,0.2-0.2,0.2
		c-0.565,0-0.599,0.501-0.6,0.6c0,0.001,0,0.001,0,0.001c0,0.001-0.001,0.003-0.001,0.003c0.001,0,0.001,0,0.001,0v0.001v0.001
		c-0.003,0.108-0.091,0.194-0.2,0.194C62.89,34.546,62.801,34.457,62.8,34.347z"/>
	<path fill="#E4C95C" d="M13.606,22.045c0.002-0.201,0.071-1.202,1.2-1.202c0.002,0,0.002,0,0.003,0c0.002,0,0.003,0,0.005,0h0
		c0.001,0,0.001,0,0.001,0s0.001,0,0.001,0c0,0,0.001,0,0.002,0c0.215-0.006,0.388-0.183,0.388-0.4c0-0.22-0.178-0.399-0.398-0.4
		c-0.201-0.002-1.202-0.071-1.202-1.2c0-0.221-0.179-0.4-0.4-0.4s-0.4,0.179-0.4,0.4c0,1.129-1.001,1.198-1.202,1.2
		c-0.22,0.001-0.398,0.18-0.398,0.4c0,0.221,0.179,0.4,0.4,0.4c1.129,0,1.198,1.002,1.2,1.2c0,0.002,0,0.002,0,0.002
		c0,0.003,0.001,0.006,0,0.006v0.001c0,0,0,0.001,0,0.001c0,0.001,0,0.001,0,0.002c0.006,0.215,0.183,0.388,0.4,0.388
		C13.426,22.443,13.605,22.265,13.606,22.045z"/>
	<path fill="#E4C95C" d="M58.899,13.701c-0.002-0.201-0.071-1.202-1.2-1.202c-0.002,0-0.002,0-0.003,0c-0.002,0-0.003,0-0.005,0h0
		c-0.001,0-0.001,0-0.001,0s-0.001,0-0.001,0c0,0-0.001,0-0.002,0c-0.215-0.006-0.388-0.183-0.388-0.4c0-0.22,0.178-0.399,0.398-0.4
		c0.201-0.002,1.202-0.071,1.202-1.2c0-0.221,0.179-0.4,0.4-0.4c0.221,0,0.4,0.179,0.4,0.4c0,1.129,1.001,1.198,1.202,1.2
		c0.22,0.001,0.398,0.18,0.398,0.4c0,0.221-0.179,0.4-0.4,0.4c-1.129,0-1.198,1.002-1.2,1.2c0,0.002,0,0.002,0,0.002
		c0,0.003-0.001,0.006,0,0.006v0.001c0,0,0,0.001,0,0.001v0.002c-0.006,0.215-0.183,0.388-0.4,0.388
		C59.078,14.099,58.9,13.921,58.899,13.701z"/>
	<path fill="#E4C95C" d="M48.818,23.134c0.001-0.101,0.036-0.601,0.6-0.601h0.001h0.002h0c0,0,0.001,0,0.001,0h0.001h0
		c0.108-0.003,0.195-0.091,0.195-0.2c0-0.11-0.089-0.199-0.199-0.2c-0.101-0.001-0.601-0.036-0.601-0.6c0-0.111-0.089-0.2-0.2-0.2
		c-0.111,0-0.2,0.089-0.2,0.2c0,0.564-0.5,0.599-0.601,0.6c-0.11,0.001-0.199,0.09-0.199,0.2c0,0.111,0.089,0.2,0.2,0.2
		c0.565,0,0.599,0.501,0.6,0.6c0,0.001,0,0.001,0,0.001c0,0.001,0.001,0.003,0.001,0.003c-0.001,0-0.001,0-0.001,0v0.001v0.001
		c0.003,0.108,0.091,0.194,0.2,0.194C48.728,23.333,48.817,23.244,48.818,23.134z"/>
	<path fill="#E4C95C" d="M13.406,35.085c0.001-0.101,0.036-0.601,0.6-0.601h0.001h0.002h0c0,0,0.001,0,0.001,0h0.001h0
		c0.108-0.003,0.195-0.091,0.195-0.2c0-0.11-0.089-0.199-0.199-0.2c-0.101-0.001-0.601-0.036-0.601-0.6c0-0.111-0.089-0.2-0.2-0.2
		s-0.2,0.089-0.2,0.2c0,0.564-0.5,0.599-0.601,0.6c-0.11,0.001-0.199,0.09-0.199,0.2c0,0.111,0.089,0.2,0.2,0.2
		c0.565,0,0.599,0.501,0.6,0.6c0,0.001,0,0.001,0,0.001c0,0.001,0.001,0.003,0.001,0.003c-0.001,0-0.001,0-0.001,0v0.001v0.001
		c0.003,0.108,0.091,0.194,0.2,0.194C13.316,35.284,13.405,35.195,13.406,35.085z"/>
	<path fill="#E4C95C" d="M3.8,13.301C3.799,13.2,3.764,12.7,3.2,12.7H3.199H3.196h0H3.196H3.195h0C3.087,12.697,3,12.609,3,12.5
		c0-0.11,0.089-0.199,0.199-0.2C3.3,12.299,3.8,12.264,3.8,11.7c0-0.111,0.089-0.2,0.2-0.2c0.111,0,0.2,0.089,0.2,0.2
		c0,0.564,0.5,0.599,0.601,0.6C4.911,12.301,5,12.39,5,12.5c0,0.111-0.089,0.2-0.2,0.2c-0.565,0-0.599,0.501-0.6,0.6
		c0,0.001,0,0.001,0,0.001c0,0.001-0.001,0.003-0.001,0.003c0.001,0,0.001,0,0.001,0v0.001v0.001C4.197,13.413,4.109,13.5,4,13.5
		C3.89,13.5,3.801,13.411,3.8,13.301z"/>
</g>
</svg>
