<?xml version="1.0" encoding="utf-8"?>
<!-- Generator: Adobe Illustrator 17.0.0, SVG Export Plug-In . SVG Version: 6.00 Build 0)  -->
<!DOCTYPE svg PUBLIC "-//W3C//DTD SVG 1.1//EN" "http://www.w3.org/Graphics/SVG/1.1/DTD/svg11.dtd">
<svg version="1.1" xmlns="http://www.w3.org/2000/svg" xmlns:xlink="http://www.w3.org/1999/xlink" x="0px" y="0px" width="64px"
	 height="64px" viewBox="0 0 64 64" enable-background="new 0 0 64 64" xml:space="preserve">
<g id="Layer_4">
</g>
<g id="Layer_3">
</g>
<g id="Layer_2">
</g>
<g id="Layer_1">
</g>
<g id="Layer_5">
	<g>
		<g>
			<path fill="#FBE2CB" d="M59.5,31.191c0-15.188-12.312-27.5-27.5-27.5S4.5,16.003,4.5,31.191c0,9.396,4.715,17.687,11.905,22.647
				h31.191C54.785,48.878,59.5,40.587,59.5,31.191z"/>
		</g>
		
			<line fill="none" stroke="#2D346A" stroke-width="1.5" stroke-linecap="round" stroke-miterlimit="10" x1="9.206" y1="53.838" x2="54.794" y2="53.838"/>
		
			<line fill="none" stroke="#C3CCE9" stroke-width="1.5" stroke-linecap="round" stroke-linejoin="round" stroke-miterlimit="10" x1="15.375" y1="57.074" x2="48.625" y2="57.074"/>
		
			<line fill="none" stroke="#C3CCE9" stroke-width="1.5" stroke-linecap="round" stroke-linejoin="round" stroke-miterlimit="10" x1="24.641" y1="60.309" x2="35.314" y2="60.309"/>
		
			<line fill="none" stroke="#C3CCE9" stroke-width="1.5" stroke-linecap="round" stroke-linejoin="round" stroke-miterlimit="10" x1="38.166" y1="60.309" x2="39.415" y2="60.309"/>
	</g>
	<g>
		<g>
			
				<polyline fill="#C3CCE9" stroke="#2D346A" stroke-width="1.5" stroke-linecap="round" stroke-linejoin="round" stroke-miterlimit="10" points="
				48.125,11.179 51.078,11.179 51.078,53.798 27.381,53.798 27.381,11.179 45.125,11.179 			"/>
			<g>
				
					<path fill="none" stroke="#E8F3FF" stroke-width="1.5" stroke-linecap="round" stroke-linejoin="round" stroke-miterlimit="10" d="
					M31.896,32.649c0-4.05,3.283-7.333,7.333-7.333s7.333,3.283,7.333,7.333c0,3.779-2.859,6.891-6.532,7.29"/>
				
					<polyline fill="none" stroke="#E8F3FF" stroke-width="1.5" stroke-linecap="round" stroke-linejoin="round" stroke-miterlimit="10" points="
					31.896,23.781 31.896,19.738 35.795,15.84 42.665,15.84 46.563,19.738 46.563,23.781 				"/>
				
					<polyline fill="none" stroke="#E8F3FF" stroke-width="1.5" stroke-linecap="round" stroke-linejoin="round" stroke-miterlimit="10" points="
					46.563,41.699 46.563,45.743 42.665,49.641 35.795,49.641 31.896,45.743 31.896,41.699 				"/>
				
					<line fill="none" stroke="#E8F3FF" stroke-width="1.5" stroke-linecap="round" stroke-linejoin="round" stroke-miterlimit="10" x1="39.23" y1="19.507" x2="39.23" y2="21.664"/>
			</g>
		</g>
		<g>
			
				<path fill="#E4C95C" stroke="#2D346A" stroke-width="1.5" stroke-linecap="round" stroke-linejoin="round" stroke-miterlimit="10" d="
				M23.673,49.927c1.08,0,1.955-0.875,1.955-1.955s-0.875-1.955-1.955-1.955h-9.072c-1.08,0-1.955,0.875-1.955,1.955
				s0.875,1.955,1.955,1.955c-1.08,0-1.955,0.875-1.955,1.955c0,1.08,0.875,1.955,1.955,1.955h9.072c1.08,0,1.955-0.875,1.955-1.955
				C25.628,50.803,24.753,49.927,23.673,49.927z"/>
			
				<path fill="#E4C95C" stroke="#2D346A" stroke-width="1.5" stroke-linecap="round" stroke-linejoin="round" stroke-miterlimit="10" d="
				M12.646,44.061c0-1.08,0.875-1.955,1.955-1.955h9.072c1.08,0,1.955,0.875,1.955,1.955l0,0c0,1.08-0.875,1.955-1.955,1.955h-9.072
				C13.521,46.017,12.646,45.141,12.646,44.061L12.646,44.061z"/>
			
				<path fill="#E4C95C" stroke="#2D346A" stroke-width="1.5" stroke-linecap="round" stroke-linejoin="round" stroke-miterlimit="10" d="
				M12.646,40.15c0-1.08,0.875-1.955,1.955-1.955h9.072c1.08,0,1.955,0.875,1.955,1.955l0,0c0,1.08-0.875,1.955-1.955,1.955h-9.072
				C13.521,42.106,12.646,41.23,12.646,40.15L12.646,40.15z"/>
			
				<path fill="#E4C95C" stroke="#2D346A" stroke-width="1.5" stroke-linecap="round" stroke-linejoin="round" stroke-miterlimit="10" d="
				M25.628,32.329c0-1.08-0.875-1.955-1.955-1.955h-9.072c-1.08,0-1.955,0.875-1.955,1.955c0,1.08,0.875,1.955,1.955,1.955h-1.388
				c-1.08,0-1.955,0.875-1.955,1.955s0.875,1.955,1.955,1.955h9.072c1.08,0,1.955-0.875,1.955-1.955s-0.875-1.955-1.955-1.955h1.388
				C24.753,34.284,25.628,33.409,25.628,32.329z"/>
			
				<path fill="#E4C95C" stroke="#2D346A" stroke-width="1.5" stroke-linecap="round" stroke-linejoin="round" stroke-miterlimit="10" d="
				M12.646,28.418c0-1.08,0.875-1.955,1.955-1.955h9.072c1.08,0,1.955,0.875,1.955,1.955l0,0c0,1.08-0.875,1.955-1.955,1.955h-9.072
				C13.521,30.374,12.646,29.498,12.646,28.418L12.646,28.418z"/>
			
				<path fill="#E4C95C" stroke="#2D346A" stroke-width="1.5" stroke-linecap="round" stroke-linejoin="round" stroke-miterlimit="10" d="
				M10.064,24.507c0-1.08,0.875-1.955,1.955-1.955h9.072c1.08,0,1.955,0.875,1.955,1.955l0,0c0,1.08-0.875,1.955-1.955,1.955h-9.072
				C10.94,26.463,10.064,25.587,10.064,24.507L10.064,24.507z"/>
			
				<line fill="none" stroke="#2D346A" stroke-width="1.5" stroke-linecap="round" stroke-linejoin="round" stroke-miterlimit="10" x1="22.285" y1="34.284" x2="17.601" y2="34.284"/>
			
				<line fill="none" stroke="#2D346A" stroke-width="1.5" stroke-linecap="round" stroke-linejoin="round" stroke-miterlimit="10" x1="23.673" y1="49.927" x2="22.601" y2="49.927"/>
		</g>
		<g>
			
				<circle fill="#E4C95C" stroke="#2D346A" stroke-width="1.5" stroke-linecap="round" stroke-linejoin="round" stroke-miterlimit="10" cx="28.11" cy="47.175" r="6.663"/>
			<circle fill="#FFFFFF" cx="28.11" cy="47.175" r="4"/>
		</g>
		<g>
			<g>
				<path fill="#E8F3FF" d="M36.509,45.178l4.698-4.698l-7.675-7.675l-5.954-5.954l-4.698,4.698c-1.844,1.844-1.844,4.835,0,6.679
					l13.63,13.63C34.665,50.013,34.665,47.022,36.509,45.178z"/>
				<path fill="#C3CCE9" d="M46.581,19.755L33.532,32.804l7.675,7.675l-4.698,4.698c-1.844,1.844-1.844,4.835,0,6.679
					c1.844,1.844,4.835,1.844,6.679,0L60.936,34.11L46.581,19.755z"/>
				<path fill="none" stroke="#E8F3FF" stroke-width="1.5" stroke-miterlimit="10" d="M35.966,35.266
					c2.602-2.602,6.822-2.602,9.424,0s2.602,6.822,0,9.424c-2.428,2.428-6.265,2.591-8.881,0.487"/>
				
					<polyline fill="none" stroke="#E8F3FF" stroke-width="1.5" stroke-linecap="round" stroke-linejoin="round" stroke-miterlimit="10" points="
					53.687,31.385 53.687,36.394 51.089,38.992 				"/>
				
					<polyline fill="none" stroke="#E8F3FF" stroke-width="1.5" stroke-linecap="round" stroke-linejoin="round" stroke-miterlimit="10" points="
					41.665,29.568 44.263,26.97 49.273,26.97 51.672,29.369 				"/>
				<g>
					
						<path fill="none" stroke="#C3CCE9" stroke-width="1.5" stroke-linecap="round" stroke-linejoin="round" stroke-miterlimit="10" d="
						M23.351,38.704c-0.104-1.329,0.352-2.694,1.369-3.711l0.802-0.802h5.01l2.965,2.965v5.01l-0.802,0.802
						c-1.017,1.017-1.473,2.382-1.369,3.711"/>
				</g>
			</g>
			
				<path fill="none" stroke="#2D346A" stroke-width="1.5" stroke-linecap="round" stroke-linejoin="round" stroke-miterlimit="10" d="
				M37.779,37.051L27.578,26.85l-4.698,4.698c-1.844,1.844-1.844,4.835,0,6.679l13.63,13.63"/>
			
				<path fill="none" stroke="#2D346A" stroke-width="1.5" stroke-linecap="round" stroke-linejoin="round" stroke-miterlimit="10" d="
				M33.532,32.804l13.049-13.049L60.936,34.11L43.188,51.857c-1.844,1.844-4.835,1.844-6.679,0c-1.844-1.844-1.844-4.835,0-6.679
				l4.698-4.698l-1.604-1.604"/>
			
				<line fill="none" stroke="#E8F3FF" stroke-width="1.5" stroke-linecap="round" stroke-linejoin="round" stroke-miterlimit="10" x1="48.945" y1="31.746" x2="47.823" y2="32.868"/>
		</g>
	</g>
	
		<line fill="none" stroke="#2D346A" stroke-width="1.5" stroke-linecap="round" stroke-linejoin="round" stroke-miterlimit="10" x1="14.601" y1="49.927" x2="19.601" y2="49.927"/>
	<path fill="#E4C95C" d="M61.6,44.272c-0.002-0.201-0.071-1.202-1.2-1.202c-0.002,0-0.002,0-0.003,0c-0.002,0-0.003,0-0.005,0h0
		c-0.001,0-0.001,0-0.001,0H60.39c0,0-0.001,0-0.002,0C60.173,43.064,60,42.887,60,42.67c0-0.22,0.178-0.399,0.398-0.4
		c0.201-0.002,1.202-0.071,1.202-1.2c0-0.221,0.179-0.4,0.4-0.4c0.221,0,0.4,0.179,0.4,0.4c0,1.129,1.001,1.198,1.202,1.2
		c0.22,0.001,0.398,0.18,0.398,0.4c0,0.221-0.179,0.4-0.4,0.4c-1.129,0-1.198,1.002-1.2,1.2c0,0.002,0,0.002,0,0.002
		c0,0.003-0.001,0.006,0,0.006v0.001v0.001c0,0,0,0.001,0,0.002c-0.006,0.215-0.183,0.388-0.4,0.388
		C61.78,44.67,61.601,44.492,61.6,44.272z"/>
	<path fill="#E4C95C" d="M59.3,17.801C59.299,17.7,59.264,17.2,58.7,17.2h-0.001h-0.002h0h-0.001h-0.001h0
		C58.587,17.197,58.5,17.109,58.5,17c0-0.11,0.089-0.199,0.199-0.2c0.101-0.001,0.601-0.036,0.601-0.6c0-0.111,0.089-0.2,0.2-0.2
		s0.2,0.089,0.2,0.2c0,0.564,0.5,0.599,0.601,0.6c0.11,0.001,0.199,0.09,0.199,0.2c0,0.111-0.089,0.2-0.2,0.2
		c-0.565,0-0.599,0.501-0.6,0.6v0.001c0,0.001-0.001,0.003-0.001,0.003c0.001,0,0.001,0,0.001,0v0.001v0.001
		C59.697,17.913,59.609,18,59.5,18C59.39,18,59.301,17.911,59.3,17.801z"/>
	<path fill="#E4C95C" d="M4.3,15.919c-0.001-0.101-0.036-0.601-0.6-0.601H3.699H3.696h0H3.696H3.695h0
		c-0.108-0.003-0.195-0.091-0.195-0.2c0-0.11,0.089-0.199,0.199-0.2C3.8,14.916,4.3,14.882,4.3,14.318c0-0.111,0.089-0.2,0.2-0.2
		c0.111,0,0.2,0.089,0.2,0.2c0,0.564,0.5,0.599,0.601,0.6c0.11,0.001,0.199,0.09,0.199,0.2c0,0.111-0.089,0.2-0.2,0.2
		c-0.565,0-0.599,0.501-0.6,0.6c0,0.001,0,0.001,0,0.001c0,0.001-0.001,0.003-0.001,0.003c0.001,0,0.001,0,0.001,0v0.001v0.001
		c-0.003,0.108-0.091,0.194-0.2,0.194C4.39,16.118,4.301,16.029,4.3,15.919z"/>
	<path fill="#E4C95C" d="M1.6,48.626c-0.002-0.201-0.071-1.202-1.2-1.202c-0.002,0-0.002,0-0.003,0c-0.002,0-0.003,0-0.005,0h0
		c-0.001,0-0.001,0-0.001,0H0.39c0,0-0.001,0-0.002,0C0.173,47.418,0,47.241,0,47.024c0-0.22,0.178-0.399,0.398-0.4
		c0.201-0.002,1.202-0.071,1.202-1.2c0-0.221,0.179-0.4,0.4-0.4s0.4,0.179,0.4,0.4c0,1.129,1.001,1.198,1.202,1.2
		C3.822,46.625,4,46.804,4,47.024c0,0.221-0.179,0.4-0.4,0.4c-1.129,0-1.198,1.002-1.2,1.2c0,0.002,0,0.002,0,0.002
		c0,0.003-0.001,0.006,0,0.006v0.001v0.001c0,0,0,0.001,0,0.002c-0.006,0.215-0.183,0.388-0.4,0.388
		C1.78,49.024,1.601,48.846,1.6,48.626z"/>
	<path fill="#E4C95C" d="M18.543,16.72c-0.002-0.201-0.071-1.202-1.2-1.202c-0.002,0-0.002,0-0.003,0c-0.002,0-0.003,0-0.005,0h0
		c-0.001,0-0.001,0-0.001,0h-0.001c0,0-0.001,0-0.002,0c-0.215-0.006-0.388-0.183-0.388-0.4c0-0.22,0.178-0.399,0.398-0.4
		c0.201-0.002,1.202-0.071,1.202-1.2c0-0.221,0.179-0.4,0.4-0.4c0.221,0,0.4,0.179,0.4,0.4c0,1.129,1.001,1.198,1.202,1.2
		c0.22,0.001,0.398,0.18,0.398,0.4c0,0.221-0.179,0.4-0.4,0.4c-1.129,0-1.198,1.002-1.2,1.2c0,0.002,0,0.002,0,0.002
		c0,0.003-0.001,0.006,0,0.006v0.001v0.001c0,0,0,0.001,0,0.002c-0.006,0.215-0.183,0.388-0.4,0.388
		C18.723,17.118,18.544,16.94,18.543,16.72z"/>
</g>
</svg>
