<?xml version="1.0" encoding="utf-8"?>
<!-- Generator: Adobe Illustrator 17.0.0, SVG Export Plug-In . SVG Version: 6.00 Build 0)  -->
<!DOCTYPE svg PUBLIC "-//W3C//DTD SVG 1.1//EN" "http://www.w3.org/Graphics/SVG/1.1/DTD/svg11.dtd">
<svg version="1.1" xmlns="http://www.w3.org/2000/svg" xmlns:xlink="http://www.w3.org/1999/xlink" x="0px" y="0px" width="64px"
	 height="64px" viewBox="0 0 64 64" enable-background="new 0 0 64 64" xml:space="preserve">
<g id="Layer_4">
</g>
<g id="Layer_3">
</g>
<g id="Layer_2">
</g>
<g id="Layer_1">
</g>
<g id="Layer_5">
	<g>
		<g>
			<path fill="#FBE2CB" d="M59.5,31.191c0-15.188-12.312-27.5-27.5-27.5S4.5,16.003,4.5,31.191c0,9.396,4.715,17.687,11.905,22.647
				h31.191C54.785,48.878,59.5,40.587,59.5,31.191z"/>
		</g>
		
			<line fill="none" stroke="#2D346A" stroke-width="1.5" stroke-linecap="round" stroke-miterlimit="10" x1="14.206" y1="53.838" x2="49.794" y2="53.838"/>
		
			<line fill="none" stroke="#C3CCE9" stroke-width="1.5" stroke-linecap="round" stroke-linejoin="round" stroke-miterlimit="10" x1="20.375" y1="57.074" x2="43.625" y2="57.074"/>
		
			<line fill="none" stroke="#C3CCE9" stroke-width="1.5" stroke-linecap="round" stroke-linejoin="round" stroke-miterlimit="10" x1="27.641" y1="60.309" x2="32.314" y2="60.309"/>
		
			<line fill="none" stroke="#C3CCE9" stroke-width="1.5" stroke-linecap="round" stroke-linejoin="round" stroke-miterlimit="10" x1="35.166" y1="60.309" x2="36.415" y2="60.309"/>
	</g>
	<g>
		<g>
			<path fill="#C3CCE9" d="M32,12.463c-4.213-0.002-8.449,1.416-11.928,4.338c-7.842,6.587-8.859,18.285-2.271,26.127L32,31V12.463z
				"/>
			<path fill="#E4C95C" d="M17.801,42.928c6.588,7.842,18.285,8.859,26.127,2.271c0.837-0.703,1.579-1.474,2.26-2.283L32,31
				L17.801,42.928z"/>
			<path fill="#E8F3FF" d="M46.199,19.072c-3.666-4.364-8.914-6.607-14.199-6.609V31l14.187,11.916
				C51.883,36.149,52.084,26.077,46.199,19.072z"/>
		</g>
		
			<path fill="none" stroke="#2D346A" stroke-width="1.5" stroke-linecap="round" stroke-linejoin="round" stroke-miterlimit="10" d="
			M48.334,22.212c4.087,7.577,2.445,17.232-4.406,22.987c-7.842,6.587-19.539,5.571-26.127-2.271s-5.571-19.539,2.271-26.127
			s19.539-5.571,26.127,2.271"/>
		<g>
			
				<path fill="none" stroke="#2D346A" stroke-width="1.5" stroke-linecap="round" stroke-linejoin="round" stroke-miterlimit="10" d="
				M46.199,19.072"/>
			
				<line fill="none" stroke="#2D346A" stroke-width="1.5" stroke-linejoin="round" stroke-miterlimit="10" x1="32" y1="31" x2="32" y2="12.459"/>
			
				<line fill="none" stroke="#2D346A" stroke-width="1.5" stroke-linejoin="round" stroke-miterlimit="10" x1="32" y1="31" x2="17.801" y2="42.928"/>
			
				<line fill="none" stroke="#2D346A" stroke-width="1.5" stroke-linejoin="round" stroke-miterlimit="10" x1="32" y1="31" x2="46.201" y2="42.928"/>
		</g>
		
			<line fill="none" stroke="#2D346A" stroke-width="1.5" stroke-linecap="round" stroke-linejoin="round" stroke-miterlimit="10" x1="17.807" y1="19.072" x2="31.994" y2="30.988"/>
		
			<line fill="none" stroke="#2D346A" stroke-width="1.5" stroke-linecap="round" stroke-linejoin="round" stroke-miterlimit="10" x1="21.645" y1="15.616" x2="31.994" y2="24.309"/>
		
			<line fill="none" stroke="#2D346A" stroke-width="1.5" stroke-linecap="round" stroke-linejoin="round" stroke-miterlimit="10" x1="26.739" y1="13.215" x2="32" y2="17.634"/>
		
			<line fill="none" stroke="#2D346A" stroke-width="1.5" stroke-linecap="round" stroke-linejoin="round" stroke-miterlimit="10" x1="13.506" y1="29.66" x2="23.552" y2="38.097"/>
		
			<line fill="none" stroke="#2D346A" stroke-width="1.5" stroke-linecap="round" stroke-linejoin="round" stroke-miterlimit="10" x1="14.807" y1="24.072" x2="27.528" y2="34.757"/>
	</g>
	<path fill="#E4C95C" d="M61.6,14.303c-0.002-0.201-0.071-1.202-1.2-1.202c-0.002,0-0.002,0-0.003,0c-0.002,0-0.003,0-0.005,0h0
		c-0.001,0-0.001,0-0.001,0H60.39c0,0-0.001,0-0.002,0C60.173,13.095,60,12.919,60,12.701c0-0.22,0.178-0.399,0.398-0.4
		c0.201-0.002,1.202-0.071,1.202-1.2c0-0.221,0.179-0.4,0.4-0.4c0.221,0,0.4,0.179,0.4,0.4c0,1.129,1.001,1.198,1.202,1.2
		c0.22,0.001,0.398,0.18,0.398,0.4c0,0.221-0.179,0.4-0.4,0.4c-1.129,0-1.198,1.002-1.2,1.2c0,0.002,0,0.002,0,0.002
		c0,0.003-0.001,0.006,0,0.006v0.001v0.001c0,0,0,0.001,0,0.002c-0.006,0.215-0.183,0.388-0.4,0.388
		C61.78,14.701,61.601,14.523,61.6,14.303z"/>
	<path fill="#E4C95C" d="M59.3,49.851c-0.001-0.101-0.036-0.601-0.6-0.601h-0.001h-0.002h0h-0.001h-0.001h0
		c-0.108-0.003-0.195-0.091-0.195-0.2c0-0.11,0.089-0.199,0.199-0.2c0.101-0.001,0.601-0.036,0.601-0.6c0-0.111,0.089-0.2,0.2-0.2
		s0.2,0.089,0.2,0.2c0,0.564,0.5,0.599,0.601,0.6c0.11,0.001,0.199,0.09,0.199,0.2c0,0.111-0.089,0.2-0.2,0.2
		c-0.565,0-0.599,0.501-0.6,0.6v0.001c0,0.001-0.001,0.003-0.001,0.003c0.001,0,0.001,0,0.001,0v0.001v0.001
		c-0.003,0.108-0.091,0.194-0.2,0.194C59.39,50.05,59.301,49.961,59.3,49.851z"/>
	<path fill="#E4C95C" d="M6.3,14.224c-0.001-0.101-0.036-0.601-0.6-0.601H5.699H5.696h0H5.696H5.695h0
		C5.587,13.62,5.5,13.531,5.5,13.423c0-0.11,0.089-0.199,0.199-0.2C5.8,13.222,6.3,13.187,6.3,12.623c0-0.111,0.089-0.2,0.2-0.2
		c0.111,0,0.2,0.089,0.2,0.2c0,0.564,0.5,0.599,0.601,0.6c0.11,0.001,0.199,0.09,0.199,0.2c0,0.111-0.089,0.2-0.2,0.2
		c-0.565,0-0.599,0.501-0.6,0.6c0,0.001,0,0.001,0,0.001c0,0.001-0.001,0.003-0.001,0.003c0.001,0,0.001,0,0.001,0v0.001v0.001
		c-0.003,0.108-0.091,0.194-0.2,0.194C6.39,14.423,6.301,14.334,6.3,14.224z"/>
	<path fill="#E4C95C" d="M1.6,45.626c-0.002-0.201-0.071-1.202-1.2-1.202c-0.002,0-0.002,0-0.003,0c-0.002,0-0.003,0-0.005,0h0
		c-0.001,0-0.001,0-0.001,0H0.39c0,0-0.001,0-0.002,0C0.173,44.418,0,44.241,0,44.024c0-0.22,0.178-0.399,0.398-0.4
		c0.201-0.002,1.202-0.071,1.202-1.2c0-0.221,0.179-0.4,0.4-0.4s0.4,0.179,0.4,0.4c0,1.129,1.001,1.198,1.202,1.2
		C3.822,43.625,4,43.804,4,44.024c0,0.221-0.179,0.4-0.4,0.4c-1.129,0-1.198,1.002-1.2,1.2c0,0.002,0,0.002,0,0.002
		c0,0.003-0.001,0.006,0,0.006v0.001v0.001c0,0,0,0.001,0,0.002c-0.006,0.215-0.183,0.388-0.4,0.388
		C1.78,46.024,1.601,45.846,1.6,45.626z"/>
	<path fill="#E4C95C" d="M54.7,36.359c-0.002-0.201-0.071-1.202-1.2-1.202c-0.002,0-0.002,0-0.003,0c-0.002,0-0.003,0-0.005,0h0
		c-0.001,0-0.001,0-0.001,0H53.49c0,0-0.001,0-0.002,0c-0.215-0.006-0.388-0.183-0.388-0.4c0-0.22,0.178-0.399,0.398-0.4
		c0.201-0.002,1.202-0.071,1.202-1.2c0-0.221,0.179-0.4,0.4-0.4s0.4,0.179,0.4,0.4c0,1.129,1.001,1.198,1.202,1.2
		c0.22,0.001,0.398,0.18,0.398,0.4c0,0.221-0.179,0.4-0.4,0.4c-1.129,0-1.198,1.002-1.2,1.2c0,0.002,0,0.002,0,0.002
		c0,0.003-0.001,0.006,0,0.006v0.001v0.001c0,0,0,0.001,0,0.002c-0.006,0.215-0.183,0.388-0.4,0.388
		C54.88,36.757,54.701,36.579,54.7,36.359z"/>
</g>
</svg>
