<?xml version="1.0" encoding="utf-8"?>
<!-- Generator: Adobe Illustrator 17.0.0, SVG Export Plug-In . SVG Version: 6.00 Build 0)  -->
<!DOCTYPE svg PUBLIC "-//W3C//DTD SVG 1.1//EN" "http://www.w3.org/Graphics/SVG/1.1/DTD/svg11.dtd">
<svg version="1.1" xmlns="http://www.w3.org/2000/svg" xmlns:xlink="http://www.w3.org/1999/xlink" x="0px" y="0px" width="64px"
	 height="64px" viewBox="0 0 64 64" enable-background="new 0 0 64 64" xml:space="preserve">
<g id="Layer_4">
</g>
<g id="Layer_3">
</g>
<g id="Layer_2">
</g>
<g id="Layer_1">
</g>
<g id="Layer_5">
	<g>
		<g>
			<path fill="#FBE2CB" d="M59.5,31.191c0-15.188-12.312-27.5-27.5-27.5S4.5,16.003,4.5,31.191c0,9.396,4.715,17.687,11.905,22.647
				h31.191C54.785,48.878,59.5,40.587,59.5,31.191z"/>
		</g>
		
			<line fill="none" stroke="#2D346A" stroke-width="1.5" stroke-linecap="round" stroke-miterlimit="10" x1="11.5" y1="53.838" x2="52.5" y2="53.838"/>
		
			<line fill="none" stroke="#C3CCE9" stroke-width="1.5" stroke-linecap="round" stroke-linejoin="round" stroke-miterlimit="10" x1="20.375" y1="57.074" x2="43.625" y2="57.074"/>
		
			<line fill="none" stroke="#C3CCE9" stroke-width="1.5" stroke-linecap="round" stroke-linejoin="round" stroke-miterlimit="10" x1="27.641" y1="60.309" x2="32.314" y2="60.309"/>
		
			<line fill="none" stroke="#C3CCE9" stroke-width="1.5" stroke-linecap="round" stroke-linejoin="round" stroke-miterlimit="10" x1="35.166" y1="60.309" x2="36.415" y2="60.309"/>
	</g>
	<g>
		<g>
			
				<path fill="#C3CCE9" stroke="#2D346A" stroke-width="1.5" stroke-linecap="round" stroke-linejoin="round" stroke-miterlimit="10" d="
				M31.885,44.061c0-1.08,0.875-1.955,1.955-1.955h9.072c1.08,0,1.955,0.875,1.955,1.955l0,0c0,1.08-0.875,1.955-1.955,1.955H33.84
				C32.76,46.017,31.885,45.141,31.885,44.061L31.885,44.061z"/>
			
				<path fill="#C3CCE9" stroke="#2D346A" stroke-width="1.5" stroke-linecap="round" stroke-linejoin="round" stroke-miterlimit="10" d="
				M30.691,40.15c0-1.08,0.875-1.955,1.955-1.955h9.072c1.08,0,1.955,0.875,1.955,1.955l0,0c0,1.08-0.875,1.955-1.955,1.955h-9.072
				C31.567,42.106,30.691,41.23,30.691,40.15L30.691,40.15z"/>
			
				<path fill="#C3CCE9" stroke="#2D346A" stroke-width="1.5" stroke-linecap="round" stroke-linejoin="round" stroke-miterlimit="10" d="
				M31.885,36.24c0-1.08,0.875-1.955,1.955-1.955h9.072c1.08,0,1.955,0.875,1.955,1.955l0,0c0,1.08-0.875,1.955-1.955,1.955H33.84
				C32.76,38.195,31.885,37.32,31.885,36.24L31.885,36.24z"/>
			
				<path fill="#C3CCE9" stroke="#2D346A" stroke-width="1.5" stroke-linecap="round" stroke-linejoin="round" stroke-miterlimit="10" d="
				M41.718,30.374h-1.194c1.08,0,1.955-0.875,1.955-1.955c0-1.08-0.875-1.955-1.955-1.955h-9.072c-1.08,0-1.955,0.875-1.955,1.955
				c0,1.08,0.875,1.955,1.955,1.955h1.194c-1.08,0-1.955,0.875-1.955,1.955c0,1.08,0.875,1.955,1.955,1.955h9.072
				c1.08,0,1.955-0.875,1.955-1.955C43.674,31.249,42.798,30.374,41.718,30.374z"/>
			
				<path fill="#C3CCE9" stroke="#2D346A" stroke-width="1.5" stroke-linecap="round" stroke-linejoin="round" stroke-miterlimit="10" d="
				M28.303,24.507c0-1.08,0.875-1.955,1.955-1.955h9.072c1.08,0,1.955,0.875,1.955,1.955l0,0c0,1.08-0.875,1.955-1.955,1.955h-9.072
				C29.179,26.463,28.303,25.587,28.303,24.507L28.303,24.507z"/>
			
				<path fill="#C3CCE9" stroke="#2D346A" stroke-width="1.5" stroke-linecap="round" stroke-linejoin="round" stroke-miterlimit="10" d="
				M29.497,20.597c0-1.08,0.875-1.955,1.955-1.955h9.072c1.08,0,1.955,0.875,1.955,1.955l0,0c0,1.08-0.875,1.955-1.955,1.955h-9.072
				C30.373,22.552,29.497,21.676,29.497,20.597L29.497,20.597z"/>
			
				<path fill="#C3CCE9" stroke="#2D346A" stroke-width="1.5" stroke-linecap="round" stroke-linejoin="round" stroke-miterlimit="10" d="
				M39.331,14.73c1.08,0,1.955,0.875,1.955,1.955l0,0c0,1.08-0.875,1.955-1.955,1.955h-9.072c-1.08,0-1.955-0.875-1.955-1.955l0,0
				c0-1.08,0.875-1.955,1.955-1.955h6.072"/>
		</g>
		
			<line fill="none" stroke="#2D346A" stroke-width="1.5" stroke-linecap="round" stroke-linejoin="round" stroke-miterlimit="10" x1="32.646" y1="30.374" x2="36.811" y2="30.374"/>
		<g>
			
				<path fill="#E4C95C" stroke="#2D346A" stroke-width="1.5" stroke-linecap="round" stroke-linejoin="round" stroke-miterlimit="10" d="
				M49.213,51.883c0-1.08-0.875-1.955-1.955-1.955h-9.072c-1.08,0-1.955,0.875-1.955,1.955l0,0c0,1.08,0.875,1.955,1.955,1.955
				h9.072C48.337,53.838,49.213,52.963,49.213,51.883L49.213,51.883z"/>
			
				<path fill="#E4C95C" stroke="#2D346A" stroke-width="1.5" stroke-linecap="round" stroke-linejoin="round" stroke-miterlimit="10" d="
				M50.406,47.972c0-1.08-0.875-1.955-1.955-1.955h-9.072c-1.08,0-1.955,0.875-1.955,1.955l0,0c0,1.08,0.875,1.955,1.955,1.955
				h9.072C49.531,49.927,50.406,49.052,50.406,47.972L50.406,47.972z"/>
			
				<path fill="#E4C95C" stroke="#2D346A" stroke-width="1.5" stroke-linecap="round" stroke-linejoin="round" stroke-miterlimit="10" d="
				M49.213,44.061c0-1.08-0.875-1.955-1.955-1.955h-9.072c-1.08,0-1.955,0.875-1.955,1.955l0,0c0,1.08,0.875,1.955,1.955,1.955
				h9.072C48.337,46.017,49.213,45.141,49.213,44.061L49.213,44.061z"/>
			
				<path fill="#E4C95C" stroke="#2D346A" stroke-width="1.5" stroke-linecap="round" stroke-linejoin="round" stroke-miterlimit="10" d="
				M51.6,36.24c0-1.08-0.875-1.955-1.955-1.955h-9.072c-1.08,0-1.955,0.875-1.955,1.955s0.875,1.955,1.955,1.955h-1.194
				c-1.08,0-1.955,0.875-1.955,1.955c0,1.08,0.875,1.955,1.955,1.955h9.072c1.08,0,1.955-0.875,1.955-1.955
				c0-1.08-0.875-1.955-1.955-1.955h1.194C50.725,38.195,51.6,37.32,51.6,36.24z"/>
			
				<path fill="#E4C95C" stroke="#2D346A" stroke-width="1.5" stroke-linecap="round" stroke-linejoin="round" stroke-miterlimit="10" d="
				M52.794,32.329c0-1.08-0.875-1.955-1.955-1.955h-9.072c-1.08,0-1.955,0.875-1.955,1.955l0,0c0,1.08,0.875,1.955,1.955,1.955
				h9.072C51.919,34.284,52.794,33.409,52.794,32.329L52.794,32.329z"/>
			
				<path fill="#E4C95C" stroke="#2D346A" stroke-width="1.5" stroke-linecap="round" stroke-linejoin="round" stroke-miterlimit="10" d="
				M52.794,24.507c0-1.08-0.875-1.955-1.955-1.955h-9.072c-1.08,0-1.955,0.875-1.955,1.955c0,1.08,0.875,1.955,1.955,1.955h-1.194
				c-1.08,0-1.955,0.875-1.955,1.955c0,1.08,0.875,1.955,1.955,1.955h9.072c1.08,0,1.955-0.875,1.955-1.955
				c0-1.08-0.875-1.955-1.955-1.955h1.194C51.919,26.463,52.794,25.587,52.794,24.507z"/>
			
				<line fill="none" stroke="#2D346A" stroke-width="1.5" stroke-linecap="round" stroke-linejoin="round" stroke-miterlimit="10" x1="41.767" y1="26.463" x2="45.868" y2="26.463"/>
			
				<line fill="none" stroke="#2D346A" stroke-width="1.5" stroke-linecap="round" stroke-linejoin="round" stroke-miterlimit="10" x1="49.645" y1="26.463" x2="48.868" y2="26.463"/>
			
				<line fill="none" stroke="#2D346A" stroke-width="1.5" stroke-linecap="round" stroke-linejoin="round" stroke-miterlimit="10" x1="48.451" y1="38.195" x2="43.573" y2="38.195"/>
		</g>
	</g>
	<g>
		<path fill="#E8F3FF" d="M23.882,23.334c-0.933-0.933-2.445-0.933-3.378,0L4.201,39.636c-0.933,0.933-0.933,2.445,0,3.378
			l9.925,9.925c0.933,0.933,2.445,0.933,3.378,0l16.303-16.303c0.933-0.933,0.933-2.445,0-3.378L23.882,23.334z"/>
		
			<line fill="none" stroke="#C3CCE9" stroke-width="1.5" stroke-linecap="round" stroke-linejoin="round" stroke-miterlimit="10" x1="22.812" y1="29.854" x2="23.134" y2="29.532"/>
		
			<line fill="none" stroke="#C3CCE9" stroke-width="1.5" stroke-linecap="round" stroke-linejoin="round" stroke-miterlimit="10" x1="15.886" y1="36.779" x2="20.895" y2="31.77"/>
		<path fill="#2D346A" d="M12.884,38.093c-0.933-0.933-2.445-0.933-3.378,0c-0.309,0.309-0.506,0.684-0.61,1.079
			c-0.394,0.104-0.769,0.301-1.079,0.61c-0.933,0.933-0.933,2.445,0,3.378c0.933,0.933,2.445,0.933,3.378,0
			c0.309-0.309,0.506-0.684,0.61-1.079c0.394-0.104,0.769-0.301,1.079-0.61C13.817,40.538,13.817,39.025,12.884,38.093z"/>
		
			<rect x="7.517" y="37.779" transform="matrix(0.7071 -0.7071 0.7071 0.7071 -22.4066 27.0372)" fill="#E4C95C" width="27.832" height="5.573"/>
		
			<path fill="none" stroke="#2D346A" stroke-width="1.5" stroke-linecap="round" stroke-linejoin="round" stroke-miterlimit="10" d="
			M18.388,25.45L4.201,39.636c-0.933,0.933-0.933,2.445,0,3.378l9.925,9.925c0.933,0.933,2.445,0.933,3.378,0l16.303-16.303
			c0.933-0.933,0.933-2.445,0-3.378l-9.925-9.925c-0.933-0.933-2.445-0.933-3.378,0"/>
		
			<line fill="none" stroke="#2D346A" stroke-width="1.5" stroke-linejoin="round" stroke-miterlimit="10" x1="13.564" y1="52.376" x2="33.244" y2="32.696"/>
		
			<line fill="none" stroke="#2D346A" stroke-width="1.5" stroke-linecap="round" stroke-linejoin="round" stroke-miterlimit="10" x1="9.623" y1="48.436" x2="27.321" y2="30.738"/>
		
			<line fill="none" stroke="#C3CCE9" stroke-width="1.5" stroke-linecap="round" stroke-linejoin="round" stroke-miterlimit="10" x1="14.198" y1="35.091" x2="17.035" y2="32.253"/>
	</g>
	<g>
		
			<circle fill="#E4C95C" stroke="#2D346A" stroke-width="1.5" stroke-linecap="round" stroke-linejoin="round" stroke-miterlimit="10" cx="32.648" cy="47.175" r="6.663"/>
		<circle fill="#FFFFFF" cx="32.648" cy="47.175" r="4"/>
	</g>
	<path fill="#E4C95C" d="M19.404,16.72c0.002-0.201,0.071-1.202,1.2-1.202c0.002,0,0.002,0,0.003,0c0.002,0,0.003,0,0.005,0h0
		c0.001,0,0.001,0,0.001,0h0.001c0,0,0.001,0,0.002,0c0.215-0.006,0.388-0.183,0.388-0.4c0-0.22-0.178-0.399-0.398-0.4
		c-0.201-0.002-1.202-0.071-1.202-1.2c0-0.221-0.179-0.4-0.4-0.4c-0.221,0-0.4,0.179-0.4,0.4c0,1.129-1.001,1.198-1.202,1.2
		c-0.22,0.001-0.398,0.18-0.398,0.4c0,0.221,0.179,0.4,0.4,0.4c1.129,0,1.198,1.002,1.2,1.2c0,0.002,0,0.002,0,0.002
		c0,0.003,0.001,0.006,0,0.006v0.001v0.001c0,0,0,0.001,0,0.002c0.006,0.215,0.183,0.388,0.4,0.388
		C19.224,17.118,19.403,16.94,19.404,16.72z"/>
	<path fill="#E4C95C" d="M58.4,10.303c0.002-0.201,0.071-1.202,1.2-1.202c0.002,0,0.002,0,0.003,0c0.002,0,0.003,0,0.005,0h0
		c0.001,0,0.001,0,0.001,0h0.001c0,0,0.001,0,0.002,0C59.827,9.095,60,8.919,60,8.701c0-0.22-0.178-0.399-0.398-0.4
		C59.401,8.299,58.4,8.23,58.4,7.101c0-0.221-0.179-0.4-0.4-0.4s-0.4,0.179-0.4,0.4c0,1.129-1.001,1.198-1.202,1.2
		C56.178,8.303,56,8.481,56,8.701c0,0.221,0.179,0.4,0.4,0.4c1.129,0,1.198,1.002,1.2,1.2c0,0.002,0,0.002,0,0.002
		c0,0.003,0.001,0.006,0,0.006v0.001v0.001c0,0,0,0.001,0,0.002c0.006,0.215,0.183,0.388,0.4,0.388
		C58.22,10.701,58.399,10.523,58.4,10.303z"/>
	<path fill="#E4C95C" d="M48.668,17.487c-0.001-0.101-0.036-0.601-0.6-0.601h-0.001h-0.002h0h-0.001h-0.001h0
		c-0.108-0.003-0.195-0.091-0.195-0.2c0-0.11,0.089-0.199,0.199-0.2c0.101-0.001,0.601-0.036,0.601-0.6c0-0.111,0.089-0.2,0.2-0.2
		s0.2,0.089,0.2,0.2c0,0.564,0.5,0.599,0.601,0.6c0.11,0.001,0.199,0.09,0.199,0.2c0,0.111-0.089,0.2-0.2,0.2
		c-0.565,0-0.599,0.501-0.6,0.6v0.001c0,0.001-0.001,0.003-0.001,0.003c0.001,0,0.001,0,0.001,0v0.001v0.001
		c-0.003,0.108-0.091,0.194-0.2,0.194C48.757,17.686,48.668,17.597,48.668,17.487z"/>
	<path fill="#E4C95C" d="M62.8,41.313c-0.001-0.101-0.036-0.601-0.6-0.601h-0.001h-0.002h0h-0.001h-0.001h0
		C62.087,40.709,62,40.621,62,40.512c0-0.11,0.089-0.199,0.199-0.2c0.101-0.001,0.601-0.036,0.601-0.6c0-0.111,0.089-0.2,0.2-0.2
		s0.2,0.089,0.2,0.2c0,0.564,0.5,0.599,0.601,0.6c0.11,0.001,0.199,0.09,0.199,0.2c0,0.111-0.089,0.2-0.2,0.2
		c-0.565,0-0.599,0.501-0.6,0.6v0.001c0,0.001-0.001,0.003-0.001,0.003c0.001,0,0.001,0,0.001,0v0.001v0.001
		c-0.003,0.108-0.091,0.194-0.2,0.194C62.89,41.512,62.801,41.423,62.8,41.313z"/>
	<path fill="#E4C95C" d="M0.8,23.537c-0.001-0.101-0.036-0.601-0.6-0.601H0.199H0.196h0H0.196H0.195h0
		C0.087,22.933,0,22.845,0,22.736c0-0.11,0.089-0.199,0.199-0.2C0.3,22.535,0.8,22.5,0.8,21.936c0-0.111,0.089-0.2,0.2-0.2
		s0.2,0.089,0.2,0.2c0,0.564,0.5,0.599,0.601,0.6C1.911,22.537,2,22.626,2,22.736c0,0.111-0.089,0.2-0.2,0.2
		c-0.565,0-0.599,0.501-0.6,0.6v0.001c0,0.001-0.001,0.003-0.001,0.003c0.001,0,0.001,0,0.001,0v0.001v0.001
		C1.197,23.65,1.109,23.736,1,23.736C0.89,23.736,0.801,23.647,0.8,23.537z"/>
	<path fill="#E4C95C" d="M4.299,51.729c-0.001-0.101-0.036-0.601-0.6-0.601H3.698H3.695h0H3.695H3.694h0
		c-0.108-0.003-0.195-0.091-0.195-0.2c0-0.11,0.089-0.199,0.199-0.2c0.101-0.001,0.601-0.036,0.601-0.6c0-0.111,0.089-0.2,0.2-0.2
		s0.2,0.089,0.2,0.2c0,0.564,0.5,0.599,0.601,0.6c0.11,0.001,0.199,0.09,0.199,0.2c0,0.111-0.089,0.2-0.2,0.2
		c-0.565,0-0.599,0.501-0.6,0.6v0.001c0,0.001-0.001,0.003-0.001,0.003c0.001,0,0.001,0,0.001,0v0.001v0.001
		c-0.003,0.108-0.091,0.194-0.2,0.194C4.389,51.928,4.3,51.839,4.299,51.729z"/>
</g>
</svg>
