<?xml version="1.0" encoding="utf-8"?>
<!-- Generator: Adobe Illustrator 17.0.0, SVG Export Plug-In . SVG Version: 6.00 Build 0)  -->
<!DOCTYPE svg PUBLIC "-//W3C//DTD SVG 1.1//EN" "http://www.w3.org/Graphics/SVG/1.1/DTD/svg11.dtd">
<svg version="1.1" xmlns="http://www.w3.org/2000/svg" xmlns:xlink="http://www.w3.org/1999/xlink" x="0px" y="0px" width="64px"
	 height="64px" viewBox="0 0 64 64" enable-background="new 0 0 64 64" xml:space="preserve">
<g id="Layer_4">
</g>
<g id="Layer_3">
</g>
<g id="Layer_2">
</g>
<g id="Layer_1">
</g>
<g id="Layer_5">
	<g>
		<g>
			<path fill="#FBE2CB" d="M59.5,31.191c0-15.188-12.312-27.5-27.5-27.5S4.5,16.003,4.5,31.191c0,9.396,4.715,17.687,11.905,22.647
				h31.191C54.785,48.878,59.5,40.587,59.5,31.191z"/>
		</g>
		
			<line fill="none" stroke="#2D346A" stroke-width="1.5" stroke-linecap="round" stroke-miterlimit="10" x1="9.125" y1="53.838" x2="54.875" y2="53.838"/>
		
			<line fill="none" stroke="#C3CCE9" stroke-width="1.5" stroke-linecap="round" stroke-linejoin="round" stroke-miterlimit="10" x1="15.578" y1="57.074" x2="48.422" y2="57.074"/>
		
			<line fill="none" stroke="#C3CCE9" stroke-width="1.5" stroke-linecap="round" stroke-linejoin="round" stroke-miterlimit="10" x1="23.641" y1="60.309" x2="36.314" y2="60.309"/>
		
			<line fill="none" stroke="#C3CCE9" stroke-width="1.5" stroke-linecap="round" stroke-linejoin="round" stroke-miterlimit="10" x1="39.166" y1="60.309" x2="40.415" y2="60.309"/>
	</g>
	<g>
		<g>
			
				<path fill="#C3CCE9" stroke="#2D346A" stroke-width="1.5" stroke-linecap="round" stroke-linejoin="round" stroke-miterlimit="10" d="
				M30.197,37.809c0-2.011-1.63-3.641-3.641-3.641H14.168c-2.011,0-3.641,1.63-3.641,3.641v12.388c0,2.011,1.63,3.641,3.641,3.641
				h12.388c2.011,0,3.641-1.63,3.641-3.641V37.809z"/>
			
				<path fill="#E4C95C" stroke="#2D346A" stroke-width="1.5" stroke-linecap="round" stroke-linejoin="round" stroke-miterlimit="10" d="
				M37.444,34.168c-2.011,0-3.641,1.63-3.641,3.641v12.388c0,2.011,1.63,3.641,3.641,3.641h12.388c2.011,0,3.641-1.63,3.641-3.641
				V37.809c0-2.011-1.63-3.641-3.641-3.641h-9.388"/>
			
				<path fill="#E8F3FF" stroke="#2D346A" stroke-width="1.5" stroke-linecap="round" stroke-linejoin="round" stroke-miterlimit="10" d="
				M10.527,27.118c0,2.011,1.63,3.641,3.641,3.641h12.388c2.011,0,3.641-1.63,3.641-3.641V14.73c0-2.011-1.63-3.641-3.641-3.641
				H14.168c-2.011,0-3.641,1.63-3.641,3.641v9.388"/>
			
				<path fill="#E8F3FF" stroke="#2D346A" stroke-width="1.5" stroke-linecap="round" stroke-linejoin="round" stroke-miterlimit="10" d="
				M46.832,11.088h-9.388c-2.011,0-3.641,1.63-3.641,3.641v12.388c0,2.011,1.63,3.641,3.641,3.641h12.388
				c2.011,0,3.641-1.63,3.641-3.641V14.73c0-2.011-1.63-3.641-3.641-3.641"/>
		</g>
		<g>
			
				<line fill="none" stroke="#FFFFFF" stroke-width="1.5" stroke-linecap="round" stroke-linejoin="round" stroke-miterlimit="10" x1="48.422" y1="42.003" x2="48.422" y2="42.003"/>
			
				<line fill="none" stroke="#FFFFFF" stroke-width="1.5" stroke-linecap="round" stroke-linejoin="round" stroke-miterlimit="10" x1="38.854" y1="42.003" x2="45.422" y2="42.003"/>
			
				<line fill="none" stroke="#FFFFFF" stroke-width="1.5" stroke-linecap="round" stroke-linejoin="round" stroke-miterlimit="10" x1="38.854" y1="46.003" x2="48.422" y2="46.003"/>
		</g>
		<g>
			
				<line fill="#E8F3FF" stroke="#2D346A" stroke-width="1.5" stroke-linecap="round" stroke-linejoin="round" stroke-miterlimit="10" x1="16.979" y1="40.62" x2="23.745" y2="47.386"/>
			
				<line fill="#E8F3FF" stroke="#2D346A" stroke-width="1.5" stroke-linecap="round" stroke-linejoin="round" stroke-miterlimit="10" x1="16.979" y1="47.386" x2="23.745" y2="40.62"/>
		</g>
		<g>
			
				<line fill="#E8F3FF" stroke="#2D346A" stroke-width="1.5" stroke-linecap="round" stroke-linejoin="round" stroke-miterlimit="10" x1="20.362" y1="16.139" x2="20.362" y2="25.708"/>
			
				<line fill="#E8F3FF" stroke="#2D346A" stroke-width="1.5" stroke-linecap="round" stroke-linejoin="round" stroke-miterlimit="10" x1="15.578" y1="20.924" x2="25.146" y2="20.924"/>
		</g>
		
			<line fill="#E8F3FF" stroke="#2D346A" stroke-width="1.5" stroke-linecap="round" stroke-linejoin="round" stroke-miterlimit="10" x1="38.854" y1="20.924" x2="48.422" y2="20.924"/>
	</g>
	<path fill="#E4C95C" d="M2.4,43.448c0.002,0.201,0.071,1.202,1.2,1.202c0.002,0,0.002,0,0.003,0c0.002,0,0.003,0,0.005,0h0
		c0.001,0,0.001,0,0.001,0H3.61c0,0,0.001,0,0.002,0C3.827,44.656,4,44.833,4,45.05c0,0.22-0.178,0.399-0.398,0.4
		C3.401,45.452,2.4,45.521,2.4,46.65c0,0.221-0.179,0.4-0.4,0.4s-0.4-0.179-0.4-0.4c0-1.129-1.001-1.198-1.202-1.2
		C0.178,45.449,0,45.27,0,45.05c0-0.221,0.179-0.4,0.4-0.4c1.129,0,1.198-1.002,1.2-1.2c0-0.002,0-0.002,0-0.002
		c0-0.003,0.001-0.006,0-0.006v-0.001V43.44c0,0,0-0.001,0-0.002C1.606,43.223,1.783,43.05,2,43.05
		C2.22,43.05,2.399,43.228,2.4,43.448z"/>
	<path fill="#E4C95C" d="M4.7,11.901c0.001,0.101,0.036,0.601,0.6,0.601h0.001h0.002h0h0.001h0.001h0
		c0.108,0.003,0.195,0.091,0.195,0.2c0,0.11-0.089,0.199-0.199,0.2C5.2,12.903,4.7,12.937,4.7,13.502c0,0.111-0.089,0.2-0.2,0.2
		c-0.111,0-0.2-0.089-0.2-0.2c0-0.564-0.5-0.599-0.601-0.6c-0.11-0.001-0.199-0.09-0.199-0.2c0-0.111,0.089-0.2,0.2-0.2
		c0.565,0,0.599-0.501,0.6-0.6V11.9c0-0.001,0.001-0.003,0.001-0.003c-0.001,0-0.001,0-0.001,0v-0.001v-0.001
		c0.003-0.108,0.091-0.194,0.2-0.194C4.61,11.702,4.699,11.791,4.7,11.901z"/>
	<path fill="#E4C95C" d="M59.7,47.249c0.001,0.101,0.036,0.601,0.6,0.601h0.001h0.002h0h0.001h0.001h0
		c0.108,0.003,0.195,0.091,0.195,0.2c0,0.11-0.089,0.199-0.199,0.2c-0.101,0.001-0.601,0.036-0.601,0.6c0,0.111-0.089,0.2-0.2,0.2
		s-0.2-0.089-0.2-0.2c0-0.564-0.5-0.599-0.601-0.6c-0.11-0.001-0.199-0.09-0.199-0.2c0-0.111,0.089-0.2,0.2-0.2
		c0.565,0,0.599-0.501,0.6-0.6c0-0.001,0-0.001,0-0.001c0-0.001,0.001-0.003,0.001-0.003c-0.001,0-0.001,0-0.001,0v-0.001v-0.001
		c0.003-0.108,0.091-0.194,0.2-0.194C59.61,47.05,59.699,47.139,59.7,47.249z"/>
	<path fill="#E4C95C" d="M7.7,31.199C7.701,31.3,7.736,31.8,8.3,31.8h0.001h0.002h0h0.001h0.001h0C8.413,31.803,8.5,31.891,8.5,32
		c0,0.11-0.089,0.199-0.199,0.2C8.2,32.201,7.7,32.236,7.7,32.8c0,0.111-0.089,0.2-0.2,0.2c-0.111,0-0.2-0.089-0.2-0.2
		c0-0.564-0.5-0.599-0.601-0.6C6.589,32.199,6.5,32.11,6.5,32c0-0.111,0.089-0.2,0.2-0.2c0.565,0,0.599-0.501,0.6-0.6
		c0-0.001,0-0.001,0-0.001c0-0.001,0.001-0.003,0.001-0.003c-0.001,0-0.001,0-0.001,0v-0.001v-0.001C7.303,31.087,7.391,31,7.5,31
		C7.61,31,7.699,31.089,7.7,31.199z"/>
	<path fill="#E4C95C" d="M62.4,15.125c0.002,0.201,0.071,1.202,1.2,1.202c0.002,0,0.002,0,0.003,0c0.002,0,0.003,0,0.005,0h0
		c0.001,0,0.001,0,0.001,0h0.001c0,0,0.001,0,0.002,0C63.827,16.334,64,16.51,64,16.727c0,0.22-0.178,0.399-0.398,0.4
		c-0.201,0.002-1.202,0.071-1.202,1.2c0,0.221-0.179,0.4-0.4,0.4c-0.221,0-0.4-0.179-0.4-0.4c0-1.129-1.001-1.198-1.202-1.2
		c-0.22-0.001-0.398-0.18-0.398-0.4c0-0.221,0.179-0.4,0.4-0.4c1.129,0,1.198-1.002,1.2-1.2c0-0.002,0-0.002,0-0.002
		c0-0.003,0.001-0.006,0-0.006v-0.001v-0.001c0,0,0-0.001,0-0.002c0.006-0.215,0.183-0.388,0.4-0.388
		C62.22,14.727,62.399,14.905,62.4,15.125z"/>
</g>
</svg>
