<?xml version="1.0" encoding="utf-8"?>
<!-- Generator: Adobe Illustrator 17.0.0, SVG Export Plug-In . SVG Version: 6.00 Build 0)  -->
<!DOCTYPE svg PUBLIC "-//W3C//DTD SVG 1.1//EN" "http://www.w3.org/Graphics/SVG/1.1/DTD/svg11.dtd">
<svg version="1.1" xmlns="http://www.w3.org/2000/svg" xmlns:xlink="http://www.w3.org/1999/xlink" x="0px" y="0px" width="64px"
	 height="64px" viewBox="0 0 64 64" enable-background="new 0 0 64 64" xml:space="preserve">
<g id="Layer_4">
</g>
<g id="Layer_3">
</g>
<g id="Layer_2">
</g>
<g id="Layer_1">
</g>
<g id="Layer_5">
	<g>
		<g>
			<path fill="#FBE2CB" d="M59.5,31.191c0-15.188-12.312-27.5-27.5-27.5S4.5,16.003,4.5,31.191c0,9.396,4.715,17.687,11.905,22.647
				h31.191C54.785,48.878,59.5,40.587,59.5,31.191z"/>
		</g>
		
			<line fill="none" stroke="#C3CCE9" stroke-width="1.5" stroke-linecap="round" stroke-linejoin="round" stroke-miterlimit="10" x1="20.375" y1="57.074" x2="43.625" y2="57.074"/>
		
			<line fill="none" stroke="#C3CCE9" stroke-width="1.5" stroke-linecap="round" stroke-linejoin="round" stroke-miterlimit="10" x1="27.641" y1="60.309" x2="32.314" y2="60.309"/>
		
			<line fill="none" stroke="#C3CCE9" stroke-width="1.5" stroke-linecap="round" stroke-linejoin="round" stroke-miterlimit="10" x1="35.166" y1="60.309" x2="36.415" y2="60.309"/>
	</g>
	<g>
		<g>
			<path fill="#E8F3FF" d="M35.631,11.471l-4.04,4.04L14.118,32.983c-1.172,1.172-3.071,1.172-4.243,0l4.243,4.243l2.581,2.581
				l12.975,12.975c1.172,1.172,3.071,1.172,4.243,0L55.43,31.27c1.172-1.172,1.172-3.071,0-4.243L39.874,11.471
				C38.702,10.299,36.803,10.299,35.631,11.471z"/>
			<path fill="#C3CCE9" d="M24.276,12.437L8.924,27.789c-1.172,1.172-1.172,3.071,0,4.243l0.952,0.952
				c1.172,1.172,3.071,1.172,4.243,0L29.47,17.632l2.121-2.121l-2.121-2.121l-0.952-0.952
				C27.347,11.266,25.447,11.266,24.276,12.437z"/>
			<path fill="#E4C95C" d="M39.167,29.643c1.172,1.172,3.071,1.172,4.243,0l7.318-7.318c1.172-1.172,1.172-3.071,0-4.243
				l-1.908-1.908c-1.172-1.172-3.071-1.172-4.243,0l-7.318,7.318c-1.172,1.172-1.172,3.071,0,4.243L39.167,29.643z"/>
		</g>
		<g>
			
				<path fill="none" stroke="#2D346A" stroke-width="1.5" stroke-linecap="round" stroke-linejoin="round" stroke-miterlimit="10" d="
				M44.576,16.173l-4.311-4.311c-1.388-1.388-3.639-1.388-5.027,0"/>
			
				<path fill="none" stroke="#2D346A" stroke-width="1.5" stroke-linecap="round" stroke-linejoin="round" stroke-miterlimit="10" d="
				M13.803,36.911L29.283,52.39c1.388,1.388,3.639,1.388,5.027,0l20.728-20.728c1.388-1.388,1.388-3.639,0-5.027l-4.311-4.311"/>
			
				<path fill="none" stroke="#2D346A" stroke-width="1.5" stroke-linecap="round" stroke-linejoin="round" stroke-miterlimit="10" d="
				M31.586,15.516l-2.681-2.681c-1.388-1.388-3.639-1.388-5.027,0L9.316,27.397c-1.388,1.388-1.388,3.639,0,5.027l0.167,0.167
				c1.388,1.388,3.639,1.388,5.027,0l18.607-18.607"/>
			
				<path fill="none" stroke="#2D346A" stroke-width="1.5" stroke-linecap="round" stroke-linejoin="round" stroke-miterlimit="10" d="
				M48.819,16.173c-1.172-1.172-3.071-1.172-4.243,0l-7.318,7.318c-1.172,1.172-1.172,3.071,0,4.243l1.908,1.908
				c1.172,1.172,3.071,1.172,4.243,0l7.318-7.318c1.172-1.172,1.172-3.071,0-4.243L48.819,16.173z"/>
			<g>
				
					<line fill="none" stroke="#C3CCE9" stroke-width="1.5" stroke-linecap="round" stroke-linejoin="round" x1="37.603" y1="15.156" x2="36.303" y2="16.456"/>
				
					<line fill="none" stroke="#C3CCE9" stroke-width="1.5" stroke-linecap="round" stroke-linejoin="round" stroke-dasharray="3.4748,3.4748" x1="33.846" y1="18.913" x2="20.332" y2="32.427"/>
				
					<line fill="none" stroke="#C3CCE9" stroke-width="1.5" stroke-linecap="round" stroke-linejoin="round" x1="19.104" y1="33.655" x2="17.804" y2="34.955"/>
			</g>
			<g>
				
					<line fill="none" stroke="#C3CCE9" stroke-width="1.5" stroke-linecap="round" stroke-linejoin="round" x1="51.745" y1="29.298" x2="50.445" y2="30.598"/>
				
					<line fill="none" stroke="#C3CCE9" stroke-width="1.5" stroke-linecap="round" stroke-linejoin="round" stroke-dasharray="3.4748,3.4748" x1="47.988" y1="33.055" x2="34.474" y2="46.569"/>
				
					<line fill="none" stroke="#C3CCE9" stroke-width="1.5" stroke-linecap="round" stroke-linejoin="round" x1="33.246" y1="47.797" x2="31.946" y2="49.097"/>
			</g>
			<circle fill="#FFFFFF" cx="41.164" cy="25.736" r="2"/>
		</g>
	</g>
	
		<line fill="none" stroke="#2D346A" stroke-width="1.5" stroke-linecap="round" stroke-miterlimit="10" x1="14.206" y1="53.838" x2="49.794" y2="53.838"/>
	<path fill="#E4C95C" d="M62.4,49.125c0.002-0.201,0.071-1.202,1.2-1.202c0.002,0,0.002,0,0.003,0c0.002,0,0.003,0,0.005,0h0
		c0.001,0,0.001,0,0.001,0h0.001c0,0,0.001,0,0.002,0C63.827,47.917,64,47.74,64,47.523c0-0.22-0.178-0.399-0.398-0.4
		c-0.201-0.002-1.202-0.071-1.202-1.2c0-0.221-0.179-0.4-0.4-0.4s-0.4,0.179-0.4,0.4c0,1.129-1.001,1.198-1.202,1.2
		c-0.22,0.001-0.398,0.18-0.398,0.4c0,0.221,0.179,0.4,0.4,0.4c1.129,0,1.198,1.002,1.2,1.2c0,0.002,0,0.002,0,0.002
		c0,0.003,0.001,0.006,0,0.006v0.001v0.001c0,0,0,0.001,0,0.002c0.006,0.215,0.183,0.388,0.4,0.388
		C62.22,49.523,62.399,49.345,62.4,49.125z"/>
	<path fill="#E4C95C" d="M1.2,38.679c0.001-0.101,0.036-0.601,0.6-0.601h0.001h0.002h0h0.001h0.001h0
		C1.913,38.075,2,37.987,2,37.878c0-0.11-0.089-0.199-0.199-0.2C1.7,37.677,1.2,37.642,1.2,37.078c0-0.111-0.089-0.2-0.2-0.2
		s-0.2,0.089-0.2,0.2c0,0.564-0.5,0.599-0.601,0.6C0.089,37.679,0,37.768,0,37.878c0,0.111,0.089,0.2,0.2,0.2
		c0.565,0,0.599,0.501,0.6,0.6v0.001c0,0.001,0.001,0.003,0.001,0.003c-0.001,0-0.001,0-0.001,0s0,0,0,0.001v0.001
		c0.003,0.108,0.091,0.194,0.2,0.194C1.11,38.878,1.199,38.789,1.2,38.679z"/>
	<path fill="#E4C95C" d="M60.7,17.347c0.001-0.101,0.036-0.601,0.6-0.601c0.001,0,0.001,0,0.001,0c0.001,0,0.002,0,0.003,0h0h0.001
		h0.001c0,0,0,0,0.001,0c0.108-0.003,0.194-0.091,0.194-0.2c0-0.11-0.089-0.199-0.199-0.2c-0.101-0.001-0.601-0.036-0.601-0.6
		c0-0.111-0.089-0.2-0.2-0.2s-0.2,0.089-0.2,0.2c0,0.564-0.5,0.599-0.601,0.6c-0.11,0.001-0.199,0.09-0.199,0.2
		c0,0.111,0.089,0.2,0.2,0.2c0.565,0,0.599,0.501,0.6,0.6c0,0.001,0,0.001,0,0.001c0,0.001,0.001,0.003,0,0.003v0.001v0v0.001
		c0.003,0.108,0.091,0.194,0.2,0.194C60.61,17.546,60.699,17.457,60.7,17.347z"/>
	<path fill="#E4C95C" d="M49.994,44.613c0.001-0.101,0.036-0.601,0.6-0.601c0.001,0,0.001,0,0.001,0c0.001,0,0.002,0,0.003,0h0
		h0.001h0.001c0,0,0,0,0.001,0c0.108-0.003,0.194-0.091,0.194-0.2c0-0.11-0.089-0.199-0.199-0.2c-0.101-0.001-0.601-0.036-0.601-0.6
		c0-0.111-0.089-0.2-0.2-0.2c-0.111,0-0.2,0.089-0.2,0.2c0,0.564-0.5,0.599-0.601,0.6c-0.11,0.001-0.199,0.09-0.199,0.2
		c0,0.111,0.089,0.2,0.2,0.2c0.565,0,0.599,0.501,0.6,0.6c0,0.001,0,0.001,0,0.001c0,0.001,0.001,0.003,0,0.003v0.001v0v0.001
		c0.003,0.108,0.091,0.194,0.2,0.194C49.904,44.812,49.994,44.723,49.994,44.613z"/>
	<path fill="#E4C95C" d="M8.445,9.102C8.448,8.901,8.517,7.9,9.645,7.9c0.002,0,0.002,0,0.002,0c0.002,0,0.004,0,0.005,0h0
		c0.001,0,0.001,0,0.001,0h0.001c0,0,0.001,0,0.002,0c0.215-0.006,0.388-0.183,0.388-0.4c0-0.22-0.178-0.399-0.398-0.4
		C9.446,7.098,8.445,7.028,8.445,5.9c0-0.221-0.179-0.4-0.4-0.4c-0.221,0-0.4,0.179-0.4,0.4c0,1.129-1.001,1.198-1.202,1.2
		c-0.22,0.001-0.398,0.18-0.398,0.4c0,0.221,0.179,0.4,0.4,0.4c1.129,0,1.198,1.002,1.2,1.2c0,0.002,0,0.002,0,0.003
		c0,0.002,0.001,0.005,0,0.005c0,0.001,0,0.001,0,0.001V9.11c0,0,0,0.001,0,0.002C7.652,9.327,7.828,9.5,8.045,9.5
		C8.266,9.5,8.444,9.322,8.445,9.102z"/>
	<path fill="#E4C95C" d="M14.606,47.079c0.002-0.201,0.071-1.202,1.2-1.202c0.002,0,0.002,0,0.002,0c0.002,0,0.004,0,0.005,0h0
		c0.001,0,0.001,0,0.001,0h0.001c0,0,0.001,0,0.002,0c0.215-0.006,0.388-0.183,0.388-0.4c0-0.22-0.178-0.399-0.398-0.4
		c-0.201-0.002-1.202-0.071-1.202-1.2c0-0.221-0.179-0.4-0.4-0.4c-0.221,0-0.4,0.179-0.4,0.4c0,1.129-1.001,1.198-1.202,1.2
		c-0.22,0.001-0.398,0.18-0.398,0.4c0,0.221,0.179,0.4,0.4,0.4c1.129,0,1.198,1.002,1.2,1.2c0,0.002,0,0.002,0,0.003
		c0,0.002,0.001,0.005,0,0.005c0,0.001,0,0.001,0,0.001v0.001c0,0,0,0.001,0,0.002c0.006,0.215,0.183,0.388,0.4,0.388
		C14.426,47.477,14.605,47.299,14.606,47.079z"/>
</g>
</svg>
