<svg xmlns="http://www.w3.org/2000/svg" xmlns:xlink="http://www.w3.org/1999/xlink" version="1.1" x="0px" y="0px" viewBox="0 0 64 80" enable-background="new 0 0 64 64" xml:space="preserve"><g display="none"><rect x="-19.994" y="-188" display="inline" fill="#000000" width="20" height="430"></rect><rect x="290.506" y="-521.5" transform="matrix(1.067751e-10 -1 1 1.067751e-10 310.5059 290.5059)" display="inline" fill="#000000" width="20" height="1023"></rect><rect x="-266.898" y="-198.185" display="inline" fill="#000000" width="1058.367" height="519.832"></rect></g><g display="none"><g display="inline"><path d="M39.882,2.068c0,8.141-7.882,8.632-7.882,8.632s-7.882-0.491-7.882-8.632H14.114L0,9.332l5.558,15.65l8.051-3.509v40.458 H32h18.392V21.473l8.051,3.509L64,9.297L49.886,2.068L39.882,2.068z"></path><g><path fill="#000000" d="M21.824,38.613l-3.186-9.105l2.404-0.842l3.059,2.676c0.877,0.769,1.813,1.717,2.579,2.602l0.041-0.014 c-0.557-1.156-1.028-2.371-1.504-3.735l-0.932-2.663l1.89-0.661l3.186,9.105l-2.162,0.757L24.027,33.9 c-0.881-0.784-1.887-1.752-2.707-2.661l-0.035,0.027c0.475,1.184,0.951,2.458,1.469,3.943l0.96,2.743L21.824,38.613z"></path><path fill="#000000" d="M31.694,32.188c0.366,0.828,1.343,0.94,2.305,0.604c0.702-0.246,1.236-0.541,1.728-0.91l0.757,1.296 c-0.58,0.508-1.358,0.932-2.248,1.244c-2.242,0.785-3.98-0.063-4.705-2.13c-0.585-1.674-0.192-3.89,2.103-4.694 c2.135-0.747,3.527,0.631,4.099,2.266c0.123,0.35,0.192,0.676,0.218,0.834L31.694,32.188z M33.621,29.936 c-0.175-0.5-0.684-1.261-1.63-0.93c-0.864,0.303-0.941,1.208-0.801,1.782L33.621,29.936z"></path><path fill="#000000" d="M37.2,25.816l1.473,2.518c0.377,0.642,0.768,1.324,1.138,2.042l0.028-0.008 c-0.129-0.804-0.205-1.627-0.271-2.333l-0.246-2.959l1.621-0.568l1.583,2.403c0.435,0.681,0.872,1.362,1.271,2.072l0.028-0.009 c-0.17-0.79-0.296-1.58-0.412-2.389l-0.35-2.819l2.013-0.705l0.285,7.316l-1.931,0.676l-1.435-2.106 c-0.389-0.591-0.719-1.145-1.137-1.908l-0.028,0.011c0.167,0.864,0.244,1.521,0.287,2.204l0.15,2.556l-1.931,0.675l-4.23-5.935 L37.2,25.816z"></path></g></g></g><g display="none"><path display="inline" d="M49.404,4.068l12.126,6.211l-4.256,12.012l-6.083-2.651l-2.799-1.22v3.053v38.458H32H15.608V21.473V18.42 l-2.799,1.22l-6.084,2.652L2.47,10.31l12.128-6.242h7.663c1.199,8.005,9.524,8.623,9.615,8.628L32,12.704l0.124-0.008 c0.091-0.006,8.416-0.624,9.615-8.628H49.404 M49.886,2.068H39.882c0,8.141-7.882,8.632-7.882,8.632s-7.882-0.491-7.882-8.632 H14.114L0,9.332l5.558,15.65l8.051-3.509v40.458H32h18.392V21.473l8.051,3.509L64,9.297L49.886,2.068L49.886,2.068z"></path><path display="inline" d="M21.824,38.613l-3.186-9.105l2.404-0.842l3.059,2.676c0.877,0.769,1.813,1.717,2.579,2.602l0.041-0.014 c-0.557-1.156-1.028-2.371-1.504-3.735l-0.932-2.663l1.89-0.661l3.186,9.105l-2.162,0.757L24.027,33.9 c-0.881-0.784-1.887-1.752-2.707-2.661l-0.035,0.027c0.475,1.184,0.951,2.458,1.469,3.943l0.96,2.743L21.824,38.613z"></path><path display="inline" d="M31.694,32.188c0.366,0.828,1.343,0.94,2.305,0.604c0.702-0.246,1.236-0.541,1.728-0.91l0.757,1.296 c-0.58,0.508-1.358,0.932-2.248,1.244c-2.242,0.785-3.98-0.063-4.705-2.13c-0.585-1.674-0.192-3.89,2.103-4.694 c2.135-0.747,3.527,0.631,4.099,2.266c0.123,0.35,0.192,0.676,0.218,0.834L31.694,32.188z M33.621,29.936 c-0.175-0.5-0.684-1.261-1.63-0.93c-0.864,0.303-0.941,1.208-0.801,1.782L33.621,29.936z"></path><path display="inline" d="M37.2,25.816l1.473,2.518c0.377,0.642,0.768,1.324,1.138,2.042l0.028-0.008 c-0.129-0.804-0.205-1.627-0.271-2.333l-0.246-2.959l1.621-0.568l1.583,2.403c0.435,0.681,0.872,1.362,1.271,2.072l0.028-0.009 c-0.17-0.79-0.296-1.58-0.412-2.389l-0.35-2.819l2.013-0.705l0.285,7.316l-1.931,0.676l-1.435-2.106 c-0.389-0.591-0.719-1.145-1.137-1.908l-0.028,0.011c0.167,0.864,0.244,1.521,0.287,2.204l0.15,2.556l-1.931,0.675l-4.23-5.935 L37.2,25.816z"></path></g><g display="none"><g display="inline"><path fill="#000000" d="M32,0C14.327,0,0,14.327,0,32s14.327,32,32,32s32-14.327,32-32S49.673,0,32,0L32,0z"></path></g><g display="inline"><g><path fill="#000000" d="M14.608,60.932V19.945l-8.468,3.691L1.235,9.821l13.12-6.753h8.801c0.622,8.024,8.696,8.625,8.781,8.63 L32,11.702l0.062-0.004c0.085-0.005,8.159-0.605,8.781-8.63h8.802l13.119,6.72l-4.906,13.849l-8.467-3.691v40.986H14.608z"></path></g><g><path d="M49.404,4.068l12.126,6.211l-4.256,12.012l-6.083-2.651l-2.799-1.22v3.053v38.458H32H15.608V21.473V18.42l-2.799,1.22 l-6.084,2.652L2.47,10.31l12.128-6.242h7.663c1.199,8.005,9.524,8.623,9.615,8.628L32,12.704l0.124-0.008 c0.091-0.006,8.416-0.624,9.615-8.628H49.404 M49.886,2.068H39.882c0,8.141-7.882,8.632-7.882,8.632s-7.882-0.491-7.882-8.632 H14.114L0,9.332l5.558,15.65l8.051-3.509v40.458H32h18.392V21.473l8.051,3.509L64,9.297L49.886,2.068L49.886,2.068z"></path></g></g><g display="inline"><g><path fill="#000000" d="M21.824,38.613l-3.186-9.105l2.404-0.842l3.059,2.676c0.877,0.769,1.813,1.717,2.579,2.602l0.041-0.014 c-0.557-1.156-1.028-2.371-1.504-3.735l-0.932-2.663l1.89-0.661l3.186,9.105l-2.162,0.757L24.027,33.9 c-0.881-0.784-1.887-1.752-2.707-2.661l-0.035,0.027c0.475,1.184,0.951,2.458,1.469,3.943l0.96,2.743L21.824,38.613z"></path></g></g><g display="inline"><g><path fill="#000000" d="M31.694,32.188c0.366,0.828,1.343,0.94,2.305,0.604c0.702-0.246,1.236-0.541,1.728-0.91l0.757,1.296 c-0.58,0.508-1.358,0.932-2.248,1.244c-2.242,0.785-3.98-0.063-4.705-2.13c-0.585-1.674-0.192-3.89,2.103-4.694 c2.135-0.747,3.527,0.631,4.099,2.266c0.123,0.35,0.192,0.676,0.218,0.834L31.694,32.188z M33.621,29.936 c-0.175-0.5-0.684-1.261-1.63-0.93c-0.864,0.303-0.941,1.208-0.801,1.782L33.621,29.936z"></path></g></g><g display="inline"><g><path fill="#000000" d="M37.2,25.816l1.473,2.518c0.377,0.642,0.768,1.324,1.138,2.042l0.028-0.008 c-0.129-0.804-0.205-1.627-0.271-2.333l-0.246-2.959l1.621-0.568l1.583,2.403c0.435,0.681,0.872,1.362,1.271,2.072l0.028-0.009 c-0.17-0.79-0.296-1.58-0.412-2.389l-0.35-2.819l2.013-0.705l0.285,7.316l-1.931,0.676l-1.435-2.106 c-0.389-0.591-0.719-1.145-1.137-1.908l-0.028,0.011c0.167,0.864,0.244,1.521,0.287,2.204l0.15,2.556l-1.931,0.675l-4.23-5.935 L37.2,25.816z"></path></g></g></g><g display="none"><g display="inline"><path d="M33.621,29.936c-0.175-0.5-0.684-1.261-1.63-0.93c-0.864,0.303-0.941,1.208-0.801,1.782L33.621,29.936z"></path><path d="M13.608,21.473v40.458H32h18.392V21.473l8.051,3.509L64,9.297L49.886,2.068H39.882c0,8.141-7.882,8.632-7.882,8.632 s-7.882-0.491-7.882-8.632H14.114L0,9.332l5.558,15.65L13.608,21.473z M37.2,25.816l1.473,2.518 c0.377,0.642,0.768,1.324,1.138,2.042l0.028-0.008c-0.129-0.804-0.205-1.627-0.271-2.333l-0.246-2.959l1.621-0.568l1.583,2.403 c0.435,0.681,0.872,1.362,1.271,2.072l0.028-0.009c-0.17-0.79-0.296-1.58-0.411-2.389l-0.35-2.819l2.013-0.705l0.285,7.316 l-1.931,0.676l-1.435-2.106c-0.389-0.591-0.719-1.145-1.137-1.908l-0.028,0.011c0.167,0.864,0.244,1.521,0.287,2.204l0.15,2.556 l-1.931,0.675l-4.23-5.935L37.2,25.816z M31.634,27.598c2.135-0.747,3.527,0.631,4.099,2.266c0.123,0.35,0.192,0.676,0.218,0.834 l-4.257,1.49c0.366,0.828,1.343,0.94,2.305,0.604c0.702-0.246,1.236-0.541,1.728-0.91l0.757,1.296 c-0.58,0.508-1.358,0.932-2.248,1.244c-2.242,0.785-3.98-0.063-4.705-2.13C28.946,30.617,29.339,28.402,31.634,27.598z M21.042,28.665l3.059,2.676c0.877,0.769,1.813,1.717,2.579,2.602l0.041-0.014c-0.557-1.156-1.028-2.371-1.504-3.735l-0.932-2.663 l1.89-0.661l3.186,9.105l-2.162,0.757L24.027,33.9c-0.881-0.784-1.887-1.752-2.707-2.661l-0.035,0.027 c0.475,1.184,0.951,2.458,1.469,3.943l0.96,2.743l-1.89,0.661l-3.186-9.105L21.042,28.665z"></path></g></g><g display="none"><g display="inline"><g><g><path d="M44.375,64h-24.75c-4.4,0-8-3.6-8-8V8c0-4.4,3.6-8,8-8h24.75c4.4,0,8,3.6,8,8v48C52.375,60.4,48.775,64,44.375,64z"></path><rect x="14.75" y="7.552" fill="#000000" width="35" height="47.115"></rect><circle fill="#000000" cx="32" cy="3.772" r="1.5"></circle><path fill="#000000" d="M35.391,61.034h-6.783c-0.937,0-1.696-0.758-1.696-1.696c0-0.937,0.758-1.696,1.696-1.696h6.783 c0.937,0,1.696,0.758,1.696,1.696C37.087,60.276,36.329,61.034,35.391,61.034z"></path></g><line fill="#000000" stroke="#FF583E" stroke-miterlimit="10" x1="18.902" y1="44.287" x2="45.098" y2="44.287"></line><line fill="#000000" stroke="#FF583E" stroke-miterlimit="10" x1="21.809" y1="47.649" x2="42.191" y2="47.649"></line><g><g><rect x="20" y="14.072" fill="#000000" width="24" height="24"></rect></g></g></g><g><circle cx="35.998" cy="32.364" r="1.999"></circle><circle cx="29.969" cy="32.364" r="1.999"></circle><polygon fill="#000000" points="28.284,22.695 27.016,18.94 23.754,18.94 23.754,17.518 28.036,17.518 29.631,22.239 "></polygon><polygon fill="#000000" points="25.948,21.761 40.363,21.761 37.615,29.47 28.349,29.47 "></polygon></g></g></g><g display="none"><path display="inline" d="M42,16.072v20H22v-20H42 M44,14.072H20v24h24V14.072L44,14.072z"></path><path display="inline" d="M35.998,30.365c-1.104,0-1.999,0.895-1.999,1.999s0.895,1.999,1.999,1.999s1.999-0.895,1.999-1.999 S37.102,30.365,35.998,30.365L35.998,30.365z"></path><path display="inline" d="M29.969,30.365c-1.104,0-1.999,0.895-1.999,1.999s0.895,1.999,1.999,1.999s1.999-0.895,1.999-1.999 S31.073,30.365,29.969,30.365L29.969,30.365z"></path><polygon display="inline" points="28.036,17.518 23.754,17.518 23.754,18.94 27.016,18.94 28.284,22.695 29.631,22.239 28.036,17.518 "></polygon><path display="inline" d="M37.527,23.761l-1.322,3.709h-6.384l-1.155-3.709H37.527 M40.363,21.761H25.948l2.4,7.709h9.267 L40.363,21.761L40.363,21.761z"></path><path display="inline" d="M47,9.552v43.115H17V9.552H47 M49,7.552H15v47.115h34V7.552L49,7.552z"></path><path display="inline" d="M32,3.274c-0.828,0-1.5,0.672-1.5,1.5s0.672,1.5,1.5,1.5c0.828,0,1.5-0.672,1.5-1.5 S32.828,3.274,32,3.274L32,3.274z"></path><path display="inline" d="M35.391,56.636h-6.783c-0.937,0-1.696,0.758-1.696,1.696s0.758,1.696,1.696,1.696h6.783 c0.937,0,1.696-0.758,1.696-1.696S36.329,56.636,35.391,56.636L35.391,56.636z"></path><path display="inline" d="M44.375,2c3.308,0,6,2.692,6,6v48c0,3.308-2.692,6-6,6h-24.75c-3.308,0-6-2.692-6-6V8 c0-3.308,2.692-6,6-6H44.375 M44.375,0h-24.75c-4.4,0-8,3.6-8,8v48c0,4.4,3.6,8,8,8h24.75c4.4,0,8-3.6,8-8V8 C52.375,3.6,48.775,0,44.375,0L44.375,0z"></path><rect x="19.902" y="43.287" display="inline" width="24.195" height="2"></rect><rect x="22.809" y="46.649" display="inline" width="18.383" height="2"></rect></g><g display="none"><g display="inline"><g><g><path fill="#000000" d="M32,0C14.327,0,0,14.327,0,32s14.327,32,32,32s32-14.327,32-32S49.673,0,32,0L32,0z"></path></g><g><g><path fill="#000000" d="M19.625,63c-3.859,0-7-3.141-7-7V8c0-3.859,3.141-7,7-7h24.75c3.859,0,7,3.141,7,7v48 c0,3.859-3.141,7-7,7H19.625z"></path></g><g><path d="M44.375,2c3.308,0,6,2.692,6,6v48c0,3.308-2.692,6-6,6h-24.75c-3.308,0-6-2.692-6-6V8c0-3.308,2.692-6,6-6H44.375 M44.375,0h-24.75c-4.4,0-8,3.6-8,8v48c0,4.4,3.6,8,8,8h24.75c4.4,0,8-3.6,8-8V8C52.375,3.6,48.775,0,44.375,0L44.375,0z"></path></g></g><g><g><rect x="16" y="8.552" fill="#000000" width="32" height="45.115"></rect></g><g><path d="M47,9.552v43.115H17V9.552H47 M49,7.552H15v47.115h34V7.552L49,7.552z"></path></g></g></g><g><path d="M32,3.274c-0.828,0-1.5,0.672-1.5,1.5s0.672,1.5,1.5,1.5c0.828,0,1.5-0.672,1.5-1.5S32.828,3.274,32,3.274L32,3.274z"></path></g><g><path d="M35.391,56.636h-6.783c-0.937,0-1.696,0.758-1.696,1.696s0.758,1.696,1.696,1.696h6.783c0.937,0,1.696-0.758,1.696-1.696 S36.329,56.636,35.391,56.636L35.391,56.636z"></path></g><g><rect x="19.902" y="43.287" width="24.195" height="2"></rect></g><g><rect x="22.809" y="46.649" width="18.383" height="2"></rect></g></g><g display="inline"><rect x="20" y="14.072" width="24" height="24"></rect></g><g display="inline"><circle fill="#000000" cx="35.998" cy="32.364" r="1.999"></circle></g><g display="inline"><circle fill="#000000" cx="29.969" cy="32.364" r="1.999"></circle></g><g display="inline"><polygon fill="#000000" points="28.284,22.695 27.016,18.94 23.754,18.94 23.754,17.518 28.036,17.518 29.631,22.239 "></polygon></g><g display="inline"><g><path fill="#000000" d="M37.527,23.761l-1.322,3.709h-6.384l-1.155-3.709H37.527 M40.363,21.761H25.948l2.4,7.709h9.267 L40.363,21.761L40.363,21.761z"></path></g></g><g display="inline"><rect x="19.902" y="43.287" width="24.195" height="2"></rect></g><g display="inline"><rect x="22.809" y="46.649" width="18.383" height="2"></rect></g></g><g display="none"><rect x="18.902" y="43.787" display="inline" width="26.195" height="1"></rect><rect x="21.809" y="47.149" display="inline" width="20.383" height="1"></rect><path display="inline" d="M19.625,0c-4.4,0-8,3.6-8,8v48c0,4.4,3.6,8,8,8h24.75c4.4,0,8-3.6,8-8V8c0-4.4-3.6-8-8-8H19.625z M32,2.272c0.828,0,1.5,0.672,1.5,1.5s-0.672,1.5-1.5,1.5c-0.828,0-1.5-0.672-1.5-1.5S31.172,2.272,32,2.272z M35.391,61.034 h-6.783c-0.937,0-1.696-0.758-1.696-1.696c0-0.937,0.758-1.696,1.696-1.696h6.783c0.937,0,1.696,0.758,1.696,1.696 C37.087,60.276,36.329,61.034,35.391,61.034z M49.5,54.667h-35V7.552h35V54.667z"></path><path display="inline" d="M44,14.071H20v24h24V14.071z M29.969,34.362c-1.104,0-1.999-0.895-1.999-1.999s0.895-1.999,1.999-1.999 s1.999,0.895,1.999,1.999S31.073,34.362,29.969,34.362z M35.998,34.362c-1.104,0-1.999-0.895-1.999-1.999s0.895-1.999,1.999-1.999 c1.104,0,1.999,0.895,1.999,1.999S37.102,34.362,35.998,34.362z M37.615,29.47h-9.267l-2.4-7.709h2.021l-0.953-2.822h-3.262v-1.422 h4.281l1.434,4.244h10.893L37.615,29.47z"></path></g><g display="none"><g display="inline"><path d="M44.375,64h-24.75c-4.4,0-8-3.6-8-8V8c0-4.4,3.6-8,8-8h24.75c4.4,0,8,3.6,8,8v48C52.375,60.4,48.775,64,44.375,64z"></path><rect x="14.75" y="7.552" fill="#000000" width="35" height="47.115"></rect><circle fill="#000000" cx="32" cy="3.772" r="1.5"></circle><path fill="#000000" d="M35.391,61.034h-6.783c-0.937,0-1.696-0.758-1.696-1.696c0-0.937,0.758-1.696,1.696-1.696h6.783 c0.937,0,1.696,0.758,1.696,1.696C37.087,60.276,36.329,61.034,35.391,61.034z"></path><line fill="#000000" stroke="#FF583E" stroke-miterlimit="10" x1="18.902" y1="44.287" x2="45.098" y2="44.287"></line><line fill="#000000" stroke="#FF583E" stroke-miterlimit="10" x1="21.809" y1="47.649" x2="42.191" y2="47.649"></line><g><g><rect x="20" y="14.072" fill="#000000" width="24" height="24"></rect></g></g><g><path d="M36.335,22.072H35.21v-2.538c0-0.31-0.252-0.562-0.562-0.562h-5.295c-0.31,0-0.562,0.252-0.562,0.562v2.538h-1.125 v-2.538c0-0.93,0.757-1.687,1.687-1.687h5.295c0.93,0,1.687,0.757,1.687,1.687V22.072z"></path><path fill="#000000" d="M25.53,21.414l-2.527,12.206h17.994L38.47,21.414H25.53z"></path><path d="M29.282,25.725c-0.542,0-0.982-0.44-0.982-0.983c0-0.543,0.44-0.983,0.982-0.983c0.542,0,0.982,0.44,0.982,0.983 C30.264,25.285,29.824,25.725,29.282,25.725z M34.718,25.725c-0.542,0-0.982-0.44-0.982-0.983c0-0.543,0.44-0.983,0.982-0.983 c0.542,0,0.982,0.44,0.982,0.983C35.7,25.285,35.26,25.725,34.718,25.725z"></path></g></g></g><g display="none"><path display="inline" d="M42,16.072v20H22v-20H42 M44,14.072H20v24h24V14.072L44,14.072z"></path><path display="inline" d="M35.795,21.73h-2v-1.93c0-0.155-0.127-0.282-0.282-0.282h-3.025c-0.155,0-0.282,0.127-0.282,0.282v1.93 h-2v-1.93c0-1.259,1.023-2.282,2.282-2.282h3.025c1.259,0,2.282,1.023,2.282,2.282V21.73z"></path><path display="inline" d="M36.842,23.414l1.699,8.206H25.459l1.699-8.206H36.842 M38.47,21.414H25.53l-2.527,12.206h17.994 L38.47,21.414L38.47,21.414z"></path><path display="inline" d="M34.718,24.443c-0.542,0-0.982,0.44-0.982,0.983c0,0.543,0.44,0.983,0.982,0.983 c0.542,0,0.982-0.44,0.982-0.983C35.7,24.883,35.26,24.443,34.718,24.443L34.718,24.443z M29.282,24.443 c-0.542,0-0.982,0.44-0.982,0.983c0,0.543,0.44,0.983,0.982,0.983c0.542,0,0.982-0.44,0.982-0.983 C30.264,24.883,29.824,24.443,29.282,24.443L29.282,24.443z"></path><path display="inline" d="M47,9.552v43.115H17V9.552H47 M49,7.552H15v47.115h34V7.552L49,7.552z"></path><path display="inline" d="M32,3.274c-0.828,0-1.5,0.672-1.5,1.5c0,0.828,0.672,1.5,1.5,1.5c0.828,0,1.5-0.672,1.5-1.5 C33.5,3.946,32.828,3.274,32,3.274L32,3.274z"></path><path display="inline" d="M35.391,56.636h-6.783c-0.937,0-1.696,0.758-1.696,1.696c0,0.937,0.758,1.696,1.696,1.696h6.783 c0.937,0,1.696-0.758,1.696-1.696C37.087,57.395,36.329,56.636,35.391,56.636L35.391,56.636z"></path><path display="inline" d="M44.375,2c3.308,0,6,2.692,6,6v48c0,3.308-2.692,6-6,6h-24.75c-3.308,0-6-2.692-6-6V8 c0-3.308,2.692-6,6-6H44.375 M44.375,0h-24.75c-4.4,0-8,3.6-8,8v48c0,4.4,3.6,8,8,8h24.75c4.4,0,8-3.6,8-8V8 C52.375,3.6,48.775,0,44.375,0L44.375,0z"></path><rect x="19.902" y="43.287" display="inline" width="24.195" height="2"></rect><rect x="22.809" y="46.649" display="inline" width="18.383" height="2"></rect></g><g display="none"><g display="inline"><path fill="#000000" d="M32,0C14.327,0,0,14.327,0,32s14.327,32,32,32s32-14.327,32-32S49.673,0,32,0L32,0z"></path></g><g display="inline"><g><path fill="#000000" d="M19.625,63c-3.859,0-7-3.141-7-7V8c0-3.859,3.141-7,7-7h24.75c3.859,0,7,3.141,7,7v48 c0,3.859-3.141,7-7,7H19.625z"></path></g><g><path d="M44.375,2c3.308,0,6,2.692,6,6v48c0,3.308-2.692,6-6,6h-24.75c-3.308,0-6-2.692-6-6V8c0-3.308,2.692-6,6-6H44.375 M44.375,0h-24.75c-4.4,0-8,3.6-8,8v48c0,4.4,3.6,8,8,8h24.75c4.4,0,8-3.6,8-8V8C52.375,3.6,48.775,0,44.375,0L44.375,0z"></path></g></g><g display="inline"><g><rect x="16" y="8.552" fill="#000000" width="32" height="45.115"></rect></g><g><path d="M47,9.552v43.115H17V9.552H47 M49,7.552H15v47.115h34V7.552L49,7.552z"></path></g></g><g display="inline"><path d="M32,3.274c-0.828,0-1.5,0.672-1.5,1.5s0.672,1.5,1.5,1.5c0.828,0,1.5-0.672,1.5-1.5S32.828,3.274,32,3.274L32,3.274z"></path></g><g display="inline"><path d="M35.391,56.636h-6.783c-0.937,0-1.696,0.758-1.696,1.696s0.758,1.696,1.696,1.696h6.783c0.937,0,1.696-0.758,1.696-1.696 S36.329,56.636,35.391,56.636L35.391,56.636z"></path></g><g display="inline"><rect x="19.902" y="43.287" width="24.195" height="2"></rect></g><g display="inline"><rect x="22.809" y="46.649" width="18.383" height="2"></rect></g><g display="inline"><g><rect x="21" y="15.071" fill="#000000" width="22" height="22"></rect></g><g><g><path d="M42,16.072v20H22v-20H42 M44,14.072H20v24h24V14.072L44,14.072z"></path></g></g></g><g display="inline"><path d="M35.795,21.73h-2v-1.93c0-0.155-0.127-0.282-0.282-0.282h-3.025c-0.155,0-0.282,0.127-0.282,0.282v1.93h-2v-1.93 c0-1.259,1.023-2.282,2.282-2.282h3.025c1.259,0,2.282,1.023,2.282,2.282V21.73z"></path></g><g display="inline"><path d="M36.842,23.414l1.699,8.206H25.459l1.699-8.206H36.842 M38.47,21.414H25.53l-2.527,12.206h17.994L38.47,21.414 L38.47,21.414z"></path></g><g display="inline"><path d="M34.718,24.443c-0.542,0-0.982,0.44-0.982,0.983c0,0.543,0.44,0.983,0.982,0.983c0.542,0,0.982-0.44,0.982-0.983 C35.7,24.883,35.26,24.443,34.718,24.443L34.718,24.443z M29.282,24.443c-0.542,0-0.982,0.44-0.982,0.983 c0,0.543,0.44,0.983,0.982,0.983c0.542,0,0.982-0.44,0.982-0.983C30.264,24.883,29.824,24.443,29.282,24.443L29.282,24.443z"></path></g></g><g display="none"><rect x="18.902" y="43.787" display="inline" width="26.195" height="1"></rect><rect x="21.809" y="47.149" display="inline" width="20.383" height="1"></rect><path display="inline" d="M35.21,19.534c0-0.31-0.252-0.562-0.562-0.562h-5.295c-0.31,0-0.562,0.252-0.562,0.562v1.879h6.419 V19.534z"></path><path display="inline" d="M44,14.071H20v24h24V14.071z M23.003,33.619l2.527-12.206h2.136v-1.879c0-0.93,0.757-1.687,1.687-1.687 h5.295c0.93,0,1.687,0.757,1.687,1.687v1.879h2.135l2.527,12.206H23.003z"></path><circle display="inline" cx="34.718" cy="24.742" r="0.982"></circle><circle display="inline" cx="29.282" cy="24.742" r="0.982"></circle><path display="inline" d="M19.625,64h24.75c4.4,0,8-3.6,8-8V8c0-4.4-3.6-8-8-8h-24.75c-4.4,0-8,3.6-8,8v48 C11.625,60.4,15.225,64,19.625,64z M35.391,61.034h-6.783c-0.937,0-1.696-0.758-1.696-1.696c0-0.937,0.758-1.696,1.696-1.696h6.783 c0.937,0,1.696,0.758,1.696,1.696C37.087,60.276,36.329,61.034,35.391,61.034z M32,2.272c0.828,0,1.5,0.672,1.5,1.5 s-0.672,1.5-1.5,1.5c-0.828,0-1.5-0.672-1.5-1.5S31.172,2.272,32,2.272z M14.5,7.552h35v47.115h-35V7.552z"></path></g><g display="none"><g display="inline"><path d="M44.375,64h-24.75c-4.4,0-8-3.6-8-8V8c0-4.4,3.6-8,8-8h24.75c4.4,0,8,3.6,8,8v48C52.375,60.4,48.775,64,44.375,64z"></path><rect x="14.75" y="7.552" fill="#000000" width="35" height="47.115"></rect><circle fill="#000000" cx="32" cy="3.772" r="1.5"></circle><path fill="#000000" d="M35.391,61.034h-6.783c-0.937,0-1.696-0.758-1.696-1.696c0-0.937,0.758-1.696,1.696-1.696h6.783 c0.937,0,1.696,0.758,1.696,1.696C37.087,60.276,36.329,61.034,35.391,61.034z"></path><line fill="#000000" stroke="#FF583E" stroke-miterlimit="10" x1="18.902" y1="44.287" x2="45.098" y2="44.287"></line><line fill="#000000" stroke="#FF583E" stroke-miterlimit="10" x1="21.809" y1="47.649" x2="42.191" y2="47.649"></line><g><g><rect x="20" y="14.072" fill="#000000" width="24" height="24"></rect></g></g><g><polygon fill="#000000" points="29.293,33.061 23.534,27.026 25.27,25.37 29.256,29.547 39.012,18.863 40.784,20.482 "></polygon></g></g></g><g display="none"><path display="inline" d="M42,16.072v20H22v-20H42 M44,14.072H20v24h24V14.072L44,14.072z"></path><polygon display="inline" points="39.012,18.863 29.256,29.547 25.27,25.37 23.534,27.026 29.293,33.061 40.784,20.482 39.012,18.863 "></polygon><path display="inline" d="M47,9.552v43.115H17V9.552H47 M49,7.552H15v47.115h34V7.552L49,7.552z"></path><path display="inline" d="M32,3.274c-0.828,0-1.5,0.672-1.5,1.5s0.672,1.5,1.5,1.5c0.828,0,1.5-0.672,1.5-1.5 S32.828,3.274,32,3.274L32,3.274z"></path><path display="inline" d="M35.391,56.636h-6.783c-0.937,0-1.696,0.758-1.696,1.696s0.758,1.696,1.696,1.696h6.783 c0.937,0,1.696-0.758,1.696-1.696S36.329,56.636,35.391,56.636L35.391,56.636z"></path><path display="inline" d="M44.375,2c3.308,0,6,2.692,6,6v48c0,3.308-2.692,6-6,6h-24.75c-3.308,0-6-2.692-6-6V8 c0-3.308,2.692-6,6-6H44.375 M44.375,0h-24.75c-4.4,0-8,3.6-8,8v48c0,4.4,3.6,8,8,8h24.75c4.4,0,8-3.6,8-8V8 C52.375,3.6,48.775,0,44.375,0L44.375,0z"></path><rect x="19.902" y="43.287" display="inline" width="24.195" height="2"></rect><rect x="22.809" y="46.649" display="inline" width="18.383" height="2"></rect></g><g display="none"><g display="inline"><path fill="#000000" d="M32,0C14.327,0,0,14.327,0,32s14.327,32,32,32s32-14.327,32-32S49.673,0,32,0L32,0z"></path></g><g display="inline"><g><path fill="#000000" d="M19.625,63c-3.859,0-7-3.141-7-7V8c0-3.859,3.141-7,7-7h24.75c3.859,0,7,3.141,7,7v48 c0,3.859-3.141,7-7,7H19.625z"></path></g><g><path d="M44.375,2c3.308,0,6,2.692,6,6v48c0,3.308-2.692,6-6,6h-24.75c-3.308,0-6-2.692-6-6V8c0-3.308,2.692-6,6-6H44.375 M44.375,0h-24.75c-4.4,0-8,3.6-8,8v48c0,4.4,3.6,8,8,8h24.75c4.4,0,8-3.6,8-8V8C52.375,3.6,48.775,0,44.375,0L44.375,0z"></path></g></g><g display="inline"><g><rect x="16" y="8.552" fill="#000000" width="32" height="45.115"></rect></g><g><path d="M47,9.552v43.115H17V9.552H47 M49,7.552H15v47.115h34V7.552L49,7.552z"></path></g></g><g display="inline"><path d="M32,3.274c-0.828,0-1.5,0.672-1.5,1.5s0.672,1.5,1.5,1.5c0.828,0,1.5-0.672,1.5-1.5S32.828,3.274,32,3.274L32,3.274z"></path></g><g display="inline"><path d="M35.391,56.636h-6.783c-0.937,0-1.696,0.758-1.696,1.696s0.758,1.696,1.696,1.696h6.783c0.937,0,1.696-0.758,1.696-1.696 S36.329,56.636,35.391,56.636L35.391,56.636z"></path></g><g display="inline"><rect x="19.902" y="43.287" width="24.195" height="2"></rect></g><g display="inline"><rect x="22.809" y="46.649" width="18.383" height="2"></rect></g><g display="inline"><rect x="20" y="14.072" width="24" height="24"></rect></g><g display="inline"><polygon fill="#000000" points="29.293,33.061 23.534,27.026 25.27,25.37 29.256,29.547 39.012,18.863 40.784,20.482 "></polygon></g></g><g><rect x="18.902" y="43.787" width="26.195" height="1"></rect><rect x="21.809" y="47.149" width="20.383" height="1"></rect><path d="M44,14.071H20v24h24V14.071z M29.293,33.061l-5.759-6.035l1.736-1.656l3.985,4.177l9.757-10.683l1.771,1.619L29.293,33.061 z"></path><path d="M19.625,64h24.75c4.4,0,8-3.6,8-8V8c0-4.4-3.6-8-8-8h-24.75c-4.4,0-8,3.6-8,8v48C11.625,60.4,15.225,64,19.625,64z M35.391,61.034h-6.783c-0.937,0-1.696-0.758-1.696-1.696c0-0.937,0.758-1.696,1.696-1.696h6.783c0.937,0,1.696,0.758,1.696,1.696 C37.087,60.276,36.329,61.034,35.391,61.034z M32,2.272c0.828,0,1.5,0.672,1.5,1.5s-0.672,1.5-1.5,1.5c-0.828,0-1.5-0.672-1.5-1.5 S31.172,2.272,32,2.272z M14.5,7.552h35v47.115h-35V7.552z"></path></g></svg>