<?xml version="1.0" encoding="utf-8"?>
<!-- Generator: Adobe Illustrator 17.0.0, SVG Export Plug-In . SVG Version: 6.00 Build 0)  -->
<!DOCTYPE svg PUBLIC "-//W3C//DTD SVG 1.1//EN" "http://www.w3.org/Graphics/SVG/1.1/DTD/svg11.dtd">
<svg version="1.1" xmlns="http://www.w3.org/2000/svg" xmlns:xlink="http://www.w3.org/1999/xlink" x="0px" y="0px" width="64px"
	 height="64px" viewBox="0 0 64 64" enable-background="new 0 0 64 64" xml:space="preserve">
<g id="Layer_4">
</g>
<g id="Layer_3">
</g>
<g id="Layer_2">
</g>
<g id="Layer_1">
</g>
<g id="Layer_5">
	<g>
		<g>
			<path fill="#FFFFFF" d="M59.5,31.191c0-15.188-12.312-27.5-27.5-27.5S4.5,16.003,4.5,31.191c0,9.396,4.715,17.687,11.905,22.647
				h31.191C54.785,48.878,59.5,40.587,59.5,31.191z"/>
		</g>
		
			<line fill="none" stroke="#2D346A" stroke-width="1.5" stroke-linecap="round" stroke-miterlimit="10" x1="9" y1="53.838" x2="59" y2="53.838"/>
		
			<line fill="none" stroke="#FFFFFF" stroke-width="1.5" stroke-linecap="round" stroke-linejoin="round" stroke-miterlimit="10" x1="20.375" y1="57.074" x2="43.625" y2="57.074"/>
		
			<line fill="none" stroke="#FFFFFF" stroke-width="1.5" stroke-linecap="round" stroke-linejoin="round" stroke-miterlimit="10" x1="27.641" y1="60.309" x2="32.314" y2="60.309"/>
		
			<line fill="none" stroke="#FFFFFF" stroke-width="1.5" stroke-linecap="round" stroke-linejoin="round" stroke-miterlimit="10" x1="35.166" y1="60.309" x2="36.415" y2="60.309"/>
	</g>
	<g>
		
			<path fill="#E4C95C" stroke="#2D346A" stroke-width="1.5" stroke-linecap="round" stroke-linejoin="round" stroke-miterlimit="10" d="
			M12.811,51.883c0-1.08,0.875-1.955,1.955-1.955h9.072c1.08,0,1.955,0.875,1.955,1.955l0,0c0,1.08-0.875,1.955-1.955,1.955h-9.072
			C13.687,53.838,12.811,52.963,12.811,51.883L12.811,51.883z"/>
		
			<path fill="#E4C95C" stroke="#2D346A" stroke-width="1.5" stroke-linecap="round" stroke-linejoin="round" stroke-miterlimit="10" d="
			M11.618,47.972c0-1.08,0.875-1.955,1.955-1.955h9.072c1.08,0,1.955,0.875,1.955,1.955l0,0c0,1.08-0.875,1.955-1.955,1.955h-9.072
			C12.493,49.927,11.618,49.052,11.618,47.972L11.618,47.972z"/>
		
			<path fill="#E4C95C" stroke="#2D346A" stroke-width="1.5" stroke-linecap="round" stroke-linejoin="round" stroke-miterlimit="10" d="
			M12.811,44.061c0-1.08,0.875-1.955,1.955-1.955h9.072c1.08,0,1.955,0.875,1.955,1.955l0,0c0,1.08-0.875,1.955-1.955,1.955h-9.072
			C13.687,46.017,12.811,45.141,12.811,44.061L12.811,44.061z"/>
		
			<path fill="#E4C95C" stroke="#2D346A" stroke-width="1.5" stroke-linecap="round" stroke-linejoin="round" stroke-miterlimit="10" d="
			M10.424,36.24c0-1.08,0.875-1.955,1.955-1.955h9.072c1.08,0,1.955,0.875,1.955,1.955s-0.875,1.955-1.955,1.955h1.194
			c1.08,0,1.955,0.875,1.955,1.955c0,1.08-0.875,1.955-1.955,1.955h-9.072c-1.08,0-1.955-0.875-1.955-1.955
			c0-1.08,0.875-1.955,1.955-1.955h-1.194C11.299,38.195,10.424,37.32,10.424,36.24z"/>
		
			<path fill="#E4C95C" stroke="#2D346A" stroke-width="1.5" stroke-linecap="round" stroke-linejoin="round" stroke-miterlimit="10" d="
			M9.23,32.329c0-1.08,0.875-1.955,1.955-1.955h9.072c1.08,0,1.955,0.875,1.955,1.955l0,0c0,1.08-0.875,1.955-1.955,1.955h-9.072
			C10.105,34.284,9.23,33.409,9.23,32.329L9.23,32.329z"/>
		
			<path fill="#E4C95C" stroke="#2D346A" stroke-width="1.5" stroke-linecap="round" stroke-linejoin="round" stroke-miterlimit="10" d="
			M9.23,24.507c0-1.08,0.875-1.955,1.955-1.955h9.072c1.08,0,1.955,0.875,1.955,1.955c0,1.08-0.875,1.955-1.955,1.955h1.194
			c1.08,0,1.955,0.875,1.955,1.955c0,1.08-0.875,1.955-1.955,1.955h-9.072c-1.08,0-1.955-0.875-1.955-1.955
			c0-1.08,0.875-1.955,1.955-1.955h-1.194C10.105,26.463,9.23,25.587,9.23,24.507z"/>
		
			<line fill="none" stroke="#2D346A" stroke-width="1.5" stroke-linecap="round" stroke-linejoin="round" stroke-miterlimit="10" x1="20.257" y1="26.463" x2="16.156" y2="26.463"/>
		
			<line fill="none" stroke="#2D346A" stroke-width="1.5" stroke-linecap="round" stroke-linejoin="round" stroke-miterlimit="10" x1="12.379" y1="26.463" x2="13.156" y2="26.463"/>
		
			<line fill="none" stroke="#2D346A" stroke-width="1.5" stroke-linecap="round" stroke-linejoin="round" stroke-miterlimit="10" x1="13.573" y1="38.195" x2="18.451" y2="38.195"/>
		
			<path fill="#E4C95C" stroke="#2D346A" stroke-width="1.5" stroke-linecap="round" stroke-linejoin="round" stroke-miterlimit="10" d="
			M11.618,20.597c0-1.08,0.875-1.955,1.955-1.955h9.072c1.08,0,1.955,0.875,1.955,1.955l0,0c0,1.08-0.875,1.955-1.955,1.955h-9.072
			C12.493,22.552,11.618,21.676,11.618,20.597L11.618,20.597z"/>
		
			<path fill="#E4C95C" stroke="#2D346A" stroke-width="1.5" stroke-linecap="round" stroke-linejoin="round" stroke-miterlimit="10" d="
			M12.811,16.686c0-1.08,0.875-1.955,1.955-1.955h9.072c1.08,0,1.955,0.875,1.955,1.955l0,0c0,1.08-0.875,1.955-1.955,1.955h-9.072
			C13.687,18.641,12.811,17.766,12.811,16.686L12.811,16.686z"/>
	</g>
	<g>
		<path fill="#E8F3FF" d="M49.958,33.983c-1.251-6.366-7.684-11.216-15.48-11.216l-2.033,0.115
			c-0.633,0.073-1.254,0.177-1.863,0.309l0.043-0.024c-6.277-2.445-11.472-1.159-11.926-0.4c-0.454,0.759,0.794,2.505,3.359,5.156
			l0.022-0.012c-1.588,1.724-2.688,3.786-3.138,6.041l-0.008-0.032c-2.705,0.397-4.881,1.281-4.677,3.729
			c0.204,2.448,1.25,4.514,2.332,5.848c1.415,1.745,2.899,1.02,4.602,0l-0.005-0.022c1.29,1.724,3.023,3.176,5.061,4.245
			l-0.004-0.001c0.596,3.037-0.832,6.118-0.832,6.118h4.386c0,0,2.187-2.076,2.448-4.373l2.194,0.232
			c1.032,0,2.294-0.144,2.294-0.144c0.646,3.947,0,4.285,0,4.285h5.95c0,0,7.072-8.403,7.494-17.606L49.958,33.983z"/>
		
			<path fill="#E8F3FF" stroke="#2D346A" stroke-width="1.5" stroke-linecap="round" stroke-linejoin="round" stroke-miterlimit="10" d="
			M50.177,36.232"/>
		
			<path fill="#E8F3FF" stroke="#2D346A" stroke-width="1.5" stroke-linecap="round" stroke-linejoin="round" stroke-miterlimit="10" d="
			M53.546,37.105"/>
		
			<path fill="none" stroke="#2D346A" stroke-width="1.5" stroke-linecap="round" stroke-linejoin="round" stroke-miterlimit="10" d="
			M53.678,30.904c-0.14-0.966-1.281-1.159-1.871-0.725c-0.59,0.434-0.6,1.423-0.021,2.21c0.578,0.787,1.892,0.79,2.773,0.156
			c0.873-0.628,1.33-1.32,1.127-3.274"/>
		
			<path fill="none" stroke="#2D346A" stroke-width="1.5" stroke-linecap="round" stroke-linejoin="round" stroke-miterlimit="10" d="
			M52.067,32.67c-2.138,2.379-4.442,1.005-4.442,1.005"/>
		
			<path fill="none" stroke="#2D346A" stroke-width="1.5" stroke-linecap="round" stroke-linejoin="round" stroke-miterlimit="10" d="
			M34.438,49.697c1.032,0,2.294-0.144,2.294-0.144c0.646,3.947,0,4.285,0,4.285h5.95c0,0,7.072-8.403,7.494-17.606"/>
		
			<path fill="none" stroke="#2D346A" stroke-width="1.5" stroke-linecap="round" stroke-linejoin="round" stroke-miterlimit="10" d="
			M32.445,22.882c-0.633,0.073-1.254,0.177-1.863,0.309l0.043-0.024c-6.277-2.445-11.472-1.159-11.926-0.4
			c-0.454,0.759,0.794,2.505,3.359,5.156l0.022-0.012c-1.588,1.724-2.688,3.786-3.138,6.041l-0.008-0.032
			c-2.705,0.397-4.881,1.281-4.677,3.729c0.204,2.448,1.25,4.514,2.332,5.848c1.415,1.745,2.899,1.02,4.602,0l-0.005-0.022
			c1.29,1.724,3.023,3.176,5.061,4.245l-0.004-0.001c0.596,3.037-0.832,6.118-0.832,6.118h4.386c0,0,2.187-2.076,2.448-4.373"/>
		
			<path fill="none" stroke="#2D346A" stroke-width="1.5" stroke-linecap="round" stroke-linejoin="round" stroke-miterlimit="10" d="
			M49.958,33.983c-1.251-6.366-7.684-11.216-15.48-11.216"/>
		<circle fill="#2D346A" cx="24.743" cy="32.185" r="1.224"/>
		<g>
			<circle fill="#E4C95C" cx="39.403" cy="21.883" r="5.004"/>
			<circle fill="#FFFFFF" cx="39.403" cy="21.883" r="3.004"/>
			
				<path fill="none" stroke="#2D346A" stroke-width="1.5" stroke-linecap="round" stroke-linejoin="round" stroke-miterlimit="10" d="
				M41.82,26.266c2.42-1.334,3.301-4.378,1.966-6.799s-4.378-3.301-6.799-1.966s-3.301,4.378-1.966,6.799"/>
			
				<path fill="none" stroke="#2D346A" stroke-width="1.5" stroke-linecap="round" stroke-linejoin="round" stroke-miterlimit="10" d="
				M43.327,29.457c-3.32-2.648-7.399-3.7-11.311-3.26"/>
		</g>
	</g>
	<g>
		
			<circle fill="#E4C95C" stroke="#2D346A" stroke-width="1.5" stroke-linecap="round" stroke-linejoin="round" stroke-miterlimit="10" cx="51.337" cy="47.175" r="6.663"/>
		<circle fill="#FFFFFF" cx="51.337" cy="47.175" r="4"/>
	</g>
	<path fill="#E4C95C" d="M32.045,12.303c-0.002-0.201-0.071-1.202-1.2-1.202c-0.002,0-0.002,0-0.003,0c-0.002,0-0.003,0-0.005,0h0
		c-0.001,0-0.001,0-0.001,0h-0.001c0,0-0.001,0-0.002,0c-0.215-0.006-0.388-0.183-0.388-0.4c0-0.22,0.178-0.399,0.398-0.4
		c0.201-0.002,1.202-0.071,1.202-1.2c0-0.221,0.179-0.4,0.4-0.4c0.221,0,0.4,0.179,0.4,0.4c0,1.129,1.001,1.198,1.202,1.2
		c0.22,0.001,0.398,0.18,0.398,0.4c0,0.221-0.179,0.4-0.4,0.4c-1.129,0-1.198,1.002-1.2,1.2c0,0.002,0,0.002,0,0.002
		c0,0.003-0.001,0.006,0,0.006v0.001v0.001c0,0,0,0.001,0,0.002c-0.006,0.215-0.183,0.388-0.4,0.388
		C32.224,12.701,32.046,12.523,32.045,12.303z"/>
	<path fill="#FFFFFF" d="M62.8,41.421c-0.001-0.101-0.036-0.601-0.6-0.601h-0.001h-0.002h0h-0.001h-0.001h0
		C62.087,40.817,62,40.728,62,40.62c0-0.11,0.089-0.199,0.199-0.2c0.101-0.001,0.601-0.036,0.601-0.6c0-0.111,0.089-0.2,0.2-0.2
		s0.2,0.089,0.2,0.2c0,0.564,0.5,0.599,0.601,0.6C63.911,40.42,64,40.51,64,40.62c0,0.111-0.089,0.2-0.2,0.2
		c-0.565,0-0.599,0.501-0.6,0.6v0.001c0,0.001-0.001,0.003-0.001,0.003c0.001,0,0.001,0,0.001,0v0.001v0.001
		c-0.003,0.108-0.091,0.194-0.2,0.194C62.89,41.62,62.801,41.531,62.8,41.421z"/>
	<path fill="#FFFFFF" d="M6.3,14.224c-0.001-0.101-0.036-0.601-0.6-0.601H5.699H5.696h0H5.696H5.695h0
		C5.587,13.62,5.5,13.531,5.5,13.423c0-0.11,0.089-0.199,0.199-0.2C5.8,13.222,6.3,13.187,6.3,12.623c0-0.111,0.089-0.2,0.2-0.2
		c0.111,0,0.2,0.089,0.2,0.2c0,0.564,0.5,0.599,0.601,0.6c0.11,0.001,0.199,0.09,0.199,0.2c0,0.111-0.089,0.2-0.2,0.2
		c-0.565,0-0.599,0.501-0.6,0.6c0,0.001,0,0.001,0,0.001c0,0.001-0.001,0.003-0.001,0.003c0.001,0,0.001,0,0.001,0v0.001v0.001
		c-0.003,0.108-0.091,0.194-0.2,0.194C6.39,14.423,6.301,14.334,6.3,14.224z"/>
	<path fill="#FFFFFF" d="M59.8,16.809c-0.001-0.101-0.036-0.601-0.6-0.601h-0.001h-0.002h0h-0.001h-0.001h0
		C59.087,16.205,59,16.117,59,16.008c0-0.11,0.089-0.199,0.199-0.2c0.101-0.001,0.601-0.036,0.601-0.6c0-0.111,0.089-0.2,0.2-0.2
		s0.2,0.089,0.2,0.2c0,0.564,0.5,0.599,0.601,0.6c0.11,0.001,0.199,0.09,0.199,0.2c0,0.111-0.089,0.2-0.2,0.2
		c-0.565,0-0.599,0.501-0.6,0.6c0,0.001,0,0.001,0,0.001c0,0.001-0.001,0.003-0.001,0.003c0.001,0,0.001,0,0.001,0v0.001v0.001
		c-0.003,0.108-0.091,0.194-0.2,0.194C59.89,17.008,59.801,16.919,59.8,16.809z"/>
	<path fill="#FFFFFF" d="M1.6,45.626c-0.002-0.201-0.071-1.202-1.2-1.202c-0.002,0-0.002,0-0.003,0c-0.002,0-0.003,0-0.005,0h0
		c-0.001,0-0.001,0-0.001,0H0.39c0,0-0.001,0-0.002,0C0.173,44.418,0,44.241,0,44.024c0-0.22,0.178-0.399,0.398-0.4
		c0.201-0.002,1.202-0.071,1.202-1.2c0-0.221,0.179-0.4,0.4-0.4s0.4,0.179,0.4,0.4c0,1.129,1.001,1.198,1.202,1.2
		C3.822,43.625,4,43.804,4,44.024c0,0.221-0.179,0.4-0.4,0.4c-1.129,0-1.198,1.002-1.2,1.2c0,0.002,0,0.002,0,0.002
		c0,0.003-0.001,0.006,0,0.006v0.001v0.001c0,0,0,0.001,0,0.002c-0.006,0.215-0.183,0.388-0.4,0.388
		C1.78,46.024,1.601,45.846,1.6,45.626z"/>
</g>
</svg>
