<?xml version="1.0" encoding="utf-8"?>
<!-- Generator: Adobe Illustrator 17.0.0, SVG Export Plug-In . SVG Version: 6.00 Build 0)  -->
<!DOCTYPE svg PUBLIC "-//W3C//DTD SVG 1.1//EN" "http://www.w3.org/Graphics/SVG/1.1/DTD/svg11.dtd">
<svg version="1.1" xmlns="http://www.w3.org/2000/svg" xmlns:xlink="http://www.w3.org/1999/xlink" x="0px" y="0px" width="64px"
	 height="64px" viewBox="0 0 64 64" enable-background="new 0 0 64 64" xml:space="preserve">
<g id="Layer_4">
</g>
<g id="Layer_3">
</g>
<g id="Layer_2">
</g>
<g id="Layer_1">
</g>
<g id="Layer_5">
	<g>
		<g>
			<path fill="#FFFFFF" d="M59.5,31.191c0-15.188-12.312-27.5-27.5-27.5S4.5,16.003,4.5,31.191c0,9.396,4.715,17.687,11.905,22.647
				h31.191C54.785,48.878,59.5,40.587,59.5,31.191z"/>
		</g>
		
			<line fill="none" stroke="#2D346A" stroke-width="1.5" stroke-linecap="round" stroke-miterlimit="10" x1="8.206" y1="53.838" x2="55.794" y2="53.838"/>
		
			<line fill="none" stroke="#FFFFFF" stroke-width="1.5" stroke-linecap="round" stroke-linejoin="round" stroke-miterlimit="10" x1="20.375" y1="57.074" x2="43.625" y2="57.074"/>
		
			<line fill="none" stroke="#FFFFFF" stroke-width="1.5" stroke-linecap="round" stroke-linejoin="round" stroke-miterlimit="10" x1="27.641" y1="60.309" x2="32.314" y2="60.309"/>
		
			<line fill="none" stroke="#FFFFFF" stroke-width="1.5" stroke-linecap="round" stroke-linejoin="round" stroke-miterlimit="10" x1="35.166" y1="60.309" x2="36.415" y2="60.309"/>
	</g>
	<g>
		<path fill="#E8F3FF" d="M11.249,37.067v13.768c0,1.657,1.343,3,3,3h36.129c1.657,0,3-1.343,3-3V37.067"/>
		<path fill="#FFFFFF" d="M10.249,22.333v12.502c0,1.657,1.343,3,3,3h4.064h34.064c1.657,0,3-1.343,3-3V22.333H10.249z"/>
		<rect x="17.314" y="34.835" fill="#E4C95C" width="6" height="6"/>
		<rect x="41.313" y="34.835" fill="#E4C95C" width="6" height="6"/>
		<g>
			<path fill="#E4C95C" d="M40.289,17.272c0-1.107-0.895-2.005-2-2.005H26.339c-1.105,0-2,0.898-2,2.005l0,0
				c0,1.107,0.895,2.005,2,2.005h11.949C39.393,19.277,40.289,18.379,40.289,17.272L40.289,17.272z"/>
		</g>
		<rect x="17.314" y="34.835" fill="#FFFFFF" width="6" height="2.999"/>
		<rect x="41.313" y="34.835" fill="#FFFFFF" width="6" height="2.999"/>
		<rect x="18.314" y="22.333" fill="#C3CCE9" width="4" height="12.502"/>
		<rect x="42.313" y="22.333" fill="#C3CCE9" width="4" height="12.502"/>
	</g>
	<g>
		<path fill="none" stroke="#2D346A" stroke-width="1.5" stroke-miterlimit="10" d="M11.249,37.067v13.768c0,1.657,1.343,3,3,3
			h36.129c1.657,0,3-1.343,3-3V37.067"/>
		
			<path fill="none" stroke="#2D346A" stroke-width="1.5" stroke-linecap="round" stroke-linejoin="round" stroke-miterlimit="10" d="
			M10.249,22.333v12.502c0,1.657,1.343,3,3,3h4.064h34.064c1.657,0,3-1.343,3-3V22.333H10.249z"/>
		
			<line fill="none" stroke="#2D346A" stroke-width="1.5" stroke-linecap="round" stroke-linejoin="round" stroke-miterlimit="10" x1="18.314" y1="22.333" x2="18.314" y2="34.835"/>
		
			<line fill="none" stroke="#2D346A" stroke-width="1.5" stroke-linecap="round" stroke-linejoin="round" stroke-miterlimit="10" x1="22.314" y1="34.835" x2="22.314" y2="22.333"/>
		
			<rect x="17.314" y="34.835" fill="none" stroke="#2D346A" stroke-width="1.5" stroke-linecap="round" stroke-linejoin="round" stroke-miterlimit="10" width="6" height="6"/>
		
			<line fill="none" stroke="#2D346A" stroke-width="1.5" stroke-linecap="round" stroke-linejoin="round" stroke-miterlimit="10" x1="42.312" y1="22.333" x2="42.312" y2="34.835"/>
		
			<line fill="none" stroke="#2D346A" stroke-width="1.5" stroke-linecap="round" stroke-linejoin="round" stroke-miterlimit="10" x1="46.312" y1="34.835" x2="46.312" y2="22.333"/>
		
			<rect x="41.313" y="34.835" fill="none" stroke="#2D346A" stroke-width="1.5" stroke-linecap="round" stroke-linejoin="round" stroke-miterlimit="10" width="6" height="6"/>
		<g>
			
				<path fill="none" stroke="#2D346A" stroke-width="1.5" stroke-linecap="round" stroke-linejoin="round" stroke-miterlimit="10" d="
				M40.289,17.272c0-1.107-0.895-2.005-2-2.005H26.339c-1.105,0-2,0.898-2,2.005l0,0c0,1.107,0.895,2.005,2,2.005h11.949
				C39.393,19.277,40.289,18.379,40.289,17.272L40.289,17.272z"/>
			
				<path fill="none" stroke="#2D346A" stroke-width="1.5" stroke-linecap="round" stroke-linejoin="round" stroke-miterlimit="10" d="
				M24.339,17.272h-1.03c-1.657,0-3,1.343-3,3v2.061"/>
			
				<path fill="none" stroke="#2D346A" stroke-width="1.5" stroke-linecap="round" stroke-linejoin="round" stroke-miterlimit="10" d="
				M40.298,17.272h1.03c1.657,0,3,1.343,3,3v2.061"/>
		</g>
	</g>
	<path fill="#FFFFFF" d="M62.4,45.125c0.002-0.201,0.071-1.202,1.2-1.202c0.002,0,0.002,0,0.003,0c0.002,0,0.003,0,0.005,0h0
		c0.001,0,0.001,0,0.001,0h0.001c0,0,0.001,0,0.002,0C63.827,43.917,64,43.74,64,43.523c0-0.22-0.178-0.399-0.398-0.4
		c-0.201-0.002-1.202-0.071-1.202-1.2c0-0.221-0.179-0.4-0.4-0.4c-0.221,0-0.4,0.179-0.4,0.4c0,1.129-1.001,1.198-1.202,1.2
		c-0.22,0.001-0.398,0.18-0.398,0.4c0,0.221,0.179,0.4,0.4,0.4c1.129,0,1.198,1.002,1.2,1.2c0,0.002,0,0.002,0,0.002
		c0,0.003,0.001,0.006,0,0.006v0.001v0.001c0,0,0,0.001,0,0.002c0.006,0.215,0.183,0.388,0.4,0.388
		C62.22,45.523,62.399,45.345,62.4,45.125z"/>
	<path fill="#FFFFFF" d="M1.2,39.347c0.001-0.101,0.036-0.601,0.6-0.601h0.001h0.002h0h0.001h0.001h0
		C1.913,38.743,2,38.655,2,38.546c0-0.11-0.089-0.199-0.199-0.2C1.7,38.345,1.2,38.31,1.2,37.746c0-0.111-0.089-0.2-0.2-0.2
		s-0.2,0.089-0.2,0.2c0,0.564-0.5,0.599-0.601,0.6C0.089,38.347,0,38.436,0,38.546c0,0.111,0.089,0.2,0.2,0.2
		c0.565,0,0.599,0.501,0.6,0.6c0,0.001,0,0.001,0,0.001c0,0.001,0.001,0.003,0.001,0.003c-0.001,0-0.001,0-0.001,0v0.001v0.001
		c0.003,0.108,0.091,0.194,0.2,0.194C1.11,39.546,1.199,39.457,1.2,39.347z"/>
	<path fill="#E4C95C" d="M35.39,10.701c-0.002-0.201-0.071-1.202-1.2-1.202c-0.002,0-0.002,0-0.002,0c-0.002,0-0.004,0-0.005,0h0
		c-0.001,0-0.001,0-0.001,0s-0.001,0-0.001,0c0,0-0.001,0-0.002,0c-0.215-0.006-0.388-0.183-0.388-0.4c0-0.22,0.178-0.399,0.398-0.4
		c0.201-0.002,1.202-0.071,1.202-1.2c0-0.221,0.179-0.4,0.4-0.4c0.221,0,0.4,0.179,0.4,0.4c0,1.129,1.001,1.198,1.202,1.2
		c0.22,0.001,0.398,0.18,0.398,0.4c0,0.221-0.179,0.4-0.4,0.4c-1.129,0-1.198,1.002-1.2,1.2c0,0.002,0,0.002,0,0.002
		c0,0.003-0.001,0.006,0,0.006v0.001v0.001c0,0.001,0,0.001,0,0.001c-0.006,0.216-0.183,0.389-0.4,0.389
		C35.57,11.099,35.392,10.921,35.39,10.701z"/>
	<path fill="#FFFFFF" d="M6.101,12.701c0.002-0.201,0.071-1.202,1.2-1.202c0.002,0,0.002,0,0.003,0c0.002,0,0.003,0,0.005,0h0
		c0.001,0,0.001,0,0.001,0s0.001,0,0.001,0c0,0,0.001,0,0.002,0c0.215-0.006,0.388-0.183,0.388-0.4c0-0.22-0.178-0.399-0.398-0.4
		c-0.201-0.002-1.202-0.071-1.202-1.2c0-0.221-0.179-0.4-0.4-0.4c-0.221,0-0.4,0.179-0.4,0.4c0,1.129-1.001,1.198-1.202,1.2
		c-0.22,0.001-0.398,0.18-0.398,0.4c0,0.221,0.179,0.4,0.4,0.4c1.129,0,1.198,1.002,1.2,1.2c0,0.002,0,0.002,0,0.002
		c0,0.003,0.001,0.006,0,0.006v0.001c0,0,0,0.001,0,0.001v0.002c0.006,0.215,0.183,0.388,0.4,0.388
		C5.922,13.099,6.1,12.921,6.101,12.701z"/>
	<path fill="#E4C95C" d="M14.333,18.073c-0.001-0.101-0.036-0.601-0.6-0.601h-0.001H13.73h0h-0.001h-0.001h0
		c-0.108-0.003-0.195-0.091-0.195-0.2c0-0.11,0.089-0.199,0.199-0.2c0.101-0.001,0.601-0.036,0.601-0.6c0-0.111,0.089-0.2,0.2-0.2
		c0.111,0,0.2,0.089,0.2,0.2c0,0.564,0.5,0.599,0.601,0.6c0.11,0.001,0.199,0.09,0.199,0.2c0,0.111-0.089,0.2-0.2,0.2
		c-0.565,0-0.599,0.501-0.6,0.6c0,0.001,0,0.001,0,0.001c0,0.001-0.001,0.003-0.001,0.003l0.001,0v0.001v0.001
		c-0.003,0.108-0.091,0.194-0.2,0.194C14.423,18.272,14.334,18.183,14.333,18.073z"/>
	<path fill="#FFFFFF" d="M58.2,11.301c0.001-0.101,0.036-0.601,0.6-0.601h0.001h0.002h0h0.001h0.001h0
		C58.913,10.697,59,10.609,59,10.5c0-0.11-0.089-0.199-0.199-0.2C58.7,10.299,58.2,10.264,58.2,9.7c0-0.111-0.089-0.2-0.2-0.2
		c-0.111,0-0.2,0.089-0.2,0.2c0,0.564-0.5,0.599-0.601,0.6C57.089,10.301,57,10.39,57,10.5c0,0.111,0.089,0.2,0.2,0.2
		c0.565,0,0.599,0.501,0.6,0.6c0,0.001,0,0.001,0,0.001c0,0.001,0.001,0.003,0.001,0.003c-0.001,0-0.001,0-0.001,0v0.001v0.001
		c0.003,0.108,0.091,0.194,0.2,0.194C58.11,11.5,58.199,11.411,58.2,11.301z"/>
</g>
</svg>
