<?xml version="1.0" encoding="utf-8"?>
<!-- Generator: Adobe Illustrator 17.0.0, SVG Export Plug-In . SVG Version: 6.00 Build 0)  -->
<!DOCTYPE svg PUBLIC "-//W3C//DTD SVG 1.1//EN" "http://www.w3.org/Graphics/SVG/1.1/DTD/svg11.dtd">
<svg version="1.1" xmlns="http://www.w3.org/2000/svg" xmlns:xlink="http://www.w3.org/1999/xlink" x="0px" y="0px" width="64px"
	 height="64px" viewBox="0 0 64 64" enable-background="new 0 0 64 64" xml:space="preserve">
<g id="Layer_4">
</g>
<g id="Layer_3">
</g>
<g id="Layer_2">
</g>
<g id="Layer_1">
</g>
<g id="Layer_5">
	<g>
		<g>
			<path fill="#FFFFFF" d="M59.5,31.191c0-15.188-12.312-27.5-27.5-27.5S4.5,16.003,4.5,31.191c0,9.396,4.715,17.687,11.905,22.647
				h31.191C54.785,48.878,59.5,40.587,59.5,31.191z"/>
		</g>
		
			<line fill="none" stroke="#FFFFFF" stroke-width="1.5" stroke-linecap="round" stroke-linejoin="round" stroke-miterlimit="10" x1="20.375" y1="57.074" x2="43.625" y2="57.074"/>
		
			<line fill="none" stroke="#FFFFFF" stroke-width="1.5" stroke-linecap="round" stroke-linejoin="round" stroke-miterlimit="10" x1="27.641" y1="60.309" x2="32.314" y2="60.309"/>
		
			<line fill="none" stroke="#FFFFFF" stroke-width="1.5" stroke-linecap="round" stroke-linejoin="round" stroke-miterlimit="10" x1="35.166" y1="60.309" x2="36.415" y2="60.309"/>
	</g>
	<g>
		<polygon fill="#FFFFFF" points="18.308,9.654 18.308,24.32 18.308,30.148 27.552,38.985 36.448,38.985 45.692,30.148 
			45.692,24.32 45.692,9.654 		"/>
		<polygon fill="#C3CCE9" points="51.788,24.32 45.692,24.32 45.692,30.148 		"/>
		<polygon fill="#FFFFFF" points="18.308,30.148 18.308,30.148 18.308,30.148 12.212,24.32 12.212,53.651 27.552,38.985 		"/>
		<polygon fill="#FFFFFF" points="45.692,30.148 45.692,30.148 45.692,30.148 36.448,38.985 51.788,53.651 51.788,24.32 		"/>
		<polygon fill="#C3CCE9" points="18.308,24.32 12.212,24.32 18.308,30.148 		"/>
		<polygon fill="#E8F3FF" points="27.552,38.985 12.212,53.651 51.788,53.651 36.448,38.985 		"/>
		
			<line fill="none" stroke="#E4C95C" stroke-width="1.5" stroke-linecap="round" stroke-linejoin="round" stroke-miterlimit="10" x1="23" y1="14.654" x2="29" y2="14.654"/>
		
			<line fill="none" stroke="#C3CCE9" stroke-width="1.5" stroke-linecap="round" stroke-linejoin="round" stroke-miterlimit="10" x1="23" y1="19.654" x2="30.167" y2="19.654"/>
		
			<line fill="none" stroke="#C3CCE9" stroke-width="1.5" stroke-linecap="round" stroke-linejoin="round" stroke-miterlimit="10" x1="23" y1="23.654" x2="30.167" y2="23.654"/>
		
			<line fill="none" stroke="#C3CCE9" stroke-width="1.5" stroke-linecap="round" stroke-linejoin="round" stroke-miterlimit="10" x1="23" y1="27.654" x2="41" y2="27.654"/>
		
			<line fill="none" stroke="#C3CCE9" stroke-width="1.5" stroke-linecap="round" stroke-linejoin="round" stroke-miterlimit="10" x1="38" y1="31.654" x2="39" y2="31.654"/>
		
			<line fill="none" stroke="#C3CCE9" stroke-width="1.5" stroke-linecap="round" stroke-linejoin="round" stroke-miterlimit="10" x1="25" y1="31.654" x2="35" y2="31.654"/>
		<g>
			
				<circle fill="none" stroke="#E4C95C" stroke-linecap="round" stroke-linejoin="round" stroke-miterlimit="10" cx="19.674" cy="46.549" r="4.117"/>
			<path fill="none" stroke="#E4C95C" stroke-linecap="round" stroke-linejoin="round" stroke-miterlimit="10" d="M29.677,43.899
				c-1.025,1.025-2.686,1.025-3.711,0c-0.924-0.924-2.367-1.015-3.393-0.271"/>
			<path fill="none" stroke="#E4C95C" stroke-linecap="round" stroke-linejoin="round" stroke-miterlimit="10" d="M29.677,46.549
				c-1.025,1.025-2.686,1.025-3.711,0c-0.611-0.611-1.449-0.858-2.244-0.74"/>
			<path fill="none" stroke="#E4C95C" stroke-linecap="round" stroke-linejoin="round" stroke-miterlimit="10" d="M29.677,49.2
				c-1.025,1.025-2.686,1.025-3.711,0c-0.733-0.733-1.792-0.942-2.71-0.626"/>
		</g>
		
			<rect x="33.167" y="19.654" fill="none" stroke="#E8F3FF" stroke-width="1.5" stroke-linecap="round" stroke-linejoin="round" stroke-miterlimit="10" width="7.833" height="4"/>
	</g>
	<g>
		
			<line fill="none" stroke="#2D346A" stroke-width="1.5" stroke-linecap="round" stroke-linejoin="round" stroke-miterlimit="10" x1="51.788" y1="53.651" x2="51.788" y2="24.32"/>
		
			<line fill="none" stroke="#2D346A" stroke-width="1.5" stroke-linecap="round" stroke-linejoin="round" stroke-miterlimit="10" x1="12.212" y1="24.32" x2="12.212" y2="53.651"/>
		<polyline fill="none" stroke="#2D346A" stroke-width="1.5" stroke-linejoin="round" stroke-miterlimit="10" points="
			12.212,53.651 27.552,38.985 12.212,24.32 18.308,24.32 		"/>
		
			<polyline fill="none" stroke="#2D346A" stroke-width="1.5" stroke-linecap="round" stroke-linejoin="round" stroke-miterlimit="10" points="
			42.037,44.328 36.448,38.985 51.788,24.32 45.692,24.32 		"/>
		<path fill="none" stroke="#2D346A" stroke-width="1.5" stroke-linejoin="round" stroke-miterlimit="10" d="M42.037,44.328"/>
		<path fill="none" stroke="#2D346A" stroke-width="1.5" stroke-linejoin="round" stroke-miterlimit="10" d="M44.915,47.079"/>
		
			<line fill="none" stroke="#2D346A" stroke-width="1.5" stroke-linecap="round" stroke-linejoin="round" stroke-miterlimit="10" x1="51.788" y1="53.651" x2="44.915" y2="47.079"/>
		
			<line fill="none" stroke="#2D346A" stroke-width="1.5" stroke-linejoin="round" stroke-miterlimit="10" x1="27.552" y1="38.985" x2="36.448" y2="38.985"/>
		
			<polyline fill="none" stroke="#2D346A" stroke-width="1.5" stroke-linecap="round" stroke-linejoin="round" stroke-miterlimit="10" points="
			42.875,9.654 45.692,9.654 45.692,30.148 		"/>
		
			<polyline fill="none" stroke="#2D346A" stroke-width="1.5" stroke-linecap="round" stroke-linejoin="round" stroke-miterlimit="10" points="
			18.308,30.148 18.308,9.654 39.875,9.654 		"/>
	</g>
	
		<line fill="none" stroke="#2D346A" stroke-width="1.5" stroke-linecap="round" stroke-miterlimit="10" x1="10.206" y1="53.838" x2="53.794" y2="53.838"/>
	<path fill="#FFFFFF" d="M1.6,15.898C1.598,16.099,1.529,17.1,0.4,17.1c-0.002,0-0.002,0-0.003,0c-0.002,0-0.003,0-0.005,0h0
		c-0.001,0-0.001,0-0.001,0H0.39c0,0-0.001,0-0.002,0C0.173,17.106,0,17.283,0,17.5c0,0.22,0.178,0.399,0.398,0.4
		C0.599,17.902,1.6,17.971,1.6,19.1c0,0.221,0.179,0.4,0.4,0.4s0.4-0.179,0.4-0.4c0-1.129,1.001-1.198,1.202-1.2
		C3.822,17.899,4,17.72,4,17.5c0-0.221-0.179-0.4-0.4-0.4c-1.129,0-1.198-1.002-1.2-1.2c0-0.002,0-0.002,0-0.002
		c0-0.003-0.001-0.006,0-0.006v-0.001V15.89c0,0,0-0.001,0-0.002C2.394,15.673,2.217,15.5,2,15.5C1.78,15.5,1.601,15.678,1.6,15.898
		z"/>
	<path fill="#FFFFFF" d="M62.8,37.077c-0.001,0.101-0.036,0.601-0.6,0.601h-0.001h-0.002h0h-0.001h-0.001h0
		C62.087,37.681,62,37.769,62,37.878c0,0.11,0.089,0.199,0.199,0.2c0.101,0.001,0.601,0.036,0.601,0.6c0,0.111,0.089,0.2,0.2,0.2
		s0.2-0.089,0.2-0.2c0-0.564,0.5-0.599,0.601-0.6c0.11-0.001,0.199-0.09,0.199-0.2c0-0.111-0.089-0.2-0.2-0.2
		c-0.565,0-0.599-0.501-0.6-0.6v-0.001c0-0.001-0.001-0.003-0.001-0.003c0.001,0,0.001,0,0.001,0v-0.001v-0.001
		c-0.003-0.108-0.091-0.194-0.2-0.194C62.89,36.878,62.801,36.967,62.8,37.077z"/>
	<path fill="#E4C95C" d="M55.8,25.868c-0.001,0.101-0.036,0.601-0.6,0.601h-0.001h-0.002h0h-0.001h-0.001h0
		C55.087,26.472,55,26.561,55,26.669c0,0.11,0.089,0.199,0.199,0.2c0.101,0.001,0.601,0.036,0.601,0.6c0,0.111,0.089,0.2,0.2,0.2
		s0.2-0.089,0.2-0.2c0-0.564,0.5-0.599,0.601-0.6c0.11-0.001,0.199-0.09,0.199-0.2c0-0.111-0.089-0.2-0.2-0.2
		c-0.565,0-0.599-0.501-0.6-0.6v-0.001c0-0.001-0.001-0.003-0.001-0.003c0.001,0,0.001,0,0.001,0v-0.001v-0.001
		c-0.003-0.108-0.091-0.194-0.2-0.194C55.89,25.669,55.801,25.758,55.8,25.868z"/>
	<path fill="#FFFFFF" d="M3.3,44.676c-0.001,0.101-0.036,0.601-0.6,0.601c-0.001,0-0.001,0-0.001,0c-0.001,0-0.002,0-0.003,0h0
		H2.695H2.695c0,0,0,0-0.001,0C2.587,45.28,2.5,45.368,2.5,45.477c0,0.11,0.089,0.199,0.199,0.2C2.8,45.678,3.3,45.712,3.3,46.277
		c0,0.111,0.089,0.2,0.2,0.2c0.111,0,0.2-0.089,0.2-0.2c0-0.564,0.5-0.599,0.601-0.6c0.11-0.001,0.199-0.09,0.199-0.2
		c0-0.111-0.089-0.2-0.2-0.2c-0.565,0-0.599-0.501-0.6-0.6c0-0.001,0-0.001,0-0.001c0-0.001-0.001-0.003,0-0.003v-0.001v0v-0.001
		c-0.003-0.108-0.091-0.194-0.2-0.194C3.39,44.477,3.301,44.566,3.3,44.676z"/>
	<path fill="#E4C95C" d="M13.401,15.699C13.4,15.8,13.365,16.3,12.801,16.3c-0.001,0-0.001,0-0.001,0c-0.001,0-0.002,0-0.003,0h0
		h-0.001h-0.001c0,0,0,0-0.001,0c-0.108,0.003-0.194,0.091-0.194,0.2c0,0.11,0.089,0.199,0.199,0.2
		c0.101,0.001,0.601,0.036,0.601,0.6c0,0.111,0.089,0.2,0.2,0.2s0.2-0.089,0.2-0.2c0-0.564,0.5-0.599,0.601-0.6
		c0.11-0.001,0.199-0.09,0.199-0.2c0-0.111-0.089-0.2-0.2-0.2c-0.565,0-0.599-0.501-0.6-0.6c0-0.001,0-0.001,0-0.001
		c0-0.001-0.001-0.003,0-0.003v-0.001v0v-0.001c-0.003-0.108-0.091-0.194-0.2-0.194C13.491,15.5,13.402,15.589,13.401,15.699z"/>
	<path fill="#FFFFFF" d="M59.1,8.99c-0.002,0.201-0.071,1.202-1.2,1.202c-0.002,0-0.002,0-0.002,0c-0.002,0-0.004,0-0.005,0h0
		c-0.001,0-0.001,0-0.001,0H57.89c0,0-0.001,0-0.002,0c-0.215,0.006-0.388,0.183-0.388,0.4c0,0.22,0.178,0.399,0.398,0.4
		c0.201,0.002,1.202,0.071,1.202,1.2c0,0.221,0.179,0.4,0.4,0.4c0.221,0,0.4-0.179,0.4-0.4c0-1.129,1.001-1.198,1.202-1.2
		c0.22-0.001,0.398-0.18,0.398-0.4c0-0.221-0.179-0.4-0.4-0.4c-1.129,0-1.198-1.002-1.2-1.2c0-0.002,0-0.002,0-0.003
		c0-0.002-0.001-0.005,0-0.005c0-0.001,0-0.001,0-0.001V8.982c0,0,0-0.001,0-0.002c-0.006-0.215-0.183-0.388-0.4-0.388
		C59.28,8.592,59.101,8.77,59.1,8.99z"/>
</g>
</svg>
