<?xml version="1.0" encoding="utf-8"?>
<!-- Generator: Adobe Illustrator 17.0.0, SVG Export Plug-In . SVG Version: 6.00 Build 0)  -->
<!DOCTYPE svg PUBLIC "-//W3C//DTD SVG 1.1//EN" "http://www.w3.org/Graphics/SVG/1.1/DTD/svg11.dtd">
<svg version="1.1" xmlns="http://www.w3.org/2000/svg" xmlns:xlink="http://www.w3.org/1999/xlink" x="0px" y="0px" width="64px"
	 height="64px" viewBox="0 0 64 64" enable-background="new 0 0 64 64" xml:space="preserve">
<g id="Layer_4">
</g>
<g id="Layer_3">
</g>
<g id="Layer_2">
</g>
<g id="Layer_1">
</g>
<g id="Layer_5">
	<g>
		<g>
			<path fill="#FFFFFF" d="M59.5,31.191c0-15.188-12.312-27.5-27.5-27.5S4.5,16.003,4.5,31.191c0,9.396,4.715,17.687,11.905,22.647
				h31.191C54.785,48.878,59.5,40.587,59.5,31.191z"/>
		</g>
		
			<line fill="none" stroke="#2D346A" stroke-width="1.5" stroke-linecap="round" stroke-miterlimit="10" x1="12.206" y1="53.838" x2="51.794" y2="53.838"/>
		
			<line fill="none" stroke="#FFFFFF" stroke-width="1.5" stroke-linecap="round" stroke-linejoin="round" stroke-miterlimit="10" x1="20.375" y1="57.074" x2="43.625" y2="57.074"/>
		
			<line fill="none" stroke="#FFFFFF" stroke-width="1.5" stroke-linecap="round" stroke-linejoin="round" stroke-miterlimit="10" x1="27.641" y1="60.309" x2="32.314" y2="60.309"/>
		
			<line fill="none" stroke="#FFFFFF" stroke-width="1.5" stroke-linecap="round" stroke-linejoin="round" stroke-miterlimit="10" x1="35.166" y1="60.309" x2="36.415" y2="60.309"/>
	</g>
	<g>
		<g>
			<path fill="#E8F3FF" d="M43.115,11.179c0-1.82-1.475-3.295-3.295-3.295H16.891c-1.82,0-3.295,1.475-3.295,3.295v39.364
				c0,1.82,1.475,3.295,3.295,3.295H39.82c1.82,0,3.295-1.475,3.295-3.295V11.179z"/>
			<rect x="16.891" y="11.179" fill="#E4C95C" width="22.929" height="7.878"/>
			
				<line fill="none" stroke="#C3CCE9" stroke-width="1.5" stroke-linecap="round" stroke-linejoin="round" stroke-miterlimit="10" x1="16.891" y1="22.737" x2="39.82" y2="22.737"/>
			<rect x="16.891" y="26.417" fill="#C3CCE9" width="5.355" height="5.681"/>
			<rect x="34.465" y="26.417" fill="#C3CCE9" width="5.355" height="5.681"/>
			<rect x="25.678" y="26.417" fill="#C3CCE9" width="5.355" height="5.681"/>
			<rect x="16.891" y="35.32" fill="#C3CCE9" width="5.355" height="5.681"/>
			<rect x="34.465" y="35.32" fill="#C3CCE9" width="5.355" height="5.681"/>
			<rect x="25.678" y="35.32" fill="#C3CCE9" width="5.355" height="5.681"/>
			<rect x="16.891" y="44.107" fill="#C3CCE9" width="5.355" height="5.681"/>
			<rect x="25.678" y="44.107" fill="#E4C95C" width="14.142" height="5.681"/>
			<g>
				<path fill="none" stroke="#2D346A" stroke-width="1.5" stroke-linecap="round" stroke-miterlimit="10" d="M13.596,31.875v18.668
					c0,1.82,1.475,3.295,3.295,3.295H39.82c1.82,0,3.295-1.475,3.295-3.295V11.179c0-1.82-1.475-3.295-3.295-3.295"/>
				<path fill="none" stroke="#2D346A" stroke-width="1.5" stroke-linecap="round" stroke-miterlimit="10" d="M36.82,7.884H16.891
					c-1.82,0-3.295,1.475-3.295,3.295v17.696"/>
				
					<polyline fill="none" stroke="#2D346A" stroke-width="1.5" stroke-linecap="round" stroke-linejoin="round" stroke-miterlimit="10" points="
					21.25,19.056 16.891,19.056 16.891,11.179 39.82,11.179 39.82,19.056 24.25,19.056 				"/>
				
					<line fill="none" stroke="#C3CCE9" stroke-width="1.5" stroke-linecap="round" stroke-linejoin="round" stroke-miterlimit="10" x1="16.891" y1="22.737" x2="39.82" y2="22.737"/>
				
					<rect x="16.891" y="26.417" fill="none" stroke="#2D346A" stroke-width="1.5" stroke-linecap="round" stroke-linejoin="round" stroke-miterlimit="10" width="5.355" height="5.681"/>
				
					<rect x="34.465" y="26.417" fill="none" stroke="#2D346A" stroke-width="1.5" stroke-linecap="round" stroke-linejoin="round" stroke-miterlimit="10" width="5.355" height="5.681"/>
				
					<rect x="25.678" y="26.417" fill="none" stroke="#2D346A" stroke-width="1.5" stroke-linecap="round" stroke-linejoin="round" stroke-miterlimit="10" width="5.355" height="5.681"/>
				
					<rect x="16.891" y="35.32" fill="none" stroke="#2D346A" stroke-width="1.5" stroke-linecap="round" stroke-linejoin="round" stroke-miterlimit="10" width="5.355" height="5.681"/>
				
					<rect x="34.465" y="35.32" fill="none" stroke="#2D346A" stroke-width="1.5" stroke-linecap="round" stroke-linejoin="round" stroke-miterlimit="10" width="5.355" height="5.681"/>
				
					<rect x="25.678" y="35.32" fill="none" stroke="#2D346A" stroke-width="1.5" stroke-linecap="round" stroke-linejoin="round" stroke-miterlimit="10" width="5.355" height="5.681"/>
				
					<rect x="16.891" y="44.107" fill="none" stroke="#2D346A" stroke-width="1.5" stroke-linecap="round" stroke-linejoin="round" stroke-miterlimit="10" width="5.355" height="5.681"/>
				
					<polyline fill="none" stroke="#2D346A" stroke-width="1.5" stroke-linecap="round" stroke-linejoin="round" stroke-miterlimit="10" points="
					31,44.107 39.82,44.107 39.82,49.788 25.678,49.788 25.678,44.107 28,44.107 				"/>
			</g>
		</g>
		<g>
			
				<path fill="#E8F3FF" stroke="#2D346A" stroke-width="1.5" stroke-linecap="round" stroke-linejoin="round" stroke-miterlimit="10" d="
				M48.422,19.438l-2.319,4.276V51.52c0,1.281,1.038,2.319,2.319,2.319l0,0c1.281,0,2.319-1.038,2.319-2.319V23.713L48.422,19.438z"
				/>
			
				<line fill="none" stroke="#2D346A" stroke-width="1.5" stroke-linecap="round" stroke-linejoin="round" stroke-miterlimit="10" x1="46.104" y1="23.713" x2="50.741" y2="23.713"/>
			
				<polyline fill="#C3CCE9" stroke="#2D346A" stroke-width="1.5" stroke-linecap="round" stroke-linejoin="round" stroke-miterlimit="10" points="
				48.109,41.838 46.109,41.838 46.109,33.109 50.741,33.109 50.741,41.838 			"/>
		</g>
	</g>
	<path fill="#FFFFFF" d="M59.1,12.781c-0.002-0.201-0.071-1.202-1.2-1.202c-0.002,0-0.002,0-0.003,0c-0.002,0-0.003,0-0.005,0h0
		c-0.001,0-0.001,0-0.001,0H57.89c0,0-0.001,0-0.002,0c-0.215-0.006-0.388-0.183-0.388-0.4c0-0.22,0.178-0.399,0.398-0.4
		c0.201-0.002,1.202-0.071,1.202-1.2c0-0.221,0.179-0.4,0.4-0.4s0.4,0.179,0.4,0.4c0,1.129,1.001,1.198,1.202,1.2
		c0.22,0.001,0.398,0.18,0.398,0.4c0,0.221-0.179,0.4-0.4,0.4c-1.129,0-1.198,1.002-1.2,1.2c0,0.002,0,0.002,0,0.002
		c0,0.003-0.001,0.006,0,0.006v0.001v0.001c0,0,0,0.001,0,0.002c-0.006,0.215-0.183,0.388-0.4,0.388
		C59.28,13.179,59.101,13.001,59.1,12.781z"/>
	<path fill="#FFFFFF" d="M62.8,40.388c-0.001-0.101-0.036-0.601-0.6-0.601h-0.001h-0.002h0h-0.001h-0.001h0
		C62.087,39.784,62,39.695,62,39.587c0-0.11,0.089-0.199,0.199-0.2c0.101-0.001,0.601-0.036,0.601-0.6c0-0.111,0.089-0.2,0.2-0.2
		s0.2,0.089,0.2,0.2c0,0.564,0.5,0.599,0.601,0.6c0.11,0.001,0.199,0.09,0.199,0.2c0,0.111-0.089,0.2-0.2,0.2
		c-0.565,0-0.599,0.501-0.6,0.6v0.001c0,0.001-0.001,0.003-0.001,0.003c0.001,0,0.001,0,0.001,0v0.001v0.001
		c-0.003,0.108-0.091,0.194-0.2,0.194C62.89,40.587,62.801,40.498,62.8,40.388z"/>
	<path fill="#E4C95C" d="M55.3,27.771c-0.001-0.101-0.036-0.601-0.6-0.601h-0.001h-0.002h0h-0.001h-0.001h0
		c-0.108-0.003-0.195-0.091-0.195-0.2c0-0.11,0.089-0.199,0.199-0.2c0.101-0.001,0.601-0.036,0.601-0.6c0-0.111,0.089-0.2,0.2-0.2
		s0.2,0.089,0.2,0.2c0,0.564,0.5,0.599,0.601,0.6c0.11,0.001,0.199,0.09,0.199,0.2c0,0.111-0.089,0.2-0.2,0.2
		c-0.565,0-0.599,0.501-0.6,0.6v0.001c0,0.001-0.001,0.003-0.001,0.003c0.001,0,0.001,0,0.001,0v0.001v0.001
		c-0.003,0.108-0.091,0.194-0.2,0.194C55.39,27.97,55.301,27.881,55.3,27.771z"/>
	<path fill="#FFFFFF" d="M6.3,14.224c-0.001-0.101-0.036-0.601-0.6-0.601H5.699H5.696h0H5.696H5.695h0
		C5.587,13.62,5.5,13.531,5.5,13.423c0-0.11,0.089-0.199,0.199-0.2C5.8,13.222,6.3,13.187,6.3,12.623c0-0.111,0.089-0.2,0.2-0.2
		c0.111,0,0.2,0.089,0.2,0.2c0,0.564,0.5,0.599,0.601,0.6c0.11,0.001,0.199,0.09,0.199,0.2c0,0.111-0.089,0.2-0.2,0.2
		c-0.565,0-0.599,0.501-0.6,0.6c0,0.001,0,0.001,0,0.001c0,0.001-0.001,0.003-0.001,0.003c0.001,0,0.001,0,0.001,0v0.001v0.001
		c-0.003,0.108-0.091,0.194-0.2,0.194C6.39,14.423,6.301,14.334,6.3,14.224z"/>
	<path fill="#E4C95C" d="M8.3,33.121C8.299,33.02,8.264,32.52,7.7,32.52H7.699H7.696h0H7.696H7.695h0
		C7.587,32.517,7.5,32.428,7.5,32.32c0-0.11,0.089-0.199,0.199-0.2C7.8,32.119,8.3,32.084,8.3,31.52c0-0.111,0.089-0.2,0.2-0.2
		s0.2,0.089,0.2,0.2c0,0.564,0.5,0.599,0.601,0.6c0.11,0.001,0.199,0.09,0.199,0.2c0,0.111-0.089,0.2-0.2,0.2
		c-0.565,0-0.599,0.501-0.6,0.6c0,0.001,0,0.001,0,0.001c0,0.001-0.001,0.003-0.001,0.003c0.001,0,0.001,0,0.001,0v0.001v0.001
		c-0.003,0.108-0.091,0.194-0.2,0.194C8.39,33.32,8.301,33.231,8.3,33.121z"/>
	<path fill="#FFFFFF" d="M1.6,45.626c-0.002-0.201-0.071-1.202-1.2-1.202c-0.002,0-0.002,0-0.003,0c-0.002,0-0.003,0-0.005,0h0
		c-0.001,0-0.001,0-0.001,0H0.39c0,0-0.001,0-0.002,0C0.173,44.418,0,44.241,0,44.024c0-0.22,0.178-0.399,0.398-0.4
		c0.201-0.002,1.202-0.071,1.202-1.2c0-0.221,0.179-0.4,0.4-0.4s0.4,0.179,0.4,0.4c0,1.129,1.001,1.198,1.202,1.2
		C3.822,43.625,4,43.804,4,44.024c0,0.221-0.179,0.4-0.4,0.4c-1.129,0-1.198,1.002-1.2,1.2c0,0.002,0,0.002,0,0.002
		c0,0.003-0.001,0.006,0,0.006v0.001v0.001c0,0,0,0.001,0,0.002c-0.006,0.215-0.183,0.388-0.4,0.388
		C1.78,46.024,1.601,45.846,1.6,45.626z"/>
</g>
</svg>
