<?xml version="1.0" encoding="utf-8"?>
<!-- Generator: Adobe Illustrator 17.0.0, SVG Export Plug-In . SVG Version: 6.00 Build 0)  -->
<!DOCTYPE svg PUBLIC "-//W3C//DTD SVG 1.1//EN" "http://www.w3.org/Graphics/SVG/1.1/DTD/svg11.dtd">
<svg version="1.1" xmlns="http://www.w3.org/2000/svg" xmlns:xlink="http://www.w3.org/1999/xlink" x="0px" y="0px" width="64px"
	 height="64px" viewBox="0 0 64 64" enable-background="new 0 0 64 64" xml:space="preserve">
<g id="Layer_4">
</g>
<g id="Layer_3">
</g>
<g id="Layer_2">
</g>
<g id="Layer_1">
</g>
<g id="Layer_5">
	<g>
		<g>
			<path fill="#FFFFFF" d="M59.5,31.191c0-15.188-12.312-27.5-27.5-27.5S4.5,16.003,4.5,31.191c0,9.396,4.715,17.687,11.905,22.647
				h31.191C54.785,48.878,59.5,40.587,59.5,31.191z"/>
		</g>
		
			<line fill="none" stroke="#2D346A" stroke-width="1.5" stroke-linecap="round" stroke-miterlimit="10" x1="14.206" y1="53.838" x2="49.794" y2="53.838"/>
		
			<line fill="none" stroke="#FFFFFF" stroke-width="1.5" stroke-linecap="round" stroke-linejoin="round" stroke-miterlimit="10" x1="20.375" y1="57.074" x2="43.625" y2="57.074"/>
		
			<line fill="none" stroke="#FFFFFF" stroke-width="1.5" stroke-linecap="round" stroke-linejoin="round" stroke-miterlimit="10" x1="27.641" y1="60.309" x2="32.314" y2="60.309"/>
		
			<line fill="none" stroke="#FFFFFF" stroke-width="1.5" stroke-linecap="round" stroke-linejoin="round" stroke-miterlimit="10" x1="35.166" y1="60.309" x2="36.415" y2="60.309"/>
	</g>
	<g>
		<path fill="#E8F3FF" d="M53.026,20.555c0-1.963-1.591-3.555-3.555-3.555H15.156c-1.963,0-3.555,1.591-3.555,3.555v20.891
			c0,1.963,1.591,3.555,3.555,3.555h34.315c1.963,0,3.555-1.591,3.555-3.555V20.555z"/>
		
			<line fill="none" stroke="#C3CCE9" stroke-width="1.5" stroke-linecap="round" stroke-linejoin="round" stroke-miterlimit="10" x1="44.531" y1="26.291" x2="45.716" y2="26.291"/>
		
			<line fill="none" stroke="#C3CCE9" stroke-width="1.5" stroke-linecap="round" stroke-linejoin="round" stroke-miterlimit="10" x1="30.461" y1="26.291" x2="41.531" y2="26.291"/>
		<g>
			<path fill="#E4C95C" d="M18.81,24.514c0-1.312,0.719-2.446,1.777-3.062c-0.525-0.305-1.127-0.493-1.777-0.493
				c-1.963,0-3.555,1.591-3.555,3.555c0,1.963,1.591,3.555,3.555,3.555c0.651,0,1.253-0.188,1.777-0.493
				C19.529,26.959,18.81,25.826,18.81,24.514z"/>
			<path fill="#C3CCE9" d="M22.364,20.959c-0.651,0-1.253,0.188-1.777,0.493c1.058,0.616,1.777,1.749,1.777,3.062
				c0,1.312-0.719,2.446-1.777,3.062c0.525,0.305,1.126,0.493,1.777,0.493c1.963,0,3.555-1.592,3.555-3.555
				C25.919,22.55,24.328,20.959,22.364,20.959z"/>
			<path fill="#FFFFFF" d="M22.364,24.514c0-1.312-0.719-2.446-1.777-3.062c-1.058,0.616-1.777,1.749-1.777,3.062
				c0,1.312,0.719,2.446,1.777,3.062C21.645,26.959,22.364,25.826,22.364,24.514z"/>
		</g>
		<rect x="11.602" y="31.967" fill="#E4C95C" width="41.424" height="8.294"/>
		
			<path fill="none" stroke="#2D346A" stroke-width="1.5" stroke-linecap="round" stroke-linejoin="round" stroke-miterlimit="10" d="
			M46.471,17H15.156c-1.963,0-3.555,1.591-3.555,3.555v20.891c0,1.963,1.591,3.555,3.555,3.555h34.315
			c1.963,0,3.555-1.591,3.555-3.555V20.555c0-1.963-1.591-3.555-3.555-3.555"/>
		
			<line fill="none" stroke="#2D346A" stroke-width="1.5" stroke-linejoin="round" stroke-miterlimit="10" x1="11.602" y1="40.261" x2="53.026" y2="40.261"/>
		
			<line fill="none" stroke="#2D346A" stroke-width="1.5" stroke-linecap="round" stroke-linejoin="round" stroke-miterlimit="10" x1="11.602" y1="31.967" x2="49.026" y2="31.967"/>
		
			<line fill="none" stroke="#C3CCE9" stroke-width="1.5" stroke-linecap="round" stroke-linejoin="round" stroke-miterlimit="10" x1="30.461" y1="22.736" x2="36.433" y2="22.736"/>
		<g>
			
				<path fill="none" stroke="#2D346A" stroke-width="1.5" stroke-linecap="round" stroke-linejoin="round" stroke-miterlimit="10" d="
				M18.81,24.514c0-1.312,0.719-2.446,1.777-3.062c-0.525-0.305-1.127-0.493-1.777-0.493c-1.963,0-3.555,1.591-3.555,3.555
				c0,1.963,1.591,3.555,3.555,3.555c0.651,0,1.253-0.188,1.777-0.493C19.529,26.959,18.81,25.826,18.81,24.514z"/>
			
				<path fill="none" stroke="#2D346A" stroke-width="1.5" stroke-linecap="round" stroke-linejoin="round" stroke-miterlimit="10" d="
				M22.364,20.959c-0.651,0-1.253,0.188-1.777,0.493c1.058,0.616,1.777,1.749,1.777,3.062c0,1.312-0.719,2.446-1.777,3.062
				c0.525,0.305,1.126,0.493,1.777,0.493c1.963,0,3.555-1.592,3.555-3.555C25.919,22.55,24.328,20.959,22.364,20.959z"/>
			
				<path fill="none" stroke="#2D346A" stroke-width="1.5" stroke-linecap="round" stroke-linejoin="round" stroke-miterlimit="10" d="
				M22.364,24.514c0-1.312-0.719-2.446-1.777-3.062c-1.058,0.616-1.777,1.749-1.777,3.062c0,1.312,0.719,2.446,1.777,3.062
				C21.645,26.959,22.364,25.826,22.364,24.514z"/>
		</g>
	</g>
	<path fill="#FFFFFF" d="M61.6,44.777c-0.002-0.201-0.071-1.202-1.2-1.202c-0.002,0-0.002,0-0.003,0c-0.002,0-0.003,0-0.005,0h0
		c-0.001,0-0.001,0-0.001,0H60.39c0,0-0.001,0-0.002,0C60.173,43.569,60,43.392,60,43.175c0-0.22,0.178-0.399,0.398-0.4
		c0.201-0.002,1.202-0.071,1.202-1.2c0-0.221,0.179-0.4,0.4-0.4c0.221,0,0.4,0.179,0.4,0.4c0,1.129,1.001,1.198,1.202,1.2
		c0.22,0.001,0.398,0.18,0.398,0.4c0,0.221-0.179,0.4-0.4,0.4c-1.129,0-1.198,1.002-1.2,1.2c0,0.002,0,0.002,0,0.002
		c0,0.003-0.001,0.006,0,0.006v0.001v0.001c0,0,0,0.001,0,0.002c-0.006,0.215-0.183,0.388-0.4,0.388
		C61.78,45.175,61.601,44.997,61.6,44.777z"/>
	<path fill="#E4C95C" d="M38.033,12.303c-0.002-0.201-0.071-1.202-1.2-1.202c-0.002,0-0.002,0-0.003,0c-0.002,0-0.003,0-0.005,0h0
		h-0.001h-0.001c0,0-0.001,0-0.002,0c-0.215-0.006-0.388-0.183-0.388-0.4c0-0.22,0.178-0.399,0.398-0.4
		c0.201-0.002,1.202-0.071,1.202-1.2c0-0.221,0.179-0.4,0.4-0.4c0.221,0,0.4,0.179,0.4,0.4c0,1.129,1.001,1.198,1.202,1.2
		c0.22,0.001,0.398,0.18,0.398,0.4c0,0.221-0.179,0.4-0.4,0.4c-1.129,0-1.198,1.002-1.2,1.2c0,0.002,0,0.002,0,0.002
		c0,0.003-0.001,0.006,0,0.006v0.001v0.001c0,0,0,0.001,0,0.002c-0.006,0.215-0.183,0.388-0.4,0.388
		C38.213,12.701,38.034,12.523,38.033,12.303z"/>
	<path fill="#FFFFFF" d="M53.826,8.502c-0.001-0.101-0.036-0.601-0.6-0.601h-0.001h-0.002h0h-0.001H53.22h0
		c-0.108-0.003-0.195-0.091-0.195-0.2c0-0.11,0.089-0.199,0.199-0.2c0.101-0.001,0.601-0.036,0.601-0.6c0-0.111,0.089-0.2,0.2-0.2
		c0.111,0,0.2,0.089,0.2,0.2c0,0.564,0.5,0.599,0.601,0.6c0.11,0.001,0.199,0.09,0.199,0.2c0,0.111-0.089,0.2-0.2,0.2
		c-0.565,0-0.599,0.501-0.6,0.6v0.001c0,0.001-0.001,0.003-0.001,0.003c0.001,0,0.001,0,0.001,0v0.001v0.001
		c-0.003,0.108-0.091,0.194-0.2,0.194C53.915,8.701,53.826,8.612,53.826,8.502z"/>
	<path fill="#E4C95C" d="M43.425,50.346c-0.001-0.101-0.036-0.601-0.6-0.601h-0.001h-0.002h0h-0.001H42.82h0
		c-0.108-0.003-0.195-0.091-0.195-0.2c0-0.11,0.089-0.199,0.199-0.2c0.101-0.001,0.601-0.036,0.601-0.6c0-0.111,0.089-0.2,0.2-0.2
		s0.2,0.089,0.2,0.2c0,0.564,0.5,0.599,0.601,0.6c0.11,0.001,0.199,0.09,0.199,0.2c0,0.111-0.089,0.2-0.2,0.2
		c-0.565,0-0.599,0.501-0.6,0.6v0.001c0,0.001-0.001,0.003-0.001,0.003c0.001,0,0.001,0,0.001,0v0.001v0.001
		c-0.003,0.108-0.091,0.194-0.2,0.194C43.515,50.545,43.426,50.455,43.425,50.346z"/>
	<path fill="#FFFFFF" d="M6.3,50.851C6.299,50.75,6.264,50.25,5.7,50.25H5.699H5.696h0H5.696H5.695h0
		C5.587,50.247,5.5,50.158,5.5,50.05c0-0.11,0.089-0.199,0.199-0.2C5.8,49.849,6.3,49.814,6.3,49.25c0-0.111,0.089-0.2,0.2-0.2
		c0.111,0,0.2,0.089,0.2,0.2c0,0.564,0.5,0.599,0.601,0.6c0.11,0.001,0.199,0.09,0.199,0.2c0,0.111-0.089,0.2-0.2,0.2
		c-0.565,0-0.599,0.501-0.6,0.6v0.001c0,0.001-0.001,0.003-0.001,0.003c0.001,0,0.001,0,0.001,0v0.001v0.001
		c-0.003,0.108-0.091,0.194-0.2,0.194C6.39,51.05,6.301,50.961,6.3,50.851z"/>
	<path fill="#FFFFFF" d="M1.6,21.564c-0.002-0.201-0.071-1.202-1.2-1.202c-0.002,0-0.002,0-0.003,0c-0.002,0-0.003,0-0.005,0h0
		c-0.001,0-0.001,0-0.001,0H0.39c0,0-0.001,0-0.002,0C0.173,20.356,0,20.179,0,19.962c0-0.22,0.178-0.399,0.398-0.4
		c0.201-0.002,1.202-0.071,1.202-1.2c0-0.221,0.179-0.4,0.4-0.4c0.221,0,0.4,0.179,0.4,0.4c0,1.129,1.001,1.198,1.202,1.2
		C3.822,19.563,4,19.742,4,19.962c0,0.221-0.179,0.4-0.4,0.4c-1.129,0-1.198,1.002-1.2,1.2c0,0.002,0,0.002,0,0.002
		c0,0.003-0.001,0.006,0,0.006v0.001v0.001c0,0,0,0.001,0,0.002c-0.006,0.215-0.183,0.388-0.4,0.388
		C1.78,21.962,1.601,21.784,1.6,21.564z"/>
</g>
</svg>
