<?xml version="1.0" encoding="utf-8"?>
<!-- Generator: Adobe Illustrator 17.0.0, SVG Export Plug-In . SVG Version: 6.00 Build 0)  -->
<!DOCTYPE svg PUBLIC "-//W3C//DTD SVG 1.1//EN" "http://www.w3.org/Graphics/SVG/1.1/DTD/svg11.dtd">
<svg version="1.1" xmlns="http://www.w3.org/2000/svg" xmlns:xlink="http://www.w3.org/1999/xlink" x="0px" y="0px" width="64px"
	 height="64px" viewBox="0 0 64 64" enable-background="new 0 0 64 64" xml:space="preserve">
<g id="Layer_4">
</g>
<g id="Layer_3">
</g>
<g id="Layer_2">
</g>
<g id="Layer_1">
</g>
<g id="Layer_5">
	<g>
		<g>
			<path fill="#FFFFFF" d="M59.5,31.191c0-15.188-12.312-27.5-27.5-27.5S4.5,16.003,4.5,31.191c0,9.396,4.715,17.687,11.905,22.647
				h31.191C54.785,48.878,59.5,40.587,59.5,31.191z"/>
		</g>
		
			<line fill="none" stroke="#2D346A" stroke-width="1.5" stroke-linecap="round" stroke-miterlimit="10" x1="14.206" y1="53.838" x2="49.794" y2="53.838"/>
		
			<line fill="none" stroke="#FFFFFF" stroke-width="1.5" stroke-linecap="round" stroke-linejoin="round" stroke-miterlimit="10" x1="20.375" y1="57.074" x2="43.625" y2="57.074"/>
		
			<line fill="none" stroke="#FFFFFF" stroke-width="1.5" stroke-linecap="round" stroke-linejoin="round" stroke-miterlimit="10" x1="27.641" y1="60.309" x2="32.314" y2="60.309"/>
		
			<line fill="none" stroke="#FFFFFF" stroke-width="1.5" stroke-linecap="round" stroke-linejoin="round" stroke-miterlimit="10" x1="35.166" y1="60.309" x2="36.415" y2="60.309"/>
	</g>
	<g>
		
			<polyline fill="#FFFFFF" stroke="#2D346A" stroke-width="1.5" stroke-linecap="round" stroke-linejoin="round" stroke-miterlimit="10" points="
			49.794,32.833 49.794,11.66 14.206,11.66 14.206,39.838 49.794,39.838 49.794,35.833 		"/>
		
			<path fill="#C3CCE9" stroke="#2D346A" stroke-width="1.5" stroke-linecap="round" stroke-linejoin="round" stroke-miterlimit="10" d="
			M14.203,14.16c-1.381,0-2.5-1.119-2.5-2.5l0,0c0-1.381,1.119-2.5,2.5-2.5h35.591c1.381,0,2.5,1.119,2.5,2.5l0,0
			c0,1.381-1.119,2.5-2.5,2.5H17.203"/>
		
			<line fill="none" stroke="#2D346A" stroke-width="1.5" stroke-linecap="round" stroke-miterlimit="10" x1="13.206" y1="39.838" x2="50.794" y2="39.838"/>
		
			<circle fill="#E4C95C" stroke="#2D346A" stroke-width="1.5" stroke-linecap="round" stroke-linejoin="round" stroke-miterlimit="10" cx="32" cy="47.134" r="2.5"/>
		
			<line fill="none" stroke="#2D346A" stroke-width="1.5" stroke-linejoin="round" stroke-miterlimit="10" x1="32" y1="44.634" x2="32" y2="39.838"/>
		
			<line fill="none" stroke="#C3CCE9" stroke-width="1.5" stroke-linecap="round" stroke-linejoin="round" stroke-miterlimit="10" x1="18.206" y1="35.838" x2="45.794" y2="35.838"/>
		
			<line fill="none" stroke="#C3CCE9" stroke-width="1.5" stroke-linecap="round" stroke-linejoin="round" stroke-miterlimit="10" x1="18.206" y1="35.838" x2="18.206" y2="18.16"/>
		
			<line fill="none" stroke="#E8F3FF" stroke-width="1.5" stroke-linecap="round" stroke-linejoin="round" stroke-miterlimit="10" x1="21.648" y1="26.669" x2="45.794" y2="26.669"/>
		
			<line fill="none" stroke="#E8F3FF" stroke-width="1.5" stroke-linecap="round" stroke-linejoin="round" stroke-miterlimit="10" x1="21.648" y1="20.458" x2="45.794" y2="20.458"/>
		
			<line fill="none" stroke="#E8F3FF" stroke-width="1.5" stroke-linecap="round" stroke-linejoin="round" stroke-miterlimit="10" x1="21.648" y1="31.541" x2="45.794" y2="31.541"/>
		
			<line fill="none" stroke="#E8F3FF" stroke-width="1.5" stroke-linecap="round" stroke-linejoin="round" stroke-miterlimit="10" x1="21.648" y1="25.999" x2="45.794" y2="25.999"/>
		
			<polyline fill="none" stroke="#E4C95C" stroke-width="1.5" stroke-linecap="round" stroke-linejoin="round" stroke-miterlimit="10" points="
			21.648,31.626 26.842,25.848 30.686,30.124 37.187,22.892 40.358,26.42 45.794,20.373 		"/>
	</g>
	<path fill="#FFFFFF" d="M62.4,18.125c0.002-0.201,0.071-1.202,1.2-1.202c0.002,0,0.002,0,0.003,0c0.002,0,0.003,0,0.005,0h0
		c0.001,0,0.001,0,0.001,0h0.001c0,0,0.001,0,0.002,0C63.827,16.917,64,16.74,64,16.523c0-0.22-0.178-0.399-0.398-0.4
		c-0.201-0.002-1.202-0.071-1.202-1.2c0-0.221-0.179-0.4-0.4-0.4c-0.221,0-0.4,0.179-0.4,0.4c0,1.129-1.001,1.198-1.202,1.2
		c-0.22,0.001-0.398,0.18-0.398,0.4c0,0.221,0.179,0.4,0.4,0.4c1.129,0,1.198,1.002,1.2,1.2c0,0.002,0,0.002,0,0.002
		c0,0.003,0.001,0.006,0,0.006v0.001v0.001c0,0,0,0.001,0,0.002c0.006,0.215,0.183,0.388,0.4,0.388
		C62.22,18.523,62.399,18.345,62.4,18.125z"/>
	<path fill="#FFFFFF" d="M1.2,41.935c0.001-0.101,0.036-0.601,0.6-0.601h0.001h0.002h0h0.001h0.001h0
		C1.913,41.331,2,41.242,2,41.134c0-0.11-0.089-0.199-0.199-0.2C1.7,40.932,1.2,40.898,1.2,40.334c0-0.111-0.089-0.2-0.2-0.2
		c-0.111,0-0.2,0.089-0.2,0.2c0,0.564-0.5,0.599-0.601,0.6C0.089,40.934,0,41.024,0,41.134c0,0.111,0.089,0.2,0.2,0.2
		c0.565,0,0.599,0.501,0.6,0.6v0.001c0,0.001,0.001,0.003,0.001,0.003c-0.001,0-0.001,0-0.001,0v0.001v0.001
		c0.003,0.108,0.091,0.194,0.2,0.194C1.11,42.134,1.199,42.045,1.2,41.935z"/>
	<path fill="#E4C95C" d="M54.994,29.566c0.001-0.101,0.036-0.601,0.6-0.601c0.001,0,0.001,0,0.001,0c0.001,0,0.002,0,0.003,0h0
		h0.001h0.001H55.6c0.108-0.003,0.194-0.091,0.194-0.2c0-0.11-0.089-0.199-0.199-0.2c-0.101-0.001-0.601-0.036-0.601-0.6
		c0-0.111-0.089-0.2-0.2-0.2c-0.111,0-0.2,0.089-0.2,0.2c0,0.564-0.5,0.599-0.601,0.6c-0.11,0.001-0.199,0.09-0.199,0.2
		c0,0.111,0.089,0.2,0.2,0.2c0.565,0,0.599,0.501,0.6,0.6v0.001c0,0.001,0.001,0.003,0,0.003v0.001v0v0.001
		c0.003,0.108,0.091,0.194,0.2,0.194C54.904,29.765,54.994,29.676,54.994,29.566z"/>
	<path fill="#FFFFFF" d="M6.9,12.194c0.002-0.201,0.071-1.202,1.2-1.202c0.002,0,0.002,0,0.002,0c0.002,0,0.004,0,0.005,0h0
		c0.001,0,0.001,0,0.001,0H8.11c0,0,0.001,0,0.002,0c0.215-0.006,0.388-0.183,0.388-0.4c0-0.22-0.178-0.399-0.398-0.4
		C7.901,10.19,6.9,10.121,6.9,8.992c0-0.221-0.179-0.4-0.4-0.4s-0.4,0.179-0.4,0.4c0,1.129-1.001,1.198-1.202,1.2
		c-0.22,0.001-0.398,0.18-0.398,0.4c0,0.221,0.179,0.4,0.4,0.4c1.129,0,1.198,1.002,1.2,1.2c0,0.002,0,0.002,0,0.003
		c0,0.002,0.001,0.005,0,0.005c0,0.001,0,0.001,0,0.001v0.001c0,0,0,0.001,0,0.002c0.006,0.215,0.183,0.388,0.4,0.388
		C6.72,12.592,6.899,12.414,6.9,12.194z"/>
	<path fill="#E4C95C" d="M20.775,48.151c0.002-0.201,0.071-1.202,1.2-1.202c0.002,0,0.002,0,0.002,0c0.002,0,0.004,0,0.005,0h0
		c0.001,0,0.001,0,0.001,0h0.001c0,0,0.001,0,0.002,0c0.215-0.006,0.388-0.183,0.388-0.4c0-0.22-0.178-0.399-0.398-0.4
		c-0.201-0.002-1.202-0.071-1.202-1.2c0-0.221-0.179-0.4-0.4-0.4s-0.4,0.179-0.4,0.4c0,1.129-1.001,1.198-1.202,1.2
		c-0.22,0.001-0.398,0.18-0.398,0.4c0,0.221,0.179,0.4,0.4,0.4c1.129,0,1.198,1.002,1.2,1.2c0,0.002,0,0.002,0,0.003
		c0,0.002,0.001,0.005,0,0.005c0,0.001,0,0.001,0,0.001v0.001c0,0,0,0.001,0,0.002c0.006,0.215,0.183,0.388,0.4,0.388
		C20.595,48.549,20.774,48.371,20.775,48.151z"/>
</g>
</svg>
