<?xml version="1.0" encoding="utf-8"?>
<!-- Generator: Adobe Illustrator 17.0.0, SVG Export Plug-In . SVG Version: 6.00 Build 0)  -->
<!DOCTYPE svg PUBLIC "-//W3C//DTD SVG 1.1//EN" "http://www.w3.org/Graphics/SVG/1.1/DTD/svg11.dtd">
<svg version="1.1" xmlns="http://www.w3.org/2000/svg" xmlns:xlink="http://www.w3.org/1999/xlink" x="0px" y="0px" width="64px"
	 height="64px" viewBox="0 0 64 64" enable-background="new 0 0 64 64" xml:space="preserve">
<g id="Layer_4">
</g>
<g id="Layer_3">
</g>
<g id="Layer_2">
</g>
<g id="Layer_1">
</g>
<g id="Layer_5">
	<g>
		<g>
			<path fill="#FFFFFF" d="M59.5,31.191c0-15.188-12.312-27.5-27.5-27.5S4.5,16.003,4.5,31.191c0,9.396,4.715,17.687,11.905,22.647
				h31.191C54.785,48.878,59.5,40.587,59.5,31.191z"/>
		</g>
		
			<line fill="none" stroke="#2D346A" stroke-width="1.5" stroke-linecap="round" stroke-miterlimit="10" x1="6.206" y1="53.838" x2="56.794" y2="53.838"/>
		
			<line fill="none" stroke="#FFFFFF" stroke-width="1.5" stroke-linecap="round" stroke-linejoin="round" stroke-miterlimit="10" x1="20.375" y1="57.074" x2="43.625" y2="57.074"/>
		
			<line fill="none" stroke="#FFFFFF" stroke-width="1.5" stroke-linecap="round" stroke-linejoin="round" stroke-miterlimit="10" x1="27.641" y1="60.309" x2="32.314" y2="60.309"/>
		
			<line fill="none" stroke="#FFFFFF" stroke-width="1.5" stroke-linecap="round" stroke-linejoin="round" stroke-miterlimit="10" x1="35.166" y1="60.309" x2="36.415" y2="60.309"/>
	</g>
	<g>
		<g>
			
				<path fill="#E4C95C" stroke="#2D346A" stroke-width="1.5" stroke-linecap="round" stroke-linejoin="round" stroke-miterlimit="10" d="
				M53.213,51.883c0-1.08-0.875-1.955-1.955-1.955h-9.072c-1.08,0-1.955,0.875-1.955,1.955l0,0c0,1.08,0.875,1.955,1.955,1.955
				h9.072C52.337,53.838,53.213,52.963,53.213,51.883L53.213,51.883z"/>
			
				<path fill="#E4C95C" stroke="#2D346A" stroke-width="1.5" stroke-linecap="round" stroke-linejoin="round" stroke-miterlimit="10" d="
				M54.406,47.972c0-1.08-0.875-1.955-1.955-1.955h-9.072c-1.08,0-1.955,0.875-1.955,1.955l0,0c0,1.08,0.875,1.955,1.955,1.955
				h9.072C53.531,49.927,54.406,49.052,54.406,47.972L54.406,47.972z"/>
			
				<path fill="#E4C95C" stroke="#2D346A" stroke-width="1.5" stroke-linecap="round" stroke-linejoin="round" stroke-miterlimit="10" d="
				M53.213,44.061c0-1.08-0.875-1.955-1.955-1.955h-9.072c-1.08,0-1.955,0.875-1.955,1.955l0,0c0,1.08,0.875,1.955,1.955,1.955
				h9.072C52.337,46.017,53.213,45.141,53.213,44.061L53.213,44.061z"/>
			
				<path fill="#E4C95C" stroke="#2D346A" stroke-width="1.5" stroke-linecap="round" stroke-linejoin="round" stroke-miterlimit="10" d="
				M55.6,36.24c0-1.08-0.875-1.955-1.955-1.955h-9.072c-1.08,0-1.955,0.875-1.955,1.955s0.875,1.955,1.955,1.955h-1.194
				c-1.08,0-1.955,0.875-1.955,1.955c0,1.08,0.875,1.955,1.955,1.955h9.072c1.08,0,1.955-0.875,1.955-1.955
				c0-1.08-0.875-1.955-1.955-1.955h1.194C54.725,38.195,55.6,37.32,55.6,36.24z"/>
			
				<path fill="#E4C95C" stroke="#2D346A" stroke-width="1.5" stroke-linecap="round" stroke-linejoin="round" stroke-miterlimit="10" d="
				M56.794,32.329c0-1.08-0.875-1.955-1.955-1.955h-9.072c-1.08,0-1.955,0.875-1.955,1.955l0,0c0,1.08,0.875,1.955,1.955,1.955
				h9.072C55.919,34.284,56.794,33.409,56.794,32.329L56.794,32.329z"/>
			
				<path fill="#E4C95C" stroke="#2D346A" stroke-width="1.5" stroke-linecap="round" stroke-linejoin="round" stroke-miterlimit="10" d="
				M56.794,24.507c0-1.08-0.875-1.955-1.955-1.955h-9.072c-1.08,0-1.955,0.875-1.955,1.955c0,1.08,0.875,1.955,1.955,1.955h-1.194
				c-1.08,0-1.955,0.875-1.955,1.955c0,1.08,0.875,1.955,1.955,1.955h9.072c1.08,0,1.955-0.875,1.955-1.955
				c0-1.08-0.875-1.955-1.955-1.955h1.194C55.919,26.463,56.794,25.587,56.794,24.507z"/>
			
				<line fill="none" stroke="#2D346A" stroke-width="1.5" stroke-linecap="round" stroke-linejoin="round" stroke-miterlimit="10" x1="45.767" y1="26.463" x2="49.868" y2="26.463"/>
			
				<line fill="none" stroke="#2D346A" stroke-width="1.5" stroke-linecap="round" stroke-linejoin="round" stroke-miterlimit="10" x1="53.645" y1="26.463" x2="52.868" y2="26.463"/>
			
				<line fill="none" stroke="#2D346A" stroke-width="1.5" stroke-linecap="round" stroke-linejoin="round" stroke-miterlimit="10" x1="52.451" y1="38.195" x2="47.573" y2="38.195"/>
		</g>
		<g>
			
				<path fill="#E4C95C" stroke="#2D346A" stroke-width="1.5" stroke-linecap="round" stroke-linejoin="round" stroke-miterlimit="10" d="
				M38.406,40.15c0-1.08-0.875-1.955-1.955-1.955h-9.072c-1.08,0-1.955,0.875-1.955,1.955l0,0c0,1.08,0.875,1.955,1.955,1.955h9.072
				C37.531,42.106,38.406,41.23,38.406,40.15L38.406,40.15z"/>
			
				<path fill="#E4C95C" stroke="#2D346A" stroke-width="1.5" stroke-linecap="round" stroke-linejoin="round" stroke-miterlimit="10" d="
				M39.6,36.24c0-1.08-0.875-1.955-1.955-1.955h-9.072c-1.08,0-1.955,0.875-1.955,1.955l0,0c0,1.08,0.875,1.955,1.955,1.955h9.072
				C38.725,38.195,39.6,37.32,39.6,36.24L39.6,36.24z"/>
			
				<path fill="#E4C95C" stroke="#2D346A" stroke-width="1.5" stroke-linecap="round" stroke-linejoin="round" stroke-miterlimit="10" d="
				M37.213,44.061c0-1.08-0.875-1.955-1.955-1.955h-9.072c-1.08,0-1.955,0.875-1.955,1.955l0,0c0,1.08,0.875,1.955,1.955,1.955
				h9.072C36.337,46.017,37.213,45.141,37.213,44.061L37.213,44.061z"/>
			
				<path fill="#E4C95C" stroke="#2D346A" stroke-width="1.5" stroke-linecap="round" stroke-linejoin="round" stroke-miterlimit="10" d="
				M38.406,47.972c0-1.08-0.875-1.955-1.955-1.955h-9.072c-1.08,0-1.955,0.875-1.955,1.955c0,1.08,0.875,1.955,1.955,1.955h-1.194
				c-1.08,0-1.955,0.875-1.955,1.955c0,1.08,0.875,1.955,1.955,1.955h9.072c1.08,0,1.955-0.875,1.955-1.955
				c0-1.08-0.875-1.955-1.955-1.955h1.194C37.531,49.927,38.406,49.052,38.406,47.972z"/>
			
				<line fill="none" stroke="#2D346A" stroke-width="1.5" stroke-linecap="round" stroke-linejoin="round" stroke-miterlimit="10" x1="35.257" y1="49.927" x2="30.379" y2="49.927"/>
			
				<path fill="#E4C95C" stroke="#2D346A" stroke-width="1.5" stroke-linecap="round" stroke-linejoin="round" stroke-miterlimit="10" d="
				M20.983,51.883c0-1.08-0.875-1.955-1.955-1.955H9.955C8.875,49.927,8,50.803,8,51.883l0,0c0,1.08,0.875,1.955,1.955,1.955h9.072
				C20.107,53.838,20.983,52.963,20.983,51.883L20.983,51.883z"/>
			
				<path fill="#E4C95C" stroke="#2D346A" stroke-width="1.5" stroke-linecap="round" stroke-linejoin="round" stroke-miterlimit="10" d="
				M22.177,47.972c0-1.08-0.875-1.955-1.955-1.955h-9.072c-1.08,0-1.955,0.875-1.955,1.955l0,0c0,1.08,0.875,1.955,1.955,1.955
				h9.072C21.301,49.927,22.177,49.052,22.177,47.972L22.177,47.972z"/>
		</g>
		
			<path fill="none" stroke="#2D346A" stroke-width="1.5" stroke-linecap="round" stroke-linejoin="round" stroke-miterlimit="10" d="
			M24.424,22.552C30,21,33.166,26.463,33.166,30.374c0,0-0.178-8.395,4.688-12.62"/>
		
			<path fill="none" stroke="#2D346A" stroke-width="1.5" stroke-linecap="round" stroke-linejoin="round" stroke-miterlimit="10" d="
			M16.242,37.728c0.894-5.647,2.48-10.782,5.269-13.462"/>
		
			<path fill="none" stroke="#2D346A" stroke-width="1.5" stroke-linecap="round" stroke-linejoin="round" stroke-miterlimit="10" d="
			M15.685,42.106c0.055-0.557,0.116-1.115,0.183-1.67"/>
		
			<polygon fill="#FFFFFF" stroke="#2D346A" stroke-width="1.5" stroke-linecap="round" stroke-linejoin="round" stroke-miterlimit="10" points="
			36.603,11.132 40.511,16.135 40.208,22.65 53.537,12.104 		"/>
		
			<line fill="none" stroke="#2D346A" stroke-width="1.5" stroke-linecap="round" stroke-linejoin="round" stroke-miterlimit="10" x1="40.511" y1="16.135" x2="53.537" y2="12.104"/>
	</g>
	<path fill="#FFFFFF" d="M1.6,45.663c-0.002-0.201-0.071-1.202-1.2-1.202c-0.002,0-0.002,0-0.003,0c-0.002,0-0.003,0-0.005,0h0
		c-0.001,0-0.001,0-0.001,0H0.39c0,0-0.001,0-0.002,0C0.173,44.455,0,44.278,0,44.061c0-0.22,0.178-0.399,0.398-0.4
		c0.201-0.002,1.202-0.071,1.202-1.2c0-0.221,0.179-0.4,0.4-0.4s0.4,0.179,0.4,0.4c0,1.129,1.001,1.198,1.202,1.2
		C3.822,43.662,4,43.841,4,44.061c0,0.221-0.179,0.4-0.4,0.4c-1.129,0-1.198,1.002-1.2,1.2c0,0.002,0,0.002,0,0.002
		c0,0.003-0.001,0.006,0,0.006v0.001v0.001c0,0,0,0.001,0,0.002c-0.006,0.215-0.183,0.388-0.4,0.388
		C1.78,46.061,1.601,45.883,1.6,45.663z"/>
	<path fill="#FFFFFF" d="M62.8,20.603c-0.001-0.101-0.036-0.601-0.6-0.601h-0.001h-0.002h0h-0.001h-0.001h0
		C62.087,19.999,62,19.911,62,19.802c0-0.11,0.089-0.199,0.199-0.2c0.101-0.001,0.601-0.036,0.601-0.6c0-0.111,0.089-0.2,0.2-0.2
		s0.2,0.089,0.2,0.2c0,0.564,0.5,0.599,0.601,0.6c0.11,0.001,0.199,0.09,0.199,0.2c0,0.111-0.089,0.2-0.2,0.2
		c-0.565,0-0.599,0.501-0.6,0.6c0,0.001,0,0.001,0,0.001c0,0.001-0.001,0.003-0.001,0.003c0.001,0,0.001,0,0.001,0v0.001v0.001
		c-0.003,0.108-0.091,0.194-0.2,0.194C62.89,20.802,62.801,20.713,62.8,20.603z"/>
	<path fill="#E4C95C" d="M11.594,27.102c0.002-0.201,0.071-1.202,1.2-1.202c0.002,0,0.002,0,0.003,0c0.002,0,0.003,0,0.005,0h0
		h0.001h0.001c0,0,0.001,0,0.002,0c0.215-0.006,0.388-0.183,0.388-0.4c0-0.22-0.178-0.399-0.398-0.4
		c-0.201-0.002-1.202-0.071-1.202-1.2c0-0.221-0.179-0.4-0.4-0.4c-0.221,0-0.4,0.179-0.4,0.4c0,1.129-1.001,1.198-1.202,1.2
		c-0.22,0.001-0.398,0.18-0.398,0.4c0,0.221,0.179,0.4,0.4,0.4c1.129,0,1.198,1.002,1.2,1.2c0,0.002,0,0.002,0,0.002
		c0,0.003,0.001,0.006,0,0.006v0.001v0.001c0,0.001,0,0.001,0,0.002c0.006,0.215,0.183,0.388,0.4,0.388
		C11.414,27.5,11.593,27.322,11.594,27.102z"/>
	<path fill="#FFFFFF" d="M54.006,7.293c-0.002-0.201-0.071-1.202-1.2-1.202c-0.002,0-0.002,0-0.002,0c-0.002,0-0.004,0-0.005,0h0
		c-0.001,0-0.001,0-0.001,0s-0.001,0-0.001,0h-0.002c-0.215-0.006-0.388-0.183-0.388-0.4c0-0.22,0.178-0.399,0.398-0.4
		c0.201-0.002,1.202-0.071,1.202-1.2c0-0.221,0.179-0.4,0.4-0.4c0.221,0,0.4,0.179,0.4,0.4c0,1.129,1.001,1.198,1.202,1.2
		c0.22,0.001,0.398,0.18,0.398,0.4c0,0.221-0.179,0.4-0.4,0.4c-1.129,0-1.198,1.002-1.2,1.2c0,0.002,0,0.002,0,0.002
		c0,0.003-0.001,0.006,0,0.006V7.3v0.001v0.002c-0.006,0.215-0.183,0.388-0.4,0.388C54.186,7.691,54.008,7.513,54.006,7.293z"/>
	<path fill="#E4C95C" d="M27.425,14.692c0.001-0.101,0.036-0.601,0.6-0.601h0.001h0.002h0h0.001h0.001h0
		c0.108-0.003,0.195-0.091,0.195-0.2c0-0.11-0.089-0.199-0.199-0.2c-0.101-0.001-0.601-0.036-0.601-0.6c0-0.111-0.089-0.2-0.2-0.2
		c-0.111,0-0.2,0.089-0.2,0.2c0,0.564-0.5,0.599-0.601,0.6c-0.11,0.001-0.199,0.09-0.199,0.2c0,0.111,0.089,0.2,0.2,0.2
		c0.565,0,0.599,0.501,0.6,0.6c0,0.001,0,0.001,0,0.001c0,0.001,0.001,0.003,0.001,0.003c-0.001,0-0.001,0-0.001,0v0.001v0.001
		c0.003,0.108,0.091,0.194,0.2,0.194C27.335,14.891,27.425,14.802,27.425,14.692z"/>
	<path fill="#FFFFFF" d="M5.8,11.301C5.799,11.2,5.764,10.7,5.2,10.7H5.199H5.196h0H5.196H5.195h0C5.087,10.697,5,10.609,5,10.5
		c0-0.11,0.089-0.199,0.199-0.2C5.3,10.299,5.8,10.264,5.8,9.7c0-0.111,0.089-0.2,0.2-0.2c0.111,0,0.2,0.089,0.2,0.2
		c0,0.564,0.5,0.599,0.601,0.6C6.911,10.301,7,10.39,7,10.5c0,0.111-0.089,0.2-0.2,0.2c-0.565,0-0.599,0.501-0.6,0.6
		c0,0.001,0,0.001,0,0.001c0,0.001-0.001,0.003-0.001,0.003c0.001,0,0.001,0,0.001,0v0.001v0.001C6.197,11.413,6.109,11.5,6,11.5
		C5.89,11.5,5.801,11.411,5.8,11.301z"/>
</g>
</svg>
