<?xml version="1.0" encoding="utf-8"?>
<!-- Generator: Adobe Illustrator 17.0.0, SVG Export Plug-In . SVG Version: 6.00 Build 0)  -->
<!DOCTYPE svg PUBLIC "-//W3C//DTD SVG 1.1//EN" "http://www.w3.org/Graphics/SVG/1.1/DTD/svg11.dtd">
<svg version="1.1" xmlns="http://www.w3.org/2000/svg" xmlns:xlink="http://www.w3.org/1999/xlink" x="0px" y="0px" width="64px"
	 height="64px" viewBox="0 0 64 64" enable-background="new 0 0 64 64" xml:space="preserve">
<g id="Layer_4">
</g>
<g id="Layer_3">
</g>
<g id="Layer_2">
</g>
<g id="Layer_1">
</g>
<g id="Layer_5">
	<g>
		<g>
			<path fill="#FFFFFF" d="M59.5,31.191c0-15.188-12.312-27.5-27.5-27.5S4.5,16.003,4.5,31.191c0,9.396,4.715,17.687,11.905,22.647
				h31.191C54.785,48.878,59.5,40.587,59.5,31.191z"/>
		</g>
		
			<line fill="none" stroke="#2D346A" stroke-width="1.5" stroke-linecap="round" stroke-miterlimit="10" x1="12.206" y1="53.838" x2="51.794" y2="53.838"/>
		
			<line fill="none" stroke="#FFFFFF" stroke-width="1.5" stroke-linecap="round" stroke-linejoin="round" stroke-miterlimit="10" x1="20.375" y1="57.074" x2="43.625" y2="57.074"/>
		
			<line fill="none" stroke="#FFFFFF" stroke-width="1.5" stroke-linecap="round" stroke-linejoin="round" stroke-miterlimit="10" x1="27.641" y1="60.309" x2="32.314" y2="60.309"/>
		
			<line fill="none" stroke="#FFFFFF" stroke-width="1.5" stroke-linecap="round" stroke-linejoin="round" stroke-miterlimit="10" x1="35.166" y1="60.309" x2="36.415" y2="60.309"/>
	</g>
	<g>
		<g>
			<path fill="#C3CCE9" d="M13.924,50.406c0,1.896,1.537,3.433,3.433,3.433h29.051c1.896,0,3.433-1.537,3.433-3.433v-8.796H13.924
				V50.406z"/>
			<polygon fill="#E8F3FF" points="17.357,29.804 13.924,41.609 49.84,41.609 46.408,29.804 			"/>
		</g>
		<g>
			<path fill="none" d="M32.001,14.623c-5.642,0-10.313,2.286-10.313,7.928v0.243h20.681v-0.243
				C42.368,16.909,37.643,14.623,32.001,14.623z"/>
			<path fill="#E4C95C" d="M9.487,23.929c0,1.612,1.307,2.919,2.919,2.919h6.363c1.612,0,2.919-1.307,2.919-2.919v-1.135H9.487
				V23.929z"/>
			<path fill="#E4C95C" d="M42.368,23.929c0,1.612,1.307,2.919,2.919,2.919h6.363c1.612,0,2.919-1.307,2.919-2.919v-1.135H42.368
				V23.929z"/>
			<path fill="#E8F3FF" d="M32.028,8.875c-12.249,0-22.541,6.609-22.541,13.919h12.201v-0.243c0-5.643,4.671-7.928,10.313-7.928
				s10.368,2.286,10.368,7.928v0.243h12.201C54.569,15.484,44.276,8.875,32.028,8.875z"/>
		</g>
		<path fill="#C3CCE9" stroke="#2D346A" stroke-width="1.5" stroke-linejoin="round" stroke-miterlimit="10" d="M25.589,29.804
			v-4.386c0-1.264,1.025-2.288,2.288-2.288l0,0c1.264,0,2.288,1.025,2.288,2.288v4.386"/>
		<path fill="#C3CCE9" stroke="#2D346A" stroke-width="1.5" stroke-linejoin="round" stroke-miterlimit="10" d="M33.599,29.804
			v-4.386c0-1.264,1.025-2.288,2.288-2.288l0,0c1.264,0,2.288,1.025,2.288,2.288v4.386"/>
		
			<path fill="none" stroke="#2D346A" stroke-width="1.5" stroke-linecap="round" stroke-linejoin="round" stroke-miterlimit="10" d="
			M46.408,29.804l3.433,11.805v8.796c0,1.896-1.537,3.433-3.433,3.433H17.357c-1.896,0-3.433-1.537-3.433-3.433v-8.796l3.433-11.805
			H46.408z"/>
		
			<circle fill="#E4C95C" stroke="#2D346A" stroke-width="1.5" stroke-linecap="round" stroke-linejoin="round" stroke-miterlimit="10" cx="31.882" cy="41.821" r="7.437"/>
		
			<line fill="none" stroke="#2D346A" stroke-width="1.5" stroke-linecap="round" stroke-linejoin="round" stroke-miterlimit="10" x1="13.924" y1="41.609" x2="21.012" y2="41.609"/>
		
			<line fill="none" stroke="#2D346A" stroke-width="1.5" stroke-linecap="round" stroke-linejoin="round" stroke-miterlimit="10" x1="42.896" y1="41.821" x2="46.297" y2="41.821"/>
		
			<path fill="none" stroke="#2D346A" stroke-width="1.5" stroke-linecap="round" stroke-linejoin="round" stroke-miterlimit="10" d="
			M32.028,8.875c-12.249,0-22.541,6.609-22.541,13.919v1.135c0,1.612,1.307,2.919,2.919,2.919h6.363
			c1.612,0,2.919-1.307,2.919-2.919v-1.378c0-5.643,4.671-7.928,10.313-7.928s10.368,2.286,10.368,7.928v1.378
			c0,1.612,1.307,2.919,2.919,2.919h6.363c1.612,0,2.919-1.307,2.919-2.919v-1.135C54.569,15.484,44.276,8.875,32.028,8.875z"/>
		
			<line fill="none" stroke="#2D346A" stroke-width="1.5" stroke-linecap="round" stroke-miterlimit="10" x1="9.487" y1="22.794" x2="10.924" y2="22.794"/>
		
			<line fill="none" stroke="#2D346A" stroke-width="1.5" stroke-linecap="round" stroke-miterlimit="10" x1="13.924" y1="22.794" x2="21.687" y2="22.794"/>
		
			<line fill="none" stroke="#2D346A" stroke-width="1.5" stroke-linecap="round" stroke-miterlimit="10" x1="45.368" y1="22.794" x2="54.569" y2="22.794"/>
		
			<circle fill="#FFFFFF" stroke="#2D346A" stroke-width="1.5" stroke-linecap="round" stroke-linejoin="round" stroke-miterlimit="10" cx="31.882" cy="41.821" r="4"/>
	</g>
	<path fill="#FFFFFF" d="M1.6,47.125c-0.002-0.201-0.071-1.202-1.2-1.202c-0.002,0-0.002,0-0.003,0c-0.002,0-0.003,0-0.005,0h0
		c-0.001,0-0.001,0-0.001,0H0.39c0,0-0.001,0-0.002,0C0.173,45.917,0,45.74,0,45.523c0-0.22,0.178-0.399,0.398-0.4
		c0.201-0.002,1.202-0.071,1.202-1.2c0-0.221,0.179-0.4,0.4-0.4s0.4,0.179,0.4,0.4c0,1.129,1.001,1.198,1.202,1.2
		C3.822,45.124,4,45.303,4,45.523c0,0.221-0.179,0.4-0.4,0.4c-1.129,0-1.198,1.002-1.2,1.2c0,0.002,0,0.002,0,0.002
		c0,0.003-0.001,0.006,0,0.006v0.001v0.001c0,0,0,0.001,0,0.002C2.394,47.35,2.217,47.523,2,47.523
		C1.78,47.523,1.601,47.345,1.6,47.125z"/>
	<path fill="#FFFFFF" d="M62.8,39.347c-0.001-0.101-0.036-0.601-0.6-0.601h-0.001h-0.002h0h-0.001h-0.001h0
		C62.087,38.743,62,38.655,62,38.546c0-0.11,0.089-0.199,0.199-0.2c0.101-0.001,0.601-0.036,0.601-0.6c0-0.111,0.089-0.2,0.2-0.2
		s0.2,0.089,0.2,0.2c0,0.564,0.5,0.599,0.601,0.6c0.11,0.001,0.199,0.09,0.199,0.2c0,0.111-0.089,0.2-0.2,0.2
		c-0.565,0-0.599,0.501-0.6,0.6c0,0.001,0,0.001,0,0.001c0,0.001-0.001,0.003-0.001,0.003c0.001,0,0.001,0,0.001,0v0.001v0.001
		c-0.003,0.108-0.091,0.194-0.2,0.194C62.89,39.546,62.801,39.457,62.8,39.347z"/>
	<path fill="#E4C95C" d="M52.969,34.986c0.002-0.201,0.071-1.202,1.2-1.202c0.002,0,0.002,0,0.003,0c0.002,0,0.003,0,0.005,0h0
		c0.001,0,0.001,0,0.001,0h0.001c0,0,0.001,0,0.002,0c0.215-0.006,0.388-0.183,0.388-0.4c0-0.22-0.178-0.399-0.398-0.4
		c-0.201-0.002-1.202-0.071-1.202-1.2c0-0.221-0.179-0.4-0.4-0.4s-0.4,0.179-0.4,0.4c0,1.129-1.001,1.198-1.202,1.2
		c-0.22,0.001-0.398,0.18-0.398,0.4c0,0.221,0.179,0.4,0.4,0.4c1.129,0,1.198,1.002,1.2,1.2c0,0.002,0,0.002,0,0.002
		c0,0.003,0.001,0.006,0,0.006v0.001v0.001c0,0,0,0.001,0,0.002c0.006,0.215,0.183,0.388,0.4,0.388
		C52.789,35.384,52.968,35.206,52.969,34.986z"/>
	<path fill="#FFFFFF" d="M57.899,12.701c-0.002-0.201-0.071-1.202-1.2-1.202c-0.002,0-0.002,0-0.003,0c-0.002,0-0.003,0-0.005,0h0
		c-0.001,0-0.001,0-0.001,0s-0.001,0-0.001,0c0,0-0.001,0-0.002,0c-0.215-0.006-0.388-0.183-0.388-0.4c0-0.22,0.178-0.399,0.398-0.4
		c0.201-0.002,1.202-0.071,1.202-1.2c0-0.221,0.179-0.4,0.4-0.4c0.221,0,0.4,0.179,0.4,0.4c0,1.129,1.001,1.198,1.202,1.2
		c0.22,0.001,0.398,0.18,0.398,0.4c0,0.221-0.179,0.4-0.4,0.4c-1.129,0-1.198,1.002-1.2,1.2c0,0.002,0,0.002,0,0.002
		c0,0.003-0.001,0.006,0,0.006v0.001c0,0,0,0.001,0,0.001v0.002c-0.006,0.215-0.183,0.388-0.4,0.388
		C58.078,13.099,57.9,12.921,57.899,12.701z"/>
	<path fill="#E4C95C" d="M9.687,35.185c0.001-0.101,0.036-0.601,0.6-0.601h0.001h0.002h0h0.001h0.001h0
		c0.108-0.003,0.195-0.091,0.195-0.2c0-0.11-0.089-0.199-0.199-0.2c-0.101-0.001-0.601-0.036-0.601-0.6c0-0.111-0.089-0.2-0.2-0.2
		s-0.2,0.089-0.2,0.2c0,0.564-0.5,0.599-0.601,0.6c-0.11,0.001-0.199,0.09-0.199,0.2c0,0.111,0.089,0.2,0.2,0.2
		c0.565,0,0.599,0.501,0.6,0.6c0,0.001,0,0.001,0,0.001c0,0.001,0.001,0.003,0.001,0.003l-0.001,0v0.001v0.001
		c0.003,0.108,0.091,0.194,0.2,0.194C9.597,35.384,9.686,35.295,9.687,35.185z"/>
	<path fill="#FFFFFF" d="M5.8,11.301C5.799,11.2,5.764,10.7,5.2,10.7H5.199H5.196h0H5.196H5.195h0C5.087,10.697,5,10.609,5,10.5
		c0-0.11,0.089-0.199,0.199-0.2C5.3,10.299,5.8,10.264,5.8,9.7c0-0.111,0.089-0.2,0.2-0.2s0.2,0.089,0.2,0.2
		c0,0.564,0.5,0.599,0.601,0.6C6.911,10.301,7,10.39,7,10.5c0,0.111-0.089,0.2-0.2,0.2c-0.565,0-0.599,0.501-0.6,0.6
		c0,0.001,0,0.001,0,0.001c0,0.001-0.001,0.003-0.001,0.003c0.001,0,0.001,0,0.001,0v0.001v0.001C6.197,11.413,6.109,11.5,6,11.5
		C5.89,11.5,5.801,11.411,5.8,11.301z"/>
</g>
</svg>
