<?xml version="1.0" encoding="utf-8"?>
<!-- Generator: Adobe Illustrator 17.0.0, SVG Export Plug-In . SVG Version: 6.00 Build 0)  -->
<!DOCTYPE svg PUBLIC "-//W3C//DTD SVG 1.1//EN" "http://www.w3.org/Graphics/SVG/1.1/DTD/svg11.dtd">
<svg version="1.1" xmlns="http://www.w3.org/2000/svg" xmlns:xlink="http://www.w3.org/1999/xlink" x="0px" y="0px" width="64px"
	 height="64px" viewBox="0 0 64 64" enable-background="new 0 0 64 64" xml:space="preserve">
<g id="Layer_4">
</g>
<g id="Layer_3">
</g>
<g id="Layer_2">
</g>
<g id="Layer_1">
</g>
<g id="Layer_5">
	<g>
		<g>
			<path fill="#FFFFFF" d="M59.5,31.191c0-15.188-12.312-27.5-27.5-27.5S4.5,16.003,4.5,31.191c0,9.396,4.715,17.687,11.905,22.647
				h31.191C54.785,48.878,59.5,40.587,59.5,31.191z"/>
		</g>
		
			<line fill="none" stroke="#2D346A" stroke-width="1.5" stroke-linecap="round" stroke-miterlimit="10" x1="14.206" y1="53.838" x2="49.794" y2="53.838"/>
		
			<line fill="none" stroke="#FFFFFF" stroke-width="1.5" stroke-linecap="round" stroke-linejoin="round" stroke-miterlimit="10" x1="20.375" y1="57.074" x2="43.625" y2="57.074"/>
		
			<line fill="none" stroke="#FFFFFF" stroke-width="1.5" stroke-linecap="round" stroke-linejoin="round" stroke-miterlimit="10" x1="27.641" y1="60.309" x2="32.314" y2="60.309"/>
		
			<line fill="none" stroke="#FFFFFF" stroke-width="1.5" stroke-linecap="round" stroke-linejoin="round" stroke-miterlimit="10" x1="35.166" y1="60.309" x2="36.415" y2="60.309"/>
	</g>
	<g>
		
			<path fill="#C3CCE9" stroke="#2D346A" stroke-width="1.5" stroke-linecap="round" stroke-linejoin="round" stroke-miterlimit="10" d="
			M28.021,47.291l-8.72-8.72c-1.095-1.095-1.095-2.87,0-3.964l0,0c1.095-1.095,2.87-1.095,3.964,0l14.446,14.446
			c1.095,1.095,1.095,2.87,0,3.964l0,0c-1.095,1.095-2.87,1.095-3.964,0l-3.73-3.73"/>
		<g>
			
				<polygon fill="#FFFFFF" stroke="#2D346A" stroke-width="1.5" stroke-linecap="round" stroke-linejoin="round" stroke-miterlimit="10" points="
				20.003,31.344 18.392,32.955 27.613,42.177 29.225,40.566 45.585,35.943 24.626,14.984 			"/>
			
				<ellipse transform="matrix(0.7071 -0.7071 0.7071 0.7071 -5.2043 33.3247)" fill="#E8F3FF" cx="37.624" cy="22.944" rx="9.238" ry="16.06"/>
			
				<path fill="#FFFFFF" stroke="#2D346A" stroke-width="1.5" stroke-linecap="round" stroke-linejoin="round" stroke-miterlimit="10" d="
				M16.619,34.728c-2.547,2.547-2.547,6.675,0,9.222c2.546,2.546,6.675,2.547,9.222,0l3.384-3.384c-4.015,0-9.222-5.028-9.222-9.222
				L16.619,34.728z"/>
			<path fill="#E4C95C" d="M27.088,24.37c1.043,1.747,2.383,3.485,4.005,5.106c1.621,1.621,3.359,2.962,5.106,4.005
				c2.008-2.559,1.863-6.258-0.495-8.616C33.345,22.508,29.647,22.362,27.088,24.37z"/>
			
				<path fill="none" stroke="#2D346A" stroke-width="1.5" stroke-linecap="round" stroke-linejoin="round" stroke-miterlimit="10" d="
				M49.484,24.093c-1.101-2.584-2.908-5.262-5.327-7.681c-6.272-6.272-14.28-8.431-17.888-4.824s-1.448,11.616,4.824,17.888
				s14.28,8.431,17.888,4.824c1.662-1.662,2.1-4.258,1.476-7.188"/>
		</g>
	</g>
	<path fill="#FFFFFF" d="M62.4,49.125c0.002-0.201,0.071-1.202,1.2-1.202c0.002,0,0.002,0,0.003,0c0.002,0,0.003,0,0.005,0h0
		c0.001,0,0.001,0,0.001,0h0.001c0,0,0.001,0,0.002,0C63.827,47.917,64,47.74,64,47.523c0-0.22-0.178-0.399-0.398-0.4
		c-0.201-0.002-1.202-0.071-1.202-1.2c0-0.221-0.179-0.4-0.4-0.4c-0.221,0-0.4,0.179-0.4,0.4c0,1.129-1.001,1.198-1.202,1.2
		c-0.22,0.001-0.398,0.18-0.398,0.4c0,0.221,0.179,0.4,0.4,0.4c1.129,0,1.198,1.002,1.2,1.2c0,0.002,0,0.002,0,0.002
		c0,0.003,0.001,0.006,0,0.006v0.001v0.001c0,0,0,0.001,0,0.002c0.006,0.215,0.183,0.388,0.4,0.388
		C62.22,49.523,62.399,49.345,62.4,49.125z"/>
	<path fill="#E4C95C" d="M12.968,25.141c0.001-0.101,0.036-0.601,0.6-0.601h0.001h0.002h0h0.001h0.001h0
		c0.108-0.003,0.195-0.091,0.195-0.2c0-0.11-0.089-0.199-0.199-0.2c-0.101-0.001-0.601-0.036-0.601-0.6c0-0.111-0.089-0.2-0.2-0.2
		s-0.2,0.089-0.2,0.2c0,0.564-0.5,0.599-0.601,0.6c-0.11,0.001-0.199,0.09-0.199,0.2c0,0.111,0.089,0.2,0.2,0.2
		c0.565,0,0.599,0.501,0.6,0.6v0.001c0,0.001,0.001,0.003,0.001,0.003l-0.001,0v0.001v0.001c0.003,0.108,0.091,0.194,0.2,0.194
		C12.878,25.34,12.967,25.251,12.968,25.141z"/>
	<path fill="#FFFFFF" d="M60.7,17.347c0.001-0.101,0.036-0.601,0.6-0.601c0.001,0,0.001,0,0.001,0c0.001,0,0.002,0,0.003,0h0h0.001
		h0.001c0,0,0,0,0.001,0c0.108-0.003,0.194-0.091,0.194-0.2c0-0.11-0.089-0.199-0.199-0.2c-0.101-0.001-0.601-0.036-0.601-0.6
		c0-0.111-0.089-0.2-0.2-0.2s-0.2,0.089-0.2,0.2c0,0.564-0.5,0.599-0.601,0.6c-0.11,0.001-0.199,0.09-0.199,0.2
		c0,0.111,0.089,0.2,0.2,0.2c0.565,0,0.599,0.501,0.6,0.6c0,0.001,0,0.001,0,0.001c0,0.001,0.001,0.003,0,0.003v0.001v0v0.001
		c0.003,0.108,0.091,0.194,0.2,0.194C60.61,17.546,60.699,17.457,60.7,17.347z"/>
	<path fill="#E4C95C" d="M47.537,44.324c0.001-0.101,0.036-0.601,0.6-0.601c0.001,0,0.001,0,0.001,0c0.001,0,0.002,0,0.003,0h0
		h0.001h0.001h0.001c0.108-0.003,0.194-0.091,0.194-0.2c0-0.11-0.089-0.199-0.199-0.2c-0.101-0.001-0.601-0.036-0.601-0.6
		c0-0.111-0.089-0.2-0.2-0.2s-0.2,0.089-0.2,0.2c0,0.564-0.5,0.599-0.601,0.6c-0.11,0.001-0.199,0.09-0.199,0.2
		c0,0.111,0.089,0.2,0.2,0.2c0.565,0,0.599,0.501,0.6,0.6c0,0.001,0,0.001,0,0.001c0,0.001,0.001,0.003,0,0.003v0.001v0v0.001
		c0.003,0.108,0.091,0.194,0.2,0.194C47.447,44.523,47.536,44.434,47.537,44.324z"/>
	<path fill="#FFFFFF" d="M12.908,7.102C12.91,6.901,12.98,5.9,14.108,5.9c0.002,0,0.002,0,0.002,0c0.002,0,0.004,0,0.005,0h0
		c0.001,0,0.001,0,0.001,0h0.001c0,0,0.001,0,0.002,0c0.215-0.006,0.388-0.183,0.388-0.4c0-0.22-0.178-0.399-0.398-0.4
		c-0.201-0.002-1.202-0.071-1.202-1.2c0-0.221-0.179-0.4-0.4-0.4s-0.4,0.179-0.4,0.4c0,1.129-1.001,1.198-1.202,1.2
		c-0.22,0.001-0.398,0.18-0.398,0.4c0,0.221,0.179,0.4,0.4,0.4c1.129,0,1.198,1.002,1.2,1.2c0,0.002,0,0.002,0,0.003
		c0,0.002,0.001,0.005,0,0.005c0,0.001,0,0.001,0,0.001V7.11c0,0,0,0.001,0,0.002c0.006,0.215,0.183,0.388,0.4,0.388
		C12.728,7.5,12.907,7.322,12.908,7.102z"/>
	<path fill="#FFFFFF" d="M2.4,47.125c0.002-0.201,0.071-1.202,1.2-1.202c0.002,0,0.002,0,0.002,0c0.002,0,0.004,0,0.005,0h0
		c0.001,0,0.001,0,0.001,0H3.61c0,0,0.001,0,0.002,0C3.827,45.917,4,45.74,4,45.523c0-0.22-0.178-0.399-0.398-0.4
		C3.401,45.12,2.4,45.051,2.4,43.923c0-0.221-0.179-0.4-0.4-0.4c-0.221,0-0.4,0.179-0.4,0.4c0,1.129-1.001,1.198-1.202,1.2
		C0.178,45.124,0,45.303,0,45.523c0,0.221,0.179,0.4,0.4,0.4c1.129,0,1.198,1.002,1.2,1.2c0,0.002,0,0.002,0,0.003
		c0,0.002,0.001,0.005,0,0.005v0.001v0.001c0,0,0,0.001,0,0.002c0.006,0.215,0.183,0.388,0.4,0.388
		C2.22,47.523,2.399,47.345,2.4,47.125z"/>
</g>
</svg>
